Arimo-BoldItalic.ufo
<glyph name="exclam" format="2">
  <advance width="682"/>
  <unicode hex="0021"/>
  <note>
exclam
</note>
  <outline>
    <contour>
      <point x="647" y="1409" type="line"/>
      <point x="353" y="1409" type="line"/>
      <point x="193" y="426" type="line"/>
      <point x="423" y="426" type="line"/>
    </contour>
    <contour>
      <point x="419" y="270" type="line"/>
      <point x="131" y="270" type="line"/>
      <point x="79" y="0" type="line"/>
      <point x="367" y="0" type="line"/>
    </contour>
  </outline>
</glyph>
<glyph name="quotedbl" format="2">
  <advance width="971"/>
  <unicode hex="0022"/>
  <note>
quotedbl
</note>
  <outline>
    <contour>
      <point x="992" y="1409" type="line"/>
      <point x="717" y="1409" type="line"/>
      <point x="645" y="898" type="line"/>
      <point x="864" y="898" type="line"/>
    </contour>
    <contour>
      <point x="564" y="1409" type="line"/>
      <point x="291" y="1409" type="line"/>
      <point x="219" y="898" type="line"/>
      <point x="438" y="898" type="line"/>
    </contour>
  </outline>
</glyph>
<glyph name="numbersign" format="2">
  <advance width="1139"/>
  <unicode hex="0023"/>
  <note>
numbersign
</note>
  <outline>
    <contour>
      <point x="374" y="381" type="line"/>
      <point x="681" y="381" type="line"/>
      <point x="601" y="0" type="line"/>
      <point x="757" y="0" type="line"/>
      <point x="839" y="381" type="line"/>
      <point x="1085" y="381" type="line"/>
      <point x="1085" y="530" type="line"/>
      <point x="870" y="530" type="line"/>
      <point x="939" y="862" type="line"/>
      <point x="1136" y="862" type="line"/>
      <point x="1136" y="1010" type="line"/>
      <point x="972" y="1010" type="line"/>
      <point x="1056" y="1395" type="line"/>
      <point x="900" y="1395" type="line"/>
      <point x="816" y="1010" type="line"/>
      <point x="509" y="1010" type="line"/>
      <point x="591" y="1395" type="line"/>
      <point x="438" y="1395" type="line"/>
      <point x="354" y="1010" type="line"/>
      <point x="116" y="1010" type="line"/>
      <point x="116" y="862" type="line"/>
      <point x="323" y="862" type="line"/>
      <point x="253" y="530" type="line"/>
      <point x="65" y="530" type="line"/>
      <point x="65" y="381" type="line"/>
      <point x="220" y="381" type="line"/>
      <point x="141" y="0" type="line"/>
      <point x="294" y="0" type="line"/>
    </contour>
    <contour>
      <point x="407" y="530" type="line"/>
      <point x="479" y="862" type="line"/>
      <point x="786" y="862" type="line"/>
      <point x="716" y="530" type="line"/>
    </contour>
  </outline>
</glyph>
<glyph name="dollar" format="2">
  <advance width="1139"/>
  <unicode hex="0024"/>
  <note>
dollar
</note>
  <outline>
    <contour>
      <point x="1080" y="474" type="curve"/>
      <point x="1080" y="655"/>
      <point x="953" y="770"/>
      <point x="674" y="837" type="curve"/>
      <point x="741" y="1190" type="line"/>
      <point x="821" y="1190"/>
      <point x="877" y="1135"/>
      <point x="896" y="1032" type="curve"/>
      <point x="1157" y="1089" type="line"/>
      <point x="1140" y="1274"/>
      <point x="995" y="1386"/>
      <point x="779" y="1386" type="curve"/>
      <point x="806" y="1516" type="line"/>
      <point x="696" y="1520" type="line"/>
      <point x="672" y="1394" type="line"/>
      <point x="465" y="1394"/>
      <point x="290" y="1322"/>
      <point x="207" y="1202" type="curve" smooth="yes"/>
      <point x="165" y="1141"/>
      <point x="144" y="1070"/>
      <point x="144" y="988" type="curve" smooth="yes"/>
      <point x="144" y="885"/>
      <point x="188" y="798"/>
      <point x="272" y="731" type="curve" smooth="yes"/>
      <point x="334" y="682"/>
      <point x="416" y="644"/>
      <point x="518" y="619" type="curve"/>
      <point x="445" y="231" type="line"/>
      <point x="325" y="231"/>
      <point x="260" y="290"/>
      <point x="251" y="408" type="curve"/>
      <point x="-11" y="366" type="line"/>
      <point x="5" y="158"/>
      <point x="168" y="23"/>
      <point x="403" y="23" type="curve"/>
      <point x="371" y="-152" type="line"/>
      <point x="483" y="-152" type="line"/>
      <point x="516" y="21" type="line"/>
      <point x="892" y="36"/>
      <point x="1080" y="190"/>
    </contour>
    <contour>
      <point x="412" y="1006" type="curve"/>
      <point x="412" y="1115"/>
      <point x="501" y="1194"/>
      <point x="633" y="1194" type="curve"/>
      <point x="566" y="863" type="line"/>
      <point x="447" y="902"/>
      <point x="412" y="941"/>
    </contour>
    <contour>
      <point x="810" y="413" type="curve"/>
      <point x="810" y="301"/>
      <point x="707" y="231"/>
      <point x="554" y="231" type="curve"/>
      <point x="627" y="593" type="line"/>
      <point x="754" y="564"/>
      <point x="810" y="516"/>
    </contour>
  </outline>
</glyph>
<glyph name="percent" format="2">
  <advance width="1821"/>
  <unicode hex="0025"/>
  <note>
percent
</note>
  <outline>
    <contour>
      <point x="546" y="1421" type="curve" smooth="yes"/>
      <point x="329" y="1421"/>
      <point x="192" y="1286"/>
      <point x="136" y="1015" type="curve"/>
      <point x="120" y="958"/>
      <point x="112" y="900"/>
      <point x="112" y="841" type="curve" smooth="yes"/>
      <point x="112" y="642"/>
      <point x="218" y="524"/>
      <point x="407" y="524" type="curve" smooth="yes"/>
      <point x="546" y="524"/>
      <point x="658" y="588"/>
      <point x="739" y="708" type="curve" smooth="yes"/>
      <point x="780" y="768"/>
      <point x="810" y="844"/>
      <point x="829" y="935" type="curve"/>
      <point x="846" y="999"/>
      <point x="855" y="1058"/>
      <point x="855" y="1113" type="curve" smooth="yes"/>
      <point x="855" y="1312"/>
      <point x="746" y="1421"/>
    </contour>
    <contour>
      <point x="486" y="0" type="line"/>
      <point x="1574" y="1409" type="line"/>
      <point x="1375" y="1409" type="line"/>
      <point x="289" y="0" type="line"/>
    </contour>
    <contour>
      <point x="545" y="1270" type="curve" smooth="yes"/>
      <point x="609" y="1270"/>
      <point x="641" y="1224"/>
      <point x="641" y="1131" type="curve" smooth="yes"/>
      <point x="641" y="1080"/>
      <point x="632" y="1018"/>
      <point x="613" y="945" type="curve"/>
      <point x="594" y="847"/>
      <point x="566" y="778"/>
      <point x="526" y="735" type="curve" smooth="yes"/>
      <point x="496" y="702"/>
      <point x="457" y="685"/>
      <point x="411" y="685" type="curve" smooth="yes"/>
      <point x="354" y="685"/>
      <point x="325" y="732"/>
      <point x="325" y="827" type="curve" smooth="yes"/>
      <point x="325" y="926"/>
      <point x="362" y="1130"/>
      <point x="422" y="1210" type="curve" smooth="yes"/>
      <point x="452" y="1250"/>
      <point x="492" y="1270"/>
    </contour>
    <contour>
      <point x="1454" y="882" type="curve" smooth="yes"/>
      <point x="1237" y="882"/>
      <point x="1101" y="747"/>
      <point x="1045" y="476" type="curve"/>
      <point x="1029" y="419"/>
      <point x="1021" y="361"/>
      <point x="1021" y="302" type="curve" smooth="yes"/>
      <point x="1021" y="103"/>
      <point x="1127" y="-15"/>
      <point x="1316" y="-15" type="curve" smooth="yes"/>
      <point x="1455" y="-15"/>
      <point x="1567" y="49"/>
      <point x="1648" y="169" type="curve" smooth="yes"/>
      <point x="1689" y="229"/>
      <point x="1719" y="305"/>
      <point x="1738" y="396" type="curve"/>
      <point x="1755" y="460"/>
      <point x="1764" y="519"/>
      <point x="1764" y="574" type="curve" smooth="yes"/>
      <point x="1764" y="773"/>
      <point x="1654" y="882"/>
    </contour>
    <contour>
      <point x="1454" y="731" type="curve" smooth="yes"/>
      <point x="1518" y="731"/>
      <point x="1550" y="685"/>
      <point x="1550" y="592" type="curve" smooth="yes"/>
      <point x="1550" y="541"/>
      <point x="1541" y="479"/>
      <point x="1522" y="406" type="curve"/>
      <point x="1503" y="312"/>
      <point x="1477" y="243"/>
      <point x="1439" y="201" type="curve" smooth="yes"/>
      <point x="1408" y="164"/>
      <point x="1368" y="146"/>
      <point x="1320" y="146" type="curve" smooth="yes"/>
      <point x="1263" y="146"/>
      <point x="1234" y="193"/>
      <point x="1234" y="288" type="curve" smooth="yes"/>
      <point x="1234" y="387"/>
      <point x="1271" y="591"/>
      <point x="1331" y="671" type="curve" smooth="yes"/>
      <point x="1361" y="711"/>
      <point x="1402" y="731"/>
    </contour>
  </outline>
</glyph>
<glyph name="ampersand" format="2">
  <advance width="1479"/>
  <unicode hex="0026"/>
  <note>
ampersand
</note>
  <outline>
    <contour>
      <point x="1329" y="677" type="curve"/>
      <point x="1142" y="760" type="line"/>
      <point x="1075" y="611"/>
      <point x="997" y="490"/>
      <point x="908" y="395" type="curve"/>
      <point x="837" y="490"/>
      <point x="793" y="568"/>
      <point x="736" y="727" type="curve"/>
      <point x="873" y="783"/>
      <point x="971" y="831"/>
      <point x="1028" y="870" type="curve" smooth="yes"/>
      <point x="1142" y="948"/>
      <point x="1204" y="1039"/>
      <point x="1204" y="1160" type="curve" smooth="yes"/>
      <point x="1204" y="1323"/>
      <point x="1080" y="1417"/>
      <point x="868" y="1417" type="curve" smooth="yes"/>
      <point x="603" y="1417"/>
      <point x="440" y="1266"/>
      <point x="440" y="1037" type="curve" smooth="yes"/>
      <point x="440" y="968"/>
      <point x="455" y="875"/>
      <point x="475" y="811" type="curve"/>
      <point x="191" y="712"/>
      <point x="49" y="560"/>
      <point x="49" y="354" type="curve" smooth="yes"/>
      <point x="49" y="113"/>
      <point x="196" y="-20"/>
      <point x="464" y="-20" type="curve" smooth="yes"/>
      <point x="579" y="-20"/>
      <point x="671" y="-2"/>
      <point x="740" y="28" type="curve" smooth="yes"/>
      <point x="775" y="43"/>
      <point x="816" y="68"/>
      <point x="863" y="105" type="curve"/>
      <point x="950" y="27"/>
      <point x="1052" y="-12"/>
      <point x="1168" y="-12" type="curve" smooth="yes"/>
      <point x="1217" y="-12"/>
      <point x="1263" y="-5"/>
      <point x="1307" y="10" type="curve"/>
      <point x="1346" y="213" type="line"/>
      <point x="1314" y="202"/>
      <point x="1277" y="197"/>
      <point x="1235" y="197" type="curve" smooth="yes"/>
      <point x="1162" y="197"/>
      <point x="1101" y="218"/>
      <point x="1051" y="261" type="curve"/>
      <point x="1162" y="374"/>
      <point x="1269" y="538"/>
    </contour>
    <contour>
      <point x="667" y="1041" type="curve" smooth="yes"/>
      <point x="667" y="1169"/>
      <point x="742" y="1247"/>
      <point x="855" y="1247" type="curve" smooth="yes"/>
      <point x="932" y="1247"/>
      <point x="980" y="1210"/>
      <point x="980" y="1142" type="curve" smooth="yes"/>
      <point x="980" y="1074"/>
      <point x="946" y="1024"/>
      <point x="879" y="982" type="curve" smooth="yes"/>
      <point x="846" y="961"/>
      <point x="782" y="932"/>
      <point x="687" y="896" type="curve"/>
      <point x="674" y="939"/>
      <point x="667" y="987"/>
    </contour>
    <contour>
      <point x="493" y="170" type="curve" smooth="yes"/>
      <point x="380" y="170"/>
      <point x="304" y="247"/>
      <point x="304" y="360" type="curve" smooth="yes"/>
      <point x="304" y="471"/>
      <point x="360" y="556"/>
      <point x="525" y="631" type="curve"/>
      <point x="576" y="486"/>
      <point x="642" y="358"/>
      <point x="725" y="249" type="curve"/>
      <point x="665" y="204"/>
      <point x="577" y="170"/>
    </contour>
  </outline>
</glyph>
<glyph name="quotesingle" format="2">
  <advance width="487"/>
  <unicode hex="0027"/>
  <note>
quotesingle
</note>
  <outline>
    <contour>
      <point x="543" y="1409" type="line"/>
      <point x="271" y="1409" type="line"/>
      <point x="198" y="898" type="line"/>
      <point x="417" y="898" type="line"/>
    </contour>
  </outline>
</glyph>
<glyph name="parenleft" format="2">
  <advance width="682"/>
  <unicode hex="0028"/>
  <note>
parenleft
</note>
  <outline>
    <contour>
      <point x="874" y="1484" type="curve"/>
      <point x="593" y="1484" type="line"/>
      <point x="253" y="1192"/>
      <point x="74" y="780"/>
      <point x="74" y="296" type="curve" smooth="yes"/>
      <point x="74" y="26"/>
      <point x="123" y="-214"/>
      <point x="222" y="-425" type="curve"/>
      <point x="497" y="-425" type="line"/>
      <point x="399" y="-221"/>
      <point x="350" y="14"/>
      <point x="350" y="280" type="curve" smooth="yes"/>
      <point x="350" y="749"/>
      <point x="525" y="1151"/>
    </contour>
  </outline>
</glyph>
<glyph name="parenright" format="2">
  <advance width="682"/>
  <unicode hex="0029"/>
  <note>
parenright
</note>
  <outline>
    <contour>
      <point x="-180" y="-425" type="curve"/>
      <point x="101" y="-425" type="line"/>
      <point x="438" y="-130"/>
      <point x="622" y="293"/>
      <point x="622" y="793" type="curve" smooth="yes"/>
      <point x="622" y="1040"/>
      <point x="568" y="1271"/>
      <point x="461" y="1484" type="curve"/>
      <point x="196" y="1484" type="line"/>
      <point x="288" y="1293"/>
      <point x="345" y="1036"/>
      <point x="345" y="809" type="curve" smooth="yes"/>
      <point x="345" y="328"/>
      <point x="170" y="-83"/>
    </contour>
  </outline>
</glyph>
<glyph name="asterisk" format="2">
  <advance width="797"/>
  <unicode hex="002A"/>
  <note>
asterisk
</note>
  <outline>
    <contour>
      <point x="813" y="768" type="line"/>
      <point x="627" y="981" type="line"/>
      <point x="877" y="1042" type="line"/>
      <point x="809" y="1239" type="line"/>
      <point x="574" y="1135" type="line"/>
      <point x="592" y="1409" type="line"/>
      <point x="377" y="1409" type="line"/>
      <point x="395" y="1135" type="line"/>
      <point x="156" y="1239" type="line"/>
      <point x="88" y="1042" type="line"/>
      <point x="338" y="981" type="line"/>
      <point x="148" y="770" type="line"/>
      <point x="334" y="647" type="line"/>
      <point x="483" y="899" type="line"/>
      <point x="629" y="647" type="line"/>
    </contour>
  </outline>
</glyph>
<glyph name="plus" format="2">
  <advance width="1196"/>
  <unicode hex="002B"/>
  <note>
plus
</note>
  <outline>
    <contour>
      <point x="750" y="569" type="line"/>
      <point x="1152" y="569" type="line"/>
      <point x="1152" y="793" type="line"/>
      <point x="750" y="793" type="line"/>
      <point x="750" y="1201" type="line"/>
      <point x="524" y="1201" type="line"/>
      <point x="524" y="793" type="line"/>
      <point x="125" y="793" type="line"/>
      <point x="125" y="569" type="line"/>
      <point x="524" y="569" type="line"/>
      <point x="524" y="161" type="line"/>
      <point x="750" y="161" type="line"/>
    </contour>
  </outline>
</glyph>
<glyph name="comma" format="2">
  <advance width="569"/>
  <unicode hex="002C"/>
  <note>
comma
</note>
  <outline>
    <contour>
      <point x="347" y="66" type="curve" smooth="yes"/>
      <point x="394" y="305" type="line"/>
      <point x="105" y="305" type="line"/>
      <point x="46" y="0" type="line"/>
      <point x="175" y="0" type="line"/>
      <point x="156" y="-97"/>
      <point x="84" y="-213"/>
      <point x="-20" y="-317" type="curve"/>
      <point x="165" y="-317" type="line"/>
      <point x="262" y="-210"/>
      <point x="316" y="-94"/>
    </contour>
  </outline>
</glyph>
<glyph name="hyphen" format="2">
  <advance width="682"/>
  <unicode hex="002D"/>
  <unicode hex="00AD"/>
  <note>
hyphen
</note>
  <outline>
    <contour>
      <point x="623" y="653" type="line"/>
      <point x="103" y="653" type="line"/>
      <point x="56" y="409" type="line"/>
      <point x="576" y="409" type="line"/>
    </contour>
  </outline>
</glyph>
<glyph name="period" format="2">
  <advance width="569"/>
  <unicode hex="002E"/>
  <note>
period
</note>
  <outline>
    <contour>
      <point x="394" y="305" type="line"/>
      <point x="105" y="305" type="line"/>
      <point x="46" y="0" type="line"/>
      <point x="335" y="0" type="line"/>
    </contour>
  </outline>
</glyph>
<glyph name="zero" format="2">
  <advance width="1139"/>
  <unicode hex="0030"/>
  <note>
zero
</note>
  <outline>
    <contour>
      <point x="724" y="1430" type="curve"/>
      <point x="511" y="1430"/>
      <point x="358" y="1332"/>
      <point x="253" y="1144" type="curve" smooth="yes"/>
      <point x="148" y="956"/>
      <point x="85" y="639"/>
      <point x="85" y="454" type="curve" smooth="yes"/>
      <point x="85" y="135"/>
      <point x="211" y="-20"/>
      <point x="478" y="-20" type="curve" smooth="yes"/>
      <point x="784" y="-20"/>
      <point x="985" y="208"/>
      <point x="1081" y="665" type="curve" smooth="yes"/>
      <point x="1106" y="788"/>
      <point x="1119" y="887"/>
      <point x="1119" y="964" type="curve" smooth="yes"/>
      <point x="1119" y="1275"/>
      <point x="987" y="1430"/>
    </contour>
    <contour>
      <point x="497" y="201" type="curve"/>
      <point x="404" y="201"/>
      <point x="358" y="272"/>
      <point x="358" y="415" type="curve" smooth="yes"/>
      <point x="358" y="526"/>
      <point x="414" y="872"/>
      <point x="464" y="1012" type="curve" smooth="yes"/>
      <point x="514" y="1151"/>
      <point x="579" y="1210"/>
      <point x="694" y="1210" type="curve" smooth="yes"/>
      <point x="795" y="1210"/>
      <point x="846" y="1132"/>
      <point x="846" y="977" type="curve" smooth="yes"/>
      <point x="846" y="866"/>
      <point x="779" y="452"/>
      <point x="685" y="309" type="curve" smooth="yes"/>
      <point x="638" y="237"/>
      <point x="575" y="201"/>
    </contour>
  </outline>
</glyph>
<glyph name="one" format="2">
  <advance width="1139"/>
  <unicode hex="0031"/>
  <note>
one
</note>
  <outline>
    <contour>
      <point x="1029" y="231" type="line"/>
      <point x="706" y="231" type="line"/>
      <point x="936" y="1409" type="line"/>
      <point x="666" y="1409" type="line"/>
      <point x="270" y="1180" type="line"/>
      <point x="223" y="938" type="line"/>
      <point x="604" y="1152" type="line"/>
      <point x="425" y="231" type="line"/>
      <point x="76" y="231" type="line"/>
      <point x="33" y="0" type="line"/>
      <point x="985" y="0" type="line"/>
    </contour>
  </outline>
</glyph>
<glyph name="two" format="2">
  <advance width="1139"/>
  <unicode hex="0032"/>
  <note>
two
</note>
  <outline>
    <contour>
      <point x="997" y="231" type="line"/>
      <point x="343" y="231" type="line"/>
      <point x="402" y="319"/>
      <point x="500" y="403"/>
      <point x="676" y="523" type="curve" smooth="yes"/>
      <point x="928" y="692"/>
      <point x="1020" y="784"/>
      <point x="1076" y="900" type="curve" smooth="yes"/>
      <point x="1104" y="958"/>
      <point x="1118" y="1019"/>
      <point x="1118" y="1083" type="curve" smooth="yes"/>
      <point x="1118" y="1312"/>
      <point x="967" y="1430"/>
      <point x="687" y="1430" type="curve" smooth="yes"/>
      <point x="420" y="1430"/>
      <point x="249" y="1320"/>
      <point x="178" y="1081" type="curve"/>
      <point x="444" y="1022" type="line"/>
      <point x="480" y="1150"/>
      <point x="550" y="1206"/>
      <point x="667" y="1206" type="curve" smooth="yes"/>
      <point x="775" y="1206"/>
      <point x="829" y="1158"/>
      <point x="829" y="1063" type="curve" smooth="yes"/>
      <point x="829" y="980"/>
      <point x="788" y="907"/>
      <point x="716" y="835" type="curve" smooth="yes"/>
      <point x="680" y="799"/>
      <point x="613" y="746"/>
      <point x="514" y="677" type="curve" smooth="yes"/>
      <point x="273" y="509"/>
      <point x="203" y="446"/>
      <point x="118" y="351" type="curve" smooth="yes"/>
      <point x="75" y="304"/>
      <point x="38" y="252"/>
      <point x="5" y="195" type="curve"/>
      <point x="-32" y="0" type="line"/>
      <point x="953" y="0" type="line"/>
    </contour>
  </outline>
</glyph>
<glyph name="three" format="2">
  <advance width="1139"/>
  <unicode hex="0033"/>
  <note>
three
</note>
  <outline>
    <contour>
      <point x="535" y="829" type="curve"/>
      <point x="462" y="829" type="line"/>
      <point x="418" y="602" type="line"/>
      <point x="525" y="602" type="line" smooth="yes"/>
      <point x="672" y="602"/>
      <point x="745" y="540"/>
      <point x="745" y="416" type="curve" smooth="yes"/>
      <point x="745" y="285"/>
      <point x="663" y="206"/>
      <point x="524" y="206" type="curve" smooth="yes"/>
      <point x="376" y="206"/>
      <point x="313" y="261"/>
      <point x="298" y="381" type="curve"/>
      <point x="16" y="343" type="line"/>
      <point x="31" y="179"/>
      <point x="119" y="68"/>
      <point x="272" y="15" type="curve" smooth="yes"/>
      <point x="339" y="-8"/>
      <point x="419" y="-20"/>
      <point x="511" y="-20" type="curve" smooth="yes"/>
      <point x="715" y="-20"/>
      <point x="878" y="57"/>
      <point x="965" y="193" type="curve" smooth="yes"/>
      <point x="1008" y="260"/>
      <point x="1030" y="335"/>
      <point x="1030" y="418" type="curve" smooth="yes"/>
      <point x="1030" y="585"/>
      <point x="934" y="693"/>
      <point x="754" y="721" type="curve"/>
      <point x="755" y="725" type="line"/>
      <point x="978" y="745"/>
      <point x="1116" y="878"/>
      <point x="1116" y="1086" type="curve" smooth="yes"/>
      <point x="1116" y="1302"/>
      <point x="956" y="1430"/>
      <point x="685" y="1430" type="curve" smooth="yes"/>
      <point x="410" y="1430"/>
      <point x="238" y="1311"/>
      <point x="170" y="1074" type="curve"/>
      <point x="437" y="1022" type="line"/>
      <point x="471" y="1145"/>
      <point x="550" y="1206"/>
      <point x="674" y="1206" type="curve" smooth="yes"/>
      <point x="781" y="1206"/>
      <point x="831" y="1147"/>
      <point x="831" y="1051" type="curve" smooth="yes"/>
      <point x="831" y="910"/>
      <point x="734" y="829"/>
    </contour>
  </outline>
</glyph>
<glyph name="four" format="2">
  <advance width="1139"/>
  <unicode hex="0034"/>
  <note>
four
</note>
  <outline>
    <contour>
      <point x="874" y="286" type="line"/>
      <point x="1062" y="286" type="line"/>
      <point x="1104" y="496" type="line"/>
      <point x="916" y="496" type="line"/>
      <point x="1094" y="1409" type="line"/>
      <point x="724" y="1409" type="line"/>
      <point x="7" y="493" type="line"/>
      <point x="-34" y="286" type="line"/>
      <point x="606" y="286" type="line"/>
      <point x="552" y="0" type="line"/>
      <point x="820" y="0" type="line"/>
    </contour>
    <contour>
      <point x="800" y="1206" type="curve"/>
      <point x="779" y="1142"/>
      <point x="762" y="1080"/>
      <point x="750" y="1020" type="curve" smooth="yes"/>
      <point x="648" y="496" type="line"/>
      <point x="259" y="496" type="line"/>
      <point x="683" y="1036" type="line" smooth="yes"/>
      <point x="730" y="1097"/>
      <point x="769" y="1154"/>
    </contour>
  </outline>
</glyph>
<glyph name="five" format="2">
  <advance width="1139"/>
  <unicode hex="0035"/>
  <note>
five
</note>
  <outline>
    <contour>
      <point x="994" y="235" type="curve" smooth="yes"/>
      <point x="1041" y="316"/>
      <point x="1064" y="411"/>
      <point x="1064" y="518" type="curve" smooth="yes"/>
      <point x="1064" y="771"/>
      <point x="917" y="934"/>
      <point x="694" y="934" type="curve" smooth="yes"/>
      <point x="580" y="934"/>
      <point x="495" y="894"/>
      <point x="439" y="844" type="curve"/>
      <point x="526" y="1178" type="line"/>
      <point x="1120" y="1178" type="line"/>
      <point x="1163" y="1409" type="line"/>
      <point x="316" y="1409" type="line"/>
      <point x="113" y="616" type="line"/>
      <point x="387" y="616" type="line"/>
      <point x="440" y="677"/>
      <point x="507" y="707"/>
      <point x="589" y="707" type="curve" smooth="yes"/>
      <point x="709" y="707"/>
      <point x="778" y="626"/>
      <point x="778" y="486" type="curve" smooth="yes"/>
      <point x="778" y="317"/>
      <point x="677" y="206"/>
      <point x="510" y="206" type="curve" smooth="yes"/>
      <point x="385" y="206"/>
      <point x="327" y="250"/>
      <point x="303" y="374" type="curve"/>
      <point x="20" y="329" type="line"/>
      <point x="57" y="100"/>
      <point x="221" y="-20"/>
      <point x="486" y="-20" type="curve" smooth="yes"/>
      <point x="717" y="-20"/>
      <point x="900" y="71"/>
    </contour>
  </outline>
</glyph>
<glyph name="six" format="2">
  <advance width="1139"/>
  <unicode hex="0036"/>
  <note>
six
</note>
  <outline>
    <contour>
      <point x="533" y="-20" type="curve"/>
      <point x="741" y="-20"/>
      <point x="915" y="83"/>
      <point x="1008" y="254" type="curve" smooth="yes"/>
      <point x="1055" y="339"/>
      <point x="1078" y="432"/>
      <point x="1078" y="533" type="curve" smooth="yes"/>
      <point x="1078" y="765"/>
      <point x="944" y="907"/>
      <point x="725" y="907" type="curve" smooth="yes"/>
      <point x="588" y="907"/>
      <point x="477" y="842"/>
      <point x="406" y="746" type="curve"/>
      <point x="458" y="1055"/>
      <point x="577" y="1208"/>
      <point x="730" y="1208" type="curve" smooth="yes"/>
      <point x="818" y="1208"/>
      <point x="865" y="1162"/>
      <point x="884" y="1065" type="curve"/>
      <point x="1150" y="1106" type="line"/>
      <point x="1126" y="1315"/>
      <point x="985" y="1430"/>
      <point x="745" y="1430" type="curve" smooth="yes"/>
      <point x="500" y="1430"/>
      <point x="290" y="1264"/>
      <point x="179" y="974" type="curve" smooth="yes"/>
      <point x="123" y="829"/>
      <point x="95" y="666"/>
      <point x="95" y="487" type="curve" smooth="yes"/>
      <point x="95" y="166"/>
      <point x="253" y="-20"/>
    </contour>
    <contour>
      <point x="369" y="429" type="curve"/>
      <point x="369" y="534"/>
      <point x="414" y="621"/>
      <point x="490" y="666" type="curve" smooth="yes"/>
      <point x="528" y="689"/>
      <point x="569" y="700"/>
      <point x="614" y="700" type="curve" smooth="yes"/>
      <point x="725" y="700"/>
      <point x="792" y="628"/>
      <point x="792" y="499" type="curve" smooth="yes"/>
      <point x="792" y="318"/>
      <point x="701" y="200"/>
      <point x="558" y="200" type="curve" smooth="yes"/>
      <point x="437" y="200"/>
      <point x="369" y="289"/>
    </contour>
  </outline>
</glyph>
<glyph name="seven" format="2">
  <advance width="1139"/>
  <unicode hex="0037"/>
  <note>
seven
</note>
  <outline>
    <contour>
      <point x="472" y="0" type="line"/>
      <point x="516" y="215"/>
      <point x="584" y="394"/>
      <point x="717" y="601" type="curve" smooth="yes"/>
      <point x="760" y="668"/>
      <point x="810" y="739"/>
      <point x="868" y="814" type="curve" smooth="yes"/>
      <point x="912" y="870"/>
      <point x="960" y="929"/>
      <point x="1013" y="992" type="curve"/>
      <point x="1066" y="1057"/>
      <point x="1120" y="1121"/>
      <point x="1175" y="1186" type="curve"/>
      <point x="1219" y="1409" type="line"/>
      <point x="188" y="1409" type="line"/>
      <point x="143" y="1178" type="line"/>
      <point x="893" y="1178" type="line"/>
      <point x="721" y="989"/>
      <point x="564" y="816"/>
      <point x="440" y="629" type="curve" smooth="yes"/>
      <point x="315" y="442"/>
      <point x="221" y="243"/>
      <point x="174" y="0" type="curve"/>
    </contour>
  </outline>
</glyph>
<glyph name="eight" format="2">
  <advance width="1139"/>
  <unicode hex="0038"/>
  <note>
eight
</note>
  <outline>
    <contour>
      <point x="707" y="1429" type="curve"/>
      <point x="395" y="1429"/>
      <point x="199" y="1288"/>
      <point x="199" y="1052" type="curve" smooth="yes"/>
      <point x="199" y="907"/>
      <point x="263" y="796"/>
      <point x="386" y="741" type="curve"/>
      <point x="386" y="737" type="line"/>
      <point x="159" y="692"/>
      <point x="27" y="556"/>
      <point x="27" y="360" type="curve" smooth="yes"/>
      <point x="27" y="121"/>
      <point x="197" y="-20"/>
      <point x="493" y="-20" type="curve" smooth="yes"/>
      <point x="838" y="-20"/>
      <point x="1049" y="155"/>
      <point x="1049" y="432" type="curve" smooth="yes"/>
      <point x="1049" y="581"/>
      <point x="967" y="695"/>
      <point x="819" y="739" type="curve"/>
      <point x="820" y="743" type="line"/>
      <point x="1013" y="770"/>
      <point x="1136" y="904"/>
      <point x="1136" y="1091" type="curve" smooth="yes"/>
      <point x="1136" y="1298"/>
      <point x="972" y="1429"/>
    </contour>
    <contour>
      <point x="648" y="840" type="curve"/>
      <point x="539" y="840"/>
      <point x="476" y="904"/>
      <point x="476" y="1020" type="curve" smooth="yes"/>
      <point x="476" y="1155"/>
      <point x="552" y="1232"/>
      <point x="679" y="1232" type="curve" smooth="yes"/>
      <point x="794" y="1232"/>
      <point x="851" y="1176"/>
      <point x="851" y="1064" type="curve" smooth="yes"/>
      <point x="851" y="924"/>
      <point x="773" y="840"/>
    </contour>
    <contour>
      <point x="561" y="640" type="curve"/>
      <point x="685" y="640"/>
      <point x="760" y="571"/>
      <point x="760" y="444" type="curve" smooth="yes"/>
      <point x="760" y="281"/>
      <point x="664" y="178"/>
      <point x="520" y="178" type="curve" smooth="yes"/>
      <point x="392" y="178"/>
      <point x="317" y="250"/>
      <point x="317" y="377" type="curve" smooth="yes"/>
      <point x="317" y="538"/>
      <point x="406" y="640"/>
    </contour>
  </outline>
</glyph>
<glyph name="nine" format="2">
  <advance width="1139"/>
  <unicode hex="0039"/>
  <note>
nine
</note>
  <outline>
    <contour>
      <point x="817" y="653" type="curve"/>
      <point x="760" y="352"/>
      <point x="653" y="202"/>
      <point x="498" y="202" type="curve" smooth="yes"/>
      <point x="400" y="202"/>
      <point x="341" y="254"/>
      <point x="322" y="359" type="curve"/>
      <point x="48" y="311" type="line"/>
      <point x="84" y="99"/>
      <point x="236" y="-20"/>
      <point x="479" y="-20" type="curve" smooth="yes"/>
      <point x="609" y="-20"/>
      <point x="723" y="23"/>
      <point x="819" y="109" type="curve" smooth="yes"/>
      <point x="866" y="150"/>
      <point x="908" y="200"/>
      <point x="946" y="261" type="curve" smooth="yes"/>
      <point x="1062" y="447"/>
      <point x="1130" y="728"/>
      <point x="1130" y="957" type="curve" smooth="yes"/>
      <point x="1130" y="1245"/>
      <point x="959" y="1430"/>
      <point x="692" y="1430" type="curve" smooth="yes"/>
      <point x="489" y="1430"/>
      <point x="313" y="1333"/>
      <point x="218" y="1167" type="curve" smooth="yes"/>
      <point x="171" y="1084"/>
      <point x="147" y="992"/>
      <point x="147" y="893" type="curve" smooth="yes"/>
      <point x="147" y="735"/>
      <point x="210" y="613"/>
      <point x="316" y="550" type="curve" smooth="yes"/>
      <point x="368" y="520"/>
      <point x="430" y="503"/>
      <point x="500" y="503" type="curve" smooth="yes"/>
      <point x="639" y="503"/>
      <point x="730" y="550"/>
    </contour>
    <contour>
      <point x="855" y="1009" type="curve"/>
      <point x="855" y="894"/>
      <point x="819" y="806"/>
      <point x="756" y="756" type="curve" smooth="yes"/>
      <point x="717" y="726"/>
      <point x="668" y="710"/>
      <point x="611" y="710" type="curve" smooth="yes"/>
      <point x="500" y="710"/>
      <point x="432" y="787"/>
      <point x="432" y="900" type="curve" smooth="yes"/>
      <point x="432" y="1089"/>
      <point x="526" y="1210"/>
      <point x="678" y="1210" type="curve" smooth="yes"/>
      <point x="781" y="1210"/>
      <point x="855" y="1125"/>
    </contour>
  </outline>
</glyph>
<glyph name="less" format="2">
  <advance width="1196"/>
  <unicode hex="003C"/>
  <note>
less
</note>
  <outline>
    <contour>
      <point x="1151" y="352" type="line"/>
      <point x="318" y="676" type="line"/>
      <point x="1151" y="1001" type="line"/>
      <point x="1151" y="1229" type="line"/>
      <point x="124" y="838" type="line"/>
      <point x="124" y="516" type="line"/>
      <point x="1151" y="125" type="line"/>
    </contour>
  </outline>
</glyph>
<glyph name="equal" format="2">
  <advance width="1196"/>
  <unicode hex="003D"/>
  <note>
equal
</note>
  <outline>
    <contour>
      <point x="1150" y="1065" type="line"/>
      <point x="123" y="1065" type="line"/>
      <point x="123" y="842" type="line"/>
      <point x="1150" y="842" type="line"/>
    </contour>
    <contour>
      <point x="1150" y="512" type="line"/>
      <point x="123" y="512" type="line"/>
      <point x="123" y="291" type="line"/>
      <point x="1150" y="291" type="line"/>
    </contour>
  </outline>
</glyph>
<glyph name="greater" format="2">
  <advance width="1196"/>
  <unicode hex="003E"/>
  <note>
greater
</note>
  <outline>
    <contour>
      <point x="1151" y="516" type="line"/>
      <point x="1151" y="838" type="line"/>
      <point x="124" y="1229" type="line"/>
      <point x="124" y="1001" type="line"/>
      <point x="956" y="676" type="line"/>
      <point x="124" y="352" type="line"/>
      <point x="124" y="125" type="line"/>
    </contour>
  </outline>
</glyph>
<glyph name="question" format="2">
  <advance width="1251"/>
  <unicode hex="003F"/>
  <note>
question
</note>
  <outline>
    <contour>
      <point x="745" y="1430" type="curve"/>
      <point x="449" y="1430"/>
      <point x="262" y="1303"/>
      <point x="184" y="1048" type="curve"/>
      <point x="450" y="1008" type="line"/>
      <point x="485" y="1137"/>
      <point x="578" y="1201"/>
      <point x="729" y="1201" type="curve" smooth="yes"/>
      <point x="864" y="1201"/>
      <point x="926" y="1139"/>
      <point x="926" y="1055" type="curve" smooth="yes"/>
      <point x="926" y="1003"/>
      <point x="913" y="964"/>
      <point x="877" y="924" type="curve" smooth="yes"/>
      <point x="841" y="883"/>
      <point x="782" y="841"/>
      <point x="690" y="784" type="curve" smooth="yes"/>
      <point x="533" y="687"/>
      <point x="485" y="637"/>
      <point x="444" y="561" type="curve" smooth="yes"/>
      <point x="423" y="522"/>
      <point x="408" y="477"/>
      <point x="399" y="426" type="curve"/>
      <point x="666" y="426" type="line"/>
      <point x="674" y="482"/>
      <point x="697" y="521"/>
      <point x="735" y="557" type="curve" smooth="yes"/>
      <point x="754" y="575"/>
      <point x="789" y="601"/>
      <point x="841" y="635" type="curve"/>
      <point x="1050" y="751"/>
      <point x="1122" y="819"/>
      <point x="1172" y="914" type="curve" smooth="yes"/>
      <point x="1197" y="961"/>
      <point x="1209" y="1015"/>
      <point x="1209" y="1075" type="curve" smooth="yes"/>
      <point x="1209" y="1298"/>
      <point x="1030" y="1430"/>
    </contour>
    <contour>
      <point x="650" y="270" type="line"/>
      <point x="361" y="270" type="line"/>
      <point x="309" y="0" type="line"/>
      <point x="598" y="0" type="line"/>
    </contour>
  </outline>
</glyph>
<glyph name="at" format="2">
  <advance width="1997"/>
  <unicode hex="0040"/>
  <note>
at
</note>
  <outline>
    <contour>
      <point x="1911" y="755" type="curve"/>
      <point x="1911" y="1046"/>
      <point x="1783" y="1273"/>
      <point x="1546" y="1394" type="curve" smooth="yes"/>
      <point x="1427" y="1454"/>
      <point x="1287" y="1484"/>
      <point x="1125" y="1484" type="curve" smooth="yes"/>
      <point x="757" y="1484"/>
      <point x="445" y="1308"/>
      <point x="277" y="1003" type="curve" smooth="yes"/>
      <point x="192" y="850"/>
      <point x="150" y="680"/>
      <point x="150" y="491" type="curve" smooth="yes"/>
      <point x="150" y="180"/>
      <point x="291" y="-71"/>
      <point x="531" y="-198" type="curve" smooth="yes"/>
      <point x="650" y="-262"/>
      <point x="789" y="-294"/>
      <point x="946" y="-294" type="curve" smooth="yes"/>
      <point x="1171" y="-294"/>
      <point x="1380" y="-244"/>
      <point x="1604" y="-117" type="curve"/>
      <point x="1542" y="5" type="line"/>
      <point x="1345" y="-98"/>
      <point x="1149" y="-150"/>
      <point x="953" y="-150" type="curve" smooth="yes"/>
      <point x="694" y="-150"/>
      <point x="498" y="-48"/>
      <point x="392" y="149" type="curve" smooth="yes"/>
      <point x="339" y="247"/>
      <point x="312" y="361"/>
      <point x="312" y="491" type="curve" smooth="yes"/>
      <point x="312" y="819"/>
      <point x="460" y="1098"/>
      <point x="704" y="1238" type="curve" smooth="yes"/>
      <point x="826" y="1308"/>
      <point x="967" y="1343"/>
      <point x="1127" y="1343" type="curve" smooth="yes"/>
      <point x="1382" y="1343"/>
      <point x="1581" y="1242"/>
      <point x="1683" y="1063" type="curve" smooth="yes"/>
      <point x="1734" y="973"/>
      <point x="1759" y="870"/>
      <point x="1759" y="753" type="curve" smooth="yes"/>
      <point x="1759" y="566"/>
      <point x="1698" y="403"/>
      <point x="1601" y="311" type="curve" smooth="yes"/>
      <point x="1552" y="264"/>
      <point x="1501" y="241"/>
      <point x="1448" y="241" type="curve" smooth="yes"/>
      <point x="1407" y="241"/>
      <point x="1370" y="266"/>
      <point x="1370" y="333" type="curve" smooth="yes"/>
      <point x="1370" y="378"/>
      <point x="1382" y="458"/>
      <point x="1407" y="573" type="curve" smooth="yes"/>
      <point x="1524" y="1079" type="line"/>
      <point x="1368" y="1079" type="line"/>
      <point x="1329" y="927" type="line"/>
      <point x="1323" y="927" type="line"/>
      <point x="1277" y="1043"/>
      <point x="1189" y="1101"/>
      <point x="1059" y="1101" type="curve" smooth="yes"/>
      <point x="870" y="1101"/>
      <point x="710" y="986"/>
      <point x="624" y="795" type="curve" smooth="yes"/>
      <point x="581" y="700"/>
      <point x="559" y="598"/>
      <point x="559" y="489" type="curve" smooth="yes"/>
      <point x="559" y="246"/>
      <point x="680" y="104"/>
      <point x="889" y="104" type="curve" smooth="yes"/>
      <point x="1026" y="104"/>
      <point x="1172" y="203"/>
      <point x="1239" y="343" type="curve"/>
      <point x="1245" y="343" type="line"/>
      <point x="1241" y="323"/>
      <point x="1239" y="301"/>
      <point x="1239" y="276" type="curve" smooth="yes"/>
      <point x="1239" y="168"/>
      <point x="1307" y="104"/>
      <point x="1430" y="104" type="curve" smooth="yes"/>
      <point x="1603" y="104"/>
      <point x="1763" y="223"/>
      <point x="1848" y="423" type="curve" smooth="yes"/>
      <point x="1890" y="523"/>
      <point x="1911" y="634"/>
    </contour>
    <contour>
      <point x="1264" y="751" type="curve"/>
      <point x="1264" y="671"/>
      <point x="1227" y="515"/>
      <point x="1162" y="409" type="curve" smooth="yes"/>
      <point x="1097" y="303"/>
      <point x="1010" y="245"/>
      <point x="922" y="245" type="curve" smooth="yes"/>
      <point x="789" y="245"/>
      <point x="725" y="339"/>
      <point x="725" y="491" type="curve" smooth="yes"/>
      <point x="725" y="652"/>
      <point x="783" y="820"/>
      <point x="883" y="904" type="curve" smooth="yes"/>
      <point x="932" y="945"/>
      <point x="988" y="966"/>
      <point x="1051" y="966" type="curve" smooth="yes"/>
      <point x="1176" y="966"/>
      <point x="1264" y="878"/>
    </contour>
  </outline>
</glyph>
<glyph name="A" format="2">
  <advance width="1479"/>
  <unicode hex="0041"/>
  <note>
A
</note>
  <outline>
    <contour>
      <point x="447" y="360" type="line"/>
      <point x="984" y="360" type="line"/>
      <point x="1039" y="0" type="line"/>
      <point x="1331" y="0" type="line"/>
      <point x="1093" y="1409" type="line"/>
      <point x="745" y="1409" type="line"/>
      <point x="-42" y="0" type="line"/>
      <point x="252" y="0" type="line"/>
    </contour>
    <contour>
      <point x="876" y="1192" type="curve"/>
      <point x="876" y="1177"/>
      <point x="882" y="1124"/>
      <point x="894" y="1034" type="curve" smooth="yes"/>
      <point x="961" y="582" type="line"/>
      <point x="566" y="582" type="line"/>
      <point x="778" y="980" type="line" smooth="yes"/>
      <point x="829" y="1079"/>
      <point x="862" y="1149"/>
    </contour>
  </outline>
</glyph>
<glyph name="E" format="2">
  <advance width="1366"/>
  <unicode hex="0045"/>
  <note>
E
</note>
  <outline>
    <contour>
      <point x="1229" y="228" type="line"/>
      <point x="375" y="228" type="line"/>
      <point x="447" y="599" type="line"/>
      <point x="1199" y="599" type="line"/>
      <point x="1243" y="827" type="line"/>
      <point x="491" y="827" type="line"/>
      <point x="560" y="1181" type="line"/>
      <point x="1373" y="1181" type="line"/>
      <point x="1417" y="1409" type="line"/>
      <point x="309" y="1409" type="line"/>
      <point x="36" y="0" type="line"/>
      <point x="1184" y="0" type="line"/>
    </contour>
  </outline>
</glyph>
<glyph name="F" format="2">
  <advance width="1251"/>
  <unicode hex="0046"/>
  <note>
F
</note>
  <outline>
    <contour>
      <point x="431" y="517" type="line"/>
      <point x="1099" y="517" type="line"/>
      <point x="1143" y="745" type="line"/>
      <point x="475" y="745" type="line"/>
      <point x="560" y="1181" type="line"/>
      <point x="1251" y="1181" type="line"/>
      <point x="1295" y="1409" type="line"/>
      <point x="309" y="1409" type="line"/>
      <point x="36" y="0" type="line"/>
      <point x="330" y="0" type="line"/>
    </contour>
  </outline>
</glyph>
<glyph name="G" format="2">
  <advance width="1593"/>
  <unicode hex="0047"/>
  <note>
G
</note>
  <outline>
    <contour>
      <point x="740" y="-19" type="curve"/>
      <point x="996" y="-19"/>
      <point x="1192" y="32"/>
      <point x="1400" y="175" type="curve"/>
      <point x="1505" y="743" type="line"/>
      <point x="891" y="743" type="line"/>
      <point x="852" y="535" type="line"/>
      <point x="1194" y="535" type="line"/>
      <point x="1148" y="307" type="line"/>
      <point x="1052" y="248"/>
      <point x="908" y="211"/>
      <point x="764" y="211" type="curve" smooth="yes"/>
      <point x="532" y="211"/>
      <point x="399" y="355"/>
      <point x="399" y="592" type="curve" smooth="yes"/>
      <point x="399" y="832"/>
      <point x="487" y="1023"/>
      <point x="647" y="1123" type="curve" smooth="yes"/>
      <point x="727" y="1173"/>
      <point x="820" y="1198"/>
      <point x="926" y="1198" type="curve" smooth="yes"/>
      <point x="1095" y="1198"/>
      <point x="1209" y="1112"/>
      <point x="1248" y="961" type="curve"/>
      <point x="1530" y="1039" type="line"/>
      <point x="1459" y="1286"/>
      <point x="1246" y="1430"/>
      <point x="942" y="1430" type="curve" smooth="yes"/>
      <point x="609" y="1430"/>
      <point x="344" y="1286"/>
      <point x="205" y="1027" type="curve" smooth="yes"/>
      <point x="135" y="898"/>
      <point x="100" y="750"/>
      <point x="100" y="583" type="curve" smooth="yes"/>
      <point x="100" y="203"/>
      <point x="340" y="-19"/>
    </contour>
  </outline>
</glyph>
<glyph name="H" format="2">
  <advance width="1479"/>
  <unicode hex="0048"/>
  <note>
H
</note>
  <outline>
    <contour>
      <point x="448" y="604" type="line"/>
      <point x="1074" y="604" type="line"/>
      <point x="956" y="0" type="line"/>
      <point x="1240" y="0" type="line"/>
      <point x="1514" y="1409" type="line"/>
      <point x="1230" y="1409" type="line"/>
      <point x="1121" y="848" type="line"/>
      <point x="495" y="848" type="line"/>
      <point x="604" y="1409" type="line"/>
      <point x="309" y="1409" type="line"/>
      <point x="36" y="0" type="line"/>
      <point x="330" y="0" type="line"/>
    </contour>
  </outline>
</glyph>
<glyph name="K" format="2">
  <advance width="1479"/>
  <unicode hex="004B"/>
  <note>
K
</note>
  <outline>
    <contour>
      <point x="429" y="517" type="line"/>
      <point x="640" y="640" type="line"/>
      <point x="995" y="0" type="line"/>
      <point x="1321" y="0" type="line"/>
      <point x="856" y="793" type="line"/>
      <point x="1603" y="1409" type="line"/>
      <point x="1234" y="1409" type="line"/>
      <point x="633" y="904" type="line"/>
      <point x="474" y="770" type="line"/>
      <point x="604" y="1409" type="line"/>
      <point x="309" y="1409" type="line"/>
      <point x="36" y="0" type="line"/>
      <point x="328" y="0" type="line"/>
    </contour>
  </outline>
</glyph>
<glyph name="L" format="2">
  <advance width="1251"/>
  <unicode hex="004C"/>
  <note>
L
</note>
  <outline>
    <contour>
      <point x="1131" y="228" type="line"/>
      <point x="375" y="228" type="line"/>
      <point x="604" y="1409" type="line"/>
      <point x="309" y="1409" type="line"/>
      <point x="36" y="0" type="line"/>
      <point x="1086" y="0" type="line"/>
    </contour>
  </outline>
</glyph>
<glyph name="M" format="2">
  <advance width="1706"/>
  <unicode hex="004D"/>
  <note>
M
</note>
  <outline>
    <contour>
      <point x="470" y="887" type="line" smooth="yes"/>
      <point x="480" y="937"/>
      <point x="494" y="1043"/>
      <point x="513" y="1206" type="curve"/>
      <point x="519" y="1142"/>
      <point x="532" y="1013"/>
      <point x="553" y="819" type="curve" smooth="yes"/>
      <point x="647" y="0" type="line"/>
      <point x="857" y="0" type="line"/>
      <point x="1269" y="816" type="line" smooth="yes"/>
      <point x="1292" y="859"/>
      <point x="1330" y="939"/>
      <point x="1452" y="1206" type="curve"/>
      <point x="1420" y="1078"/>
      <point x="1395" y="971"/>
      <point x="1378" y="884" type="curve" smooth="yes"/>
      <point x="1206" y="0" type="line"/>
      <point x="1468" y="0" type="line"/>
      <point x="1742" y="1409" type="line"/>
      <point x="1349" y="1409" type="line"/>
      <point x="885" y="490" type="line"/>
      <point x="864" y="447"/>
      <point x="842" y="398"/>
      <point x="818" y="345" type="curve"/>
      <point x="810" y="437"/>
      <point x="801" y="529"/>
      <point x="793" y="621" type="curve"/>
      <point x="705" y="1409" type="line"/>
      <point x="310" y="1409" type="line"/>
      <point x="36" y="0" type="line"/>
      <point x="298" y="0" type="line"/>
    </contour>
  </outline>
</glyph>
<glyph name="N" format="2">
  <advance width="1479"/>
  <unicode hex="004E"/>
  <note>
N
</note>
  <outline>
    <contour>
      <point x="472" y="892" type="line" smooth="yes"/>
      <point x="482" y="943"/>
      <point x="495" y="1023"/>
      <point x="510" y="1131" type="curve"/>
      <point x="884" y="0" type="line"/>
      <point x="1240" y="0" type="line"/>
      <point x="1514" y="1409" type="line"/>
      <point x="1252" y="1409" type="line"/>
      <point x="1078" y="524" type="line" smooth="yes"/>
      <point x="1066" y="463"/>
      <point x="1057" y="405"/>
      <point x="1037" y="268" type="curve"/>
      <point x="660" y="1409" type="line"/>
      <point x="310" y="1409" type="line"/>
      <point x="36" y="0" type="line"/>
      <point x="298" y="0" type="line"/>
    </contour>
  </outline>
</glyph>
<glyph name="O" format="2">
  <advance width="1593"/>
  <unicode hex="004F"/>
  <note>
O
</note>
  <outline>
    <contour>
      <point x="928" y="1430" type="curve"/>
      <point x="604" y="1430"/>
      <point x="346" y="1283"/>
      <point x="206" y="1012" type="curve" smooth="yes"/>
      <point x="135" y="876"/>
      <point x="100" y="730"/>
      <point x="100" y="573" type="curve" smooth="yes"/>
      <point x="100" y="333"/>
      <point x="202" y="148"/>
      <point x="392" y="52" type="curve" smooth="yes"/>
      <point x="487" y="4"/>
      <point x="598" y="-20"/>
      <point x="727" y="-20" type="curve" smooth="yes"/>
      <point x="1051" y="-20"/>
      <point x="1313" y="129"/>
      <point x="1454" y="401" type="curve" smooth="yes"/>
      <point x="1524" y="536"/>
      <point x="1559" y="686"/>
      <point x="1559" y="851" type="curve" smooth="yes"/>
      <point x="1559" y="1208"/>
      <point x="1319" y="1430"/>
    </contour>
    <contour>
      <point x="914" y="1197" type="curve"/>
      <point x="1135" y="1197"/>
      <point x="1255" y="1062"/>
      <point x="1255" y="827" type="curve" smooth="yes"/>
      <point x="1255" y="602"/>
      <point x="1168" y="387"/>
      <point x="1016" y="287" type="curve" smooth="yes"/>
      <point x="940" y="237"/>
      <point x="848" y="212"/>
      <point x="741" y="212" type="curve" smooth="yes"/>
      <point x="526" y="212"/>
      <point x="400" y="336"/>
      <point x="400" y="581" type="curve" smooth="yes"/>
      <point x="400" y="800"/>
      <point x="486" y="1022"/>
      <point x="638" y="1122" type="curve" smooth="yes"/>
      <point x="714" y="1172"/>
      <point x="806" y="1197"/>
    </contour>
  </outline>
</glyph>
<glyph name="P" format="2">
  <advance width="1366"/>
  <unicode hex="0050"/>
  <note>
P
</note>
  <outline>
    <contour>
      <point x="850" y="1409" type="curve"/>
      <point x="309" y="1409" type="line"/>
      <point x="36" y="0" type="line"/>
      <point x="330" y="0" type="line"/>
      <point x="428" y="496" type="line"/>
      <point x="805" y="496" type="line" smooth="yes"/>
      <point x="1148" y="496"/>
      <point x="1369" y="687"/>
      <point x="1369" y="987" type="curve" smooth="yes"/>
      <point x="1369" y="1251"/>
      <point x="1178" y="1409"/>
    </contour>
    <contour>
      <point x="471" y="723" type="line"/>
      <point x="560" y="1180" type="line"/>
      <point x="822" y="1180" type="line" smooth="yes"/>
      <point x="982" y="1180"/>
      <point x="1070" y="1107"/>
      <point x="1070" y="971" type="curve" smooth="yes"/>
      <point x="1070" y="795"/>
      <point x="967" y="723"/>
      <point x="760" y="723" type="curve" smooth="yes"/>
    </contour>
  </outline>
</glyph>
<glyph name="Q" format="2">
  <advance width="1593"/>
  <unicode hex="0051"/>
  <note>
Q
</note>
  <outline>
    <contour>
      <point x="928" y="1430" type="curve"/>
      <point x="604" y="1430"/>
      <point x="346" y="1283"/>
      <point x="206" y="1012" type="curve" smooth="yes"/>
      <point x="135" y="876"/>
      <point x="100" y="730"/>
      <point x="100" y="573" type="curve" smooth="yes"/>
      <point x="100" y="420"/>
      <point x="142" y="287"/>
      <point x="224" y="187" type="curve" smooth="yes"/>
      <point x="306" y="86"/>
      <point x="427" y="16"/>
      <point x="584" y="-9" type="curve"/>
      <point x="615" y="-280"/>
      <point x="754" y="-400"/>
      <point x="1017" y="-400" type="curve" smooth="yes"/>
      <point x="1082" y="-400"/>
      <point x="1138" y="-392"/>
      <point x="1186" y="-375" type="curve"/>
      <point x="1231" y="-180" type="line"/>
      <point x="1184" y="-189"/>
      <point x="1134" y="-194"/>
      <point x="1081" y="-194" type="curve" smooth="yes"/>
      <point x="962" y="-194"/>
      <point x="907" y="-139"/>
      <point x="882" y="-8" type="curve"/>
      <point x="1055" y="20"/>
      <point x="1201" y="94"/>
      <point x="1313" y="207" type="curve" smooth="yes"/>
      <point x="1425" y="319"/>
      <point x="1503" y="469"/>
      <point x="1539" y="649" type="curve" smooth="yes"/>
      <point x="1552" y="713"/>
      <point x="1559" y="780"/>
      <point x="1559" y="851" type="curve" smooth="yes"/>
      <point x="1559" y="1208"/>
      <point x="1319" y="1430"/>
    </contour>
    <contour>
      <point x="914" y="1197" type="curve"/>
      <point x="1135" y="1197"/>
      <point x="1255" y="1062"/>
      <point x="1255" y="827" type="curve" smooth="yes"/>
      <point x="1255" y="602"/>
      <point x="1168" y="387"/>
      <point x="1016" y="287" type="curve" smooth="yes"/>
      <point x="940" y="237"/>
      <point x="848" y="212"/>
      <point x="741" y="212" type="curve" smooth="yes"/>
      <point x="526" y="212"/>
      <point x="400" y="336"/>
      <point x="400" y="581" type="curve" smooth="yes"/>
      <point x="400" y="800"/>
      <point x="486" y="1022"/>
      <point x="638" y="1122" type="curve" smooth="yes"/>
      <point x="714" y="1172"/>
      <point x="806" y="1197"/>
    </contour>
  </outline>
</glyph>
<glyph name="R" format="2">
  <advance width="1479"/>
  <unicode hex="0052"/>
  <note>
R
</note>
  <outline>
    <contour>
      <point x="434" y="534" type="line"/>
      <point x="780" y="534" type="line"/>
      <point x="1010" y="0" type="line"/>
      <point x="1336" y="0" type="line"/>
      <point x="1062" y="583" type="line"/>
      <point x="1310" y="620"/>
      <point x="1465" y="786"/>
      <point x="1465" y="1006" type="curve" smooth="yes"/>
      <point x="1465" y="1170"/>
      <point x="1385" y="1295"/>
      <point x="1234" y="1360" type="curve" smooth="yes"/>
      <point x="1158" y="1393"/>
      <point x="1067" y="1409"/>
      <point x="961" y="1409" type="curve" smooth="yes"/>
      <point x="310" y="1409" type="line"/>
      <point x="36" y="0" type="line"/>
      <point x="331" y="0" type="line"/>
    </contour>
    <contour>
      <point x="872" y="764" type="curve"/>
      <point x="479" y="764" type="line"/>
      <point x="560" y="1180" type="line"/>
      <point x="924" y="1180" type="line" smooth="yes"/>
      <point x="1077" y="1180"/>
      <point x="1166" y="1113"/>
      <point x="1166" y="989" type="curve" smooth="yes"/>
      <point x="1166" y="845"/>
      <point x="1065" y="764"/>
    </contour>
  </outline>
</glyph>
<glyph name="S" format="2">
  <advance width="1366"/>
  <unicode hex="0053"/>
  <note>
S
</note>
  <outline>
    <contour>
      <point x="600" y="-20" type="curve"/>
      <point x="1029" y="-20"/>
      <point x="1254" y="135"/>
      <point x="1254" y="423" type="curve" smooth="yes"/>
      <point x="1254" y="531"/>
      <point x="1221" y="612"/>
      <point x="1161" y="676" type="curve" smooth="yes"/>
      <point x="1100" y="740"/>
      <point x="1016" y="786"/>
      <point x="804" y="845" type="curve" smooth="yes"/>
      <point x="705" y="872"/>
      <point x="639" y="893"/>
      <point x="606" y="910" type="curve" smooth="yes"/>
      <point x="539" y="942"/>
      <point x="504" y="984"/>
      <point x="504" y="1047" type="curve" smooth="yes"/>
      <point x="504" y="1155"/>
      <point x="605" y="1221"/>
      <point x="770" y="1221" type="curve" smooth="yes"/>
      <point x="927" y="1221"/>
      <point x="1028" y="1144"/>
      <point x="1057" y="1024" type="curve"/>
      <point x="1345" y="1091" type="line"/>
      <point x="1301" y="1312"/>
      <point x="1103" y="1430"/>
      <point x="786" y="1430" type="curve" smooth="yes"/>
      <point x="441" y="1430"/>
      <point x="213" y="1273"/>
      <point x="213" y="1037" type="curve" smooth="yes"/>
      <point x="213" y="889"/>
      <point x="277" y="791"/>
      <point x="395" y="720" type="curve" smooth="yes"/>
      <point x="454" y="685"/>
      <point x="544" y="651"/>
      <point x="667" y="618" type="curve" smooth="yes"/>
      <point x="786" y="588"/>
      <point x="865" y="558"/>
      <point x="905" y="527" type="curve" smooth="yes"/>
      <point x="945" y="496"/>
      <point x="965" y="453"/>
      <point x="965" y="400" type="curve" smooth="yes"/>
      <point x="965" y="267"/>
      <point x="850" y="201"/>
      <point x="620" y="201" type="curve" smooth="yes"/>
      <point x="433" y="201"/>
      <point x="342" y="266"/>
      <point x="314" y="414" type="curve"/>
      <point x="25" y="365" type="line"/>
      <point x="62" y="104"/>
      <point x="244" y="-20"/>
    </contour>
  </outline>
</glyph>
<glyph name="U" format="2">
  <advance width="1479"/>
  <unicode hex="0055"/>
  <note>
U
</note>
  <outline>
    <contour>
      <point x="672" y="-20" type="curve" smooth="yes"/>
      <point x="1063" y="-20"/>
      <point x="1277" y="155"/>
      <point x="1350" y="530" type="curve" smooth="yes"/>
      <point x="1521" y="1409" type="line"/>
      <point x="1226" y="1409" type="line"/>
      <point x="1058" y="541" type="line" smooth="yes"/>
      <point x="1013" y="304"/>
      <point x="908" y="211"/>
      <point x="688" y="211" type="curve" smooth="yes"/>
      <point x="517" y="211"/>
      <point x="414" y="290"/>
      <point x="414" y="427" type="curve" smooth="yes"/>
      <point x="414" y="484"/>
      <point x="420" y="541"/>
      <point x="432" y="599" type="curve" smooth="yes"/>
      <point x="585" y="1409" type="line"/>
      <point x="290" y="1409" type="line"/>
      <point x="142" y="635" type="line" smooth="yes"/>
      <point x="131" y="586"/>
      <point x="119" y="490"/>
      <point x="119" y="431" type="curve" smooth="yes"/>
      <point x="119" y="143"/>
      <point x="320" y="-20"/>
    </contour>
  </outline>
</glyph>
<glyph name="V" format="2">
  <advance width="1366"/>
  <unicode hex="0056"/>
  <note>
V
</note>
  <outline>
    <contour>
      <point x="1509" y="1409" type="line"/>
      <point x="1201" y="1409" type="line"/>
      <point x="688" y="405" type="line"/>
      <point x="669" y="364"/>
      <point x="643" y="309"/>
      <point x="612" y="238" type="curve"/>
      <point x="608" y="317"/>
      <point x="601" y="406"/>
      <point x="590" y="504" type="curve" smooth="yes"/>
      <point x="476" y="1409" type="line"/>
      <point x="171" y="1409" type="line"/>
      <point x="398" y="0" type="line"/>
      <point x="737" y="0" type="line"/>
    </contour>
  </outline>
</glyph>
<glyph name="W" format="2">
  <advance width="1933"/>
  <unicode hex="0057"/>
  <note>
W
</note>
  <outline>
    <contour>
      <point x="968" y="877" type="line"/>
      <point x="989" y="930"/>
      <point x="1019" y="1009"/>
      <point x="1059" y="1116" type="curve"/>
      <point x="1061" y="1015"/>
      <point x="1062" y="913"/>
      <point x="1064" y="812" type="curve"/>
      <point x="1091" y="0" type="line"/>
      <point x="1441" y="0" type="line"/>
      <point x="2079" y="1409" type="line"/>
      <point x="1788" y="1409" type="line"/>
      <point x="1398" y="453" type="line"/>
      <point x="1363" y="365"/>
      <point x="1337" y="297"/>
      <point x="1319" y="248" type="curve"/>
      <point x="1315" y="349"/>
      <point x="1312" y="451"/>
      <point x="1308" y="552" type="curve"/>
      <point x="1277" y="1409" type="line"/>
      <point x="961" y="1409" type="line"/>
      <point x="606" y="577" type="line"/>
      <point x="562" y="467"/>
      <point x="517" y="358"/>
      <point x="473" y="248" type="curve"/>
      <point x="473" y="367"/>
      <point x="471" y="482"/>
      <point x="466" y="594" type="curve" smooth="yes"/>
      <point x="430" y="1409" type="line"/>
      <point x="150" y="1409" type="line"/>
      <point x="239" y="0" type="line"/>
      <point x="594" y="0" type="line"/>
    </contour>
  </outline>
</glyph>
<glyph name="X" format="2">
  <advance width="1366"/>
  <unicode hex="0058"/>
  <note>
X
</note>
  <outline>
    <contour>
      <point x="928" y="0" type="line"/>
      <point x="1235" y="0" type="line"/>
      <point x="868" y="732" type="line"/>
      <point x="1468" y="1409" type="line"/>
      <point x="1155" y="1409" type="line"/>
      <point x="753" y="938" type="line"/>
      <point x="529" y="1409" type="line"/>
      <point x="220" y="1409" type="line"/>
      <point x="558" y="736" type="line"/>
      <point x="-94" y="0" type="line"/>
      <point x="220" y="0" type="line"/>
      <point x="675" y="532" type="line"/>
    </contour>
  </outline>
</glyph>
<glyph name="backslash" format="2">
  <advance width="569"/>
  <unicode hex="005C"/>
  <note>
backslash
</note>
  <outline>
    <contour>
      <point x="349" y="1485" type="line"/>
      <point x="111" y="1485" type="line"/>
      <point x="289" y="-41" type="line"/>
      <point x="532" y="-41" type="line"/>
    </contour>
  </outline>
</glyph>
<glyph name="bracketright" format="2">
  <advance width="682"/>
  <unicode hex="005D"/>
  <note>
bracketright
</note>
  <outline>
    <contour>
      <point x="738" y="1484" type="line"/>
      <point x="196" y="1484" type="line"/>
      <point x="159" y="1294" type="line"/>
      <point x="437" y="1294" type="line"/>
      <point x="140" y="-234" type="line"/>
      <point x="-137" y="-234" type="line"/>
      <point x="-174" y="-425" type="line"/>
      <point x="367" y="-425" type="line"/>
    </contour>
  </outline>
</glyph>
<glyph name="asciicircum" format="2">
  <advance width="1196"/>
  <unicode hex="005E"/>
  <note>
asciicircum
</note>
  <outline>
    <contour>
      <point x="636" y="1266" type="line"/>
      <point x="962" y="514" type="line"/>
      <point x="1191" y="514" type="line"/>
      <point x="798" y="1409" type="line"/>
      <point x="476" y="1409" type="line"/>
      <point x="85" y="514" type="line"/>
      <point x="312" y="514" type="line"/>
    </contour>
  </outline>
</glyph>
<glyph name="grave" format="2">
  <advance width="682"/>
  <unicode hex="0060"/>
  <note>
grave
</note>
  <outline>
    <contour>
      <point x="750" y="1214" type="line"/>
      <point x="555" y="1502" type="line"/>
      <point x="297" y="1502" type="line"/>
      <point x="289" y="1459" type="line"/>
      <point x="596" y="1183" type="line"/>
      <point x="744" y="1183" type="line"/>
    </contour>
  </outline>
</glyph>
<glyph name="a" format="2">
  <advance width="1139"/>
  <unicode hex="0061"/>
  <note>
a
</note>
  <outline>
    <contour>
      <point x="892" y="-10" type="curve" smooth="yes"/>
      <point x="952.0" y="-10.0"/>
      <point x="1009" y="-9"/>
      <point x="1065" y="12" type="curve"/>
      <point x="1079" y="167" type="line"/>
      <point x="1058" y="162"/>
      <point x="1037" y="160"/>
      <point x="1017" y="160" type="curve" smooth="yes"/>
      <point x="986" y="160"/>
      <point x="938" y="170"/>
      <point x="938" y="225" type="curve" smooth="yes"/>
      <point x="938" y="243"/>
      <point x="941" y="267"/>
      <point x="946" y="297" type="curve" smooth="yes"/>
      <point x="1017" y="650" type="line" smooth="yes"/>
      <point x="1033" y="730"/>
      <point x="1041" y="782"/>
      <point x="1041" y="807" type="curve" smooth="yes"/>
      <point x="1041" y="1006"/>
      <point x="917" y="1102"/>
      <point x="641" y="1102" type="curve" smooth="yes"/>
      <point x="377" y="1102"/>
      <point x="215" y="1000"/>
      <point x="170" y="808" type="curve"/>
      <point x="433" y="777" type="line"/>
      <point x="456" y="869"/>
      <point x="511" y="919"/>
      <point x="636" y="919" type="curve" smooth="yes"/>
      <point x="721" y="919"/>
      <point x="763" y="876"/>
      <point x="763" y="791" type="curve" smooth="yes"/>
      <point x="763" y="767"/>
      <point x="756" y="723"/>
      <point x="742" y="660" type="curve"/>
      <point x="551" y="657" type="line" smooth="yes"/>
      <point x="170" y="650"/>
      <point x="10" y="525"/>
      <point x="10" y="278" type="curve" smooth="yes"/>
      <point x="10" y="103"/>
      <point x="130" y="-20"/>
      <point x="317" y="-20" type="curve" smooth="yes"/>
      <point x="474" y="-20"/>
      <point x="571" y="34"/>
      <point x="683" y="207" type="curve"/>
      <point x="689" y="207" type="line"/>
      <point x="686" y="189"/>
      <point x="684" y="168"/>
      <point x="684" y="143" type="curve" smooth="yes"/>
      <point x="684" y="51"/>
      <point x="759" y="-10"/>
    </contour>
    <contour>
      <point x="297" y="325" type="curve" smooth="yes"/>
      <point x="297" y="380"/>
      <point x="320" y="424"/>
      <point x="363" y="454" type="curve" smooth="yes"/>
      <point x="407" y="485"/>
      <point x="470" y="501"/>
      <point x="549" y="503" type="curve" smooth="yes"/>
      <point x="711" y="503" type="line"/>
      <point x="689" y="411" type="line" smooth="yes"/>
      <point x="670" y="338"/>
      <point x="635" y="277"/>
      <point x="589" y="236" type="curve" smooth="yes"/>
      <point x="547" y="198"/>
      <point x="496" y="176"/>
      <point x="443" y="176" type="curve" smooth="yes"/>
      <point x="354" y="176"/>
      <point x="297" y="232"/>
    </contour>
  </outline>
</glyph>
<glyph name="b" format="2">
  <advance width="1251"/>
  <unicode hex="0062"/>
  <note>
b
</note>
  <outline>
    <contour>
      <point x="855" y="1102" type="curve" smooth="yes"/>
      <point x="694" y="1102"/>
      <point x="574" y="1025"/>
      <point x="499" y="913" type="curve"/>
      <point x="495" y="913" type="line"/>
      <point x="508" y="966"/>
      <point x="518" y="1014"/>
      <point x="527" y="1057" type="curve" smooth="yes"/>
      <point x="611" y="1484" type="line"/>
      <point x="330" y="1484" type="line"/>
      <point x="84" y="223" type="line" smooth="yes"/>
      <point x="65" y="124"/>
      <point x="42" y="20"/>
      <point x="35" y="0" type="curve"/>
      <point x="306" y="0" type="line"/>
      <point x="313" y="22"/>
      <point x="320" y="45"/>
      <point x="327" y="67" type="curve" smooth="yes"/>
      <point x="334" y="92"/>
      <point x="343" y="129"/>
      <point x="354" y="178" type="curve"/>
      <point x="357" y="178" type="line"/>
      <point x="400" y="53"/>
      <point x="502" y="-20"/>
      <point x="669" y="-20" type="curve" smooth="yes"/>
      <point x="901" y="-20"/>
      <point x="1047" y="99"/>
      <point x="1130" y="355" type="curve" smooth="yes"/>
      <point x="1171" y="482"/>
      <point x="1192" y="609"/>
      <point x="1192" y="748" type="curve" smooth="yes"/>
      <point x="1192" y="968"/>
      <point x="1067" y="1102"/>
    </contour>
    <contour>
      <point x="735" y="907" type="curve" smooth="yes"/>
      <point x="859" y="907"/>
      <point x="899" y="834"/>
      <point x="899" y="694" type="curve" smooth="yes"/>
      <point x="899" y="565"/>
      <point x="842" y="319"/>
      <point x="766" y="236" type="curve" smooth="yes"/>
      <point x="728" y="194"/>
      <point x="675" y="173"/>
      <point x="608" y="173" type="curve" smooth="yes"/>
      <point x="481" y="173"/>
      <point x="407" y="258"/>
      <point x="407" y="401" type="curve" smooth="yes"/>
      <point x="407" y="441"/>
      <point x="413" y="492"/>
      <point x="424" y="554" type="curve" smooth="yes"/>
      <point x="446" y="670"/>
      <point x="481" y="757"/>
      <point x="531" y="816" type="curve" smooth="yes"/>
      <point x="582" y="877"/>
      <point x="650" y="907"/>
    </contour>
  </outline>
</glyph>
<glyph name="c" format="2">
  <advance width="1139"/>
  <unicode hex="0063"/>
  <note>
c
</note>
  <outline>
    <contour>
      <point x="536" y="173" type="curve"/>
      <point x="417" y="173"/>
      <point x="358" y="251"/>
      <point x="358" y="407" type="curve" smooth="yes"/>
      <point x="358" y="442"/>
      <point x="366" y="498"/>
      <point x="381" y="575" type="curve"/>
      <point x="446" y="824"/>
      <point x="515" y="909"/>
      <point x="658" y="909" type="curve" smooth="yes"/>
      <point x="762" y="909"/>
      <point x="818" y="845"/>
      <point x="825" y="718" type="curve"/>
      <point x="1109" y="741" type="line"/>
      <point x="1090" y="968"/>
      <point x="932" y="1102"/>
      <point x="680" y="1102" type="curve" smooth="yes"/>
      <point x="419" y="1102"/>
      <point x="247" y="999"/>
      <point x="142" y="771" type="curve" smooth="yes"/>
      <point x="89" y="657"/>
      <point x="63" y="535"/>
      <point x="63" y="405" type="curve" smooth="yes"/>
      <point x="63" y="138"/>
      <point x="227" y="-20"/>
      <point x="520" y="-20" type="curve" smooth="yes"/>
      <point x="789" y="-20"/>
      <point x="959" y="97"/>
      <point x="1030" y="331" type="curve"/>
      <point x="759" y="381" type="line"/>
      <point x="716" y="244"/>
      <point x="647" y="173"/>
    </contour>
  </outline>
</glyph>
<glyph name="d" format="2">
  <advance width="1251"/>
  <unicode hex="0064"/>
  <note>
d
</note>
  <outline>
    <contour>
      <point x="392" y="-21" type="curve" smooth="yes"/>
      <point x="553" y="-21"/>
      <point x="654" y="36"/>
      <point x="749" y="160" type="curve"/>
      <point x="753" y="160" type="line"/>
      <point x="743" y="95"/>
      <point x="738" y="42"/>
      <point x="738" y="0" type="curve"/>
      <point x="1019" y="0" type="line"/>
      <point x="1025" y="79"/>
      <point x="1035" y="156"/>
      <point x="1048" y="231" type="curve" smooth="yes"/>
      <point x="1286" y="1484" type="line"/>
      <point x="1009" y="1484" type="line"/>
      <point x="925" y="1066" type="line" smooth="yes"/>
      <point x="909" y="983"/>
      <point x="902" y="931"/>
      <point x="899" y="904" type="curve"/>
      <point x="894" y="904" type="line"/>
      <point x="855" y="1036"/>
      <point x="751" y="1102"/>
      <point x="580" y="1102" type="curve" smooth="yes"/>
      <point x="363" y="1102"/>
      <point x="207" y="972"/>
      <point x="122" y="728" type="curve" smooth="yes"/>
      <point x="79" y="606"/>
      <point x="58" y="481"/>
      <point x="58" y="354" type="curve" smooth="yes"/>
      <point x="58" y="126"/>
      <point x="187" y="-21"/>
    </contour>
    <contour>
      <point x="515" y="172" type="curve"/>
      <point x="408" y="172"/>
      <point x="355" y="246"/>
      <point x="355" y="393" type="curve" smooth="yes"/>
      <point x="355" y="544"/>
      <point x="402" y="749"/>
      <point x="488" y="841" type="curve" smooth="yes"/>
      <point x="531" y="887"/>
      <point x="586" y="910"/>
      <point x="654" y="910" type="curve" smooth="yes"/>
      <point x="779" y="910"/>
      <point x="842" y="841"/>
      <point x="842" y="681" type="curve" smooth="yes"/>
      <point x="842" y="573"/>
      <point x="808" y="408"/>
      <point x="753" y="313" type="curve" smooth="yes"/>
      <point x="698" y="217"/>
      <point x="623" y="172"/>
    </contour>
  </outline>
</glyph>
<glyph name="e" format="2">
  <advance width="1139"/>
  <unicode hex="0065"/>
  <note>
e
</note>
  <outline>
    <contour>
      <point x="358" y="476" type="curve"/>
      <point x="1058" y="476" type="line"/>
      <point x="1074" y="553"/>
      <point x="1082" y="625"/>
      <point x="1082" y="691" type="curve" smooth="yes"/>
      <point x="1082" y="952"/>
      <point x="925" y="1102"/>
      <point x="646" y="1102" type="curve" smooth="yes"/>
      <point x="414" y="1102"/>
      <point x="231" y="988"/>
      <point x="135" y="781" type="curve" smooth="yes"/>
      <point x="87" y="677"/>
      <point x="63" y="556"/>
      <point x="63" y="418" type="curve" smooth="yes"/>
      <point x="63" y="142"/>
      <point x="232" y="-20"/>
      <point x="516" y="-20" type="curve" smooth="yes"/>
      <point x="756" y="-20"/>
      <point x="893" y="51"/>
      <point x="993" y="263" type="curve"/>
      <point x="748" y="337" type="line"/>
      <point x="704" y="224"/>
      <point x="633" y="168"/>
      <point x="535" y="168" type="curve" smooth="yes"/>
      <point x="414" y="168"/>
      <point x="351" y="246"/>
      <point x="351" y="387" type="curve" smooth="yes"/>
      <point x="351" y="421"/>
      <point x="353" y="451"/>
    </contour>
    <contour>
      <point x="391" y="663" type="line"/>
      <point x="428" y="834"/>
      <point x="518" y="924"/>
      <point x="646" y="924" type="curve" smooth="yes"/>
      <point x="753" y="924"/>
      <point x="825" y="862"/>
      <point x="825" y="719" type="curve"/>
      <point x="822" y="663" type="line"/>
    </contour>
  </outline>
</glyph>
<glyph name="f" format="2">
  <advance width="682"/>
  <unicode hex="0066"/>
  <note>
f
</note>
  <outline>
    <contour>
      <point x="528" y="892" type="line"/>
      <point x="741" y="892" type="line"/>
      <point x="778" y="1082" type="line"/>
      <point x="565" y="1082" type="line"/>
      <point x="581" y="1167" type="line" smooth="yes"/>
      <point x="598" y="1254"/>
      <point x="632" y="1296"/>
      <point x="721" y="1296" type="curve" smooth="yes"/>
      <point x="734" y="1296"/>
      <point x="752" y="1294"/>
      <point x="770" y="1292" type="curve" smooth="yes"/>
      <point x="790" y="1290"/>
      <point x="809" y="1287"/>
      <point x="817" y="1286" type="curve"/>
      <point x="853" y="1467" type="line"/>
      <point x="798" y="1478"/>
      <point x="747" y="1484"/>
      <point x="698" y="1484" type="curve" smooth="yes"/>
      <point x="546" y="1484"/>
      <point x="442" y="1448"/>
      <point x="377" y="1364" type="curve" smooth="yes"/>
      <point x="343" y="1321"/>
      <point x="321" y="1265"/>
      <point x="307" y="1195" type="curve" smooth="yes"/>
      <point x="285" y="1082" type="line"/>
      <point x="127" y="1082" type="line"/>
      <point x="90" y="892" type="line"/>
      <point x="248" y="892" type="line"/>
      <point x="74" y="0" type="line"/>
      <point x="354" y="0" type="line"/>
    </contour>
  </outline>
</glyph>
<glyph name="g" format="2">
  <advance width="1251"/>
  <unicode hex="0067"/>
  <note>
g
</note>
  <outline>
    <contour>
      <point x="431" y="-425" type="curve" smooth="yes"/>
      <point x="770" y="-425"/>
      <point x="939" y="-301"/>
      <point x="1002" y="10" type="curve" smooth="yes"/>
      <point x="1167" y="853" type="line"/>
      <point x="1197" y="999" type="line"/>
      <point x="1216" y="1082" type="line"/>
      <point x="951" y="1082" type="line"/>
      <point x="944" y="1071"/>
      <point x="911" y="932"/>
      <point x="903" y="893" type="curve"/>
      <point x="901" y="893" type="line"/>
      <point x="865" y="1021"/>
      <point x="743" y="1101"/>
      <point x="586" y="1101" type="curve" smooth="yes"/>
      <point x="358" y="1101"/>
      <point x="213" y="988"/>
      <point x="129" y="742" type="curve" smooth="yes"/>
      <point x="86" y="619"/>
      <point x="65" y="490"/>
      <point x="65" y="356" type="curve" smooth="yes"/>
      <point x="65" y="137"/>
      <point x="198" y="-8"/>
      <point x="405" y="-8" type="curve" smooth="yes"/>
      <point x="508" y="-8"/>
      <point x="585" y="21"/>
      <point x="649" y="73" type="curve" smooth="yes"/>
      <point x="680" y="99"/>
      <point x="717" y="142"/>
      <point x="759" y="201" type="curve"/>
      <point x="761" y="201" type="line"/>
      <point x="754" y="149"/>
      <point x="743" y="91"/>
      <point x="730" y="27" type="curve" smooth="yes"/>
      <point x="685" y="-170"/>
      <point x="611" y="-239"/>
      <point x="464" y="-239" type="curve" smooth="yes"/>
      <point x="357" y="-239"/>
      <point x="294" y="-197"/>
      <point x="276" y="-112" type="curve"/>
      <point x="-7" y="-142" type="line"/>
      <point x="26" y="-335"/>
      <point x="166" y="-425"/>
    </contour>
    <contour>
      <point x="359" y="396" type="curve" smooth="yes"/>
      <point x="359" y="493"/>
      <point x="393" y="678"/>
      <point x="439" y="774" type="curve" smooth="yes"/>
      <point x="485" y="869"/>
      <point x="547" y="909"/>
      <point x="648" y="909" type="curve" smooth="yes"/>
      <point x="773" y="909"/>
      <point x="846" y="825"/>
      <point x="846" y="686" type="curve" smooth="yes"/>
      <point x="846" y="521"/>
      <point x="791" y="353"/>
      <point x="694" y="264" type="curve" smooth="yes"/>
      <point x="645" y="219"/>
      <point x="591" y="197"/>
      <point x="532" y="197" type="curve" smooth="yes"/>
      <point x="417" y="197"/>
      <point x="359" y="263"/>
    </contour>
  </outline>
</glyph>
<glyph name="h" format="2">
  <advance width="1251"/>
  <unicode hex="0068"/>
  <note>
h
</note>
  <outline>
    <contour>
      <point x="486" y="897" type="curve"/>
      <point x="483" y="897" type="line"/>
      <point x="496" y="958"/>
      <point x="510" y="1018"/>
      <point x="522" y="1079" type="curve" smooth="yes"/>
      <point x="601" y="1484" type="line"/>
      <point x="321" y="1484" type="line"/>
      <point x="35" y="0" type="line"/>
      <point x="317" y="0" type="line"/>
      <point x="435" y="606" type="line" smooth="yes"/>
      <point x="464" y="765"/>
      <point x="595" y="889"/>
      <point x="730" y="889" type="curve" smooth="yes"/>
      <point x="831" y="889"/>
      <point x="882" y="846"/>
      <point x="882" y="760" type="curve" smooth="yes"/>
      <point x="882" y="733"/>
      <point x="873" y="678"/>
      <point x="856" y="595" type="curve" smooth="yes"/>
      <point x="738" y="0" type="line"/>
      <point x="1017" y="0" type="line"/>
      <point x="1144" y="653" type="line" smooth="yes"/>
      <point x="1153" y="693"/>
      <point x="1165" y="784"/>
      <point x="1165" y="817" type="curve" smooth="yes"/>
      <point x="1165" y="1001"/>
      <point x="1062" y="1101"/>
      <point x="859" y="1101" type="curve" smooth="yes"/>
      <point x="703" y="1101"/>
      <point x="586" y="1036"/>
    </contour>
  </outline>
</glyph>
<glyph name="j" format="2">
  <advance width="569"/>
  <unicode hex="006A"/>
  <note>
j
</note>
  <outline>
    <contour>
      <point x="604" y="1484" type="line"/>
      <point x="323" y="1484" type="line"/>
      <point x="283" y="1277" type="line"/>
      <point x="564" y="1277" type="line"/>
    </contour>
    <contour>
      <point x="-54" y="-425" type="curve" smooth="yes"/>
      <point x="133.0" y="-425.0"/>
      <point x="251" y="-320"/>
      <point x="290" y="-128" type="curve" smooth="yes"/>
      <point x="526" y="1082" type="line"/>
      <point x="245" y="1082" type="line"/>
      <point x="22" y="-60" type="line" smooth="yes"/>
      <point x="-2" y="-184"/>
      <point x="-37" y="-222"/>
      <point x="-126" y="-222" type="curve" smooth="yes"/>
      <point x="-145" y="-222.0"/>
      <point x="-165" y="-219"/>
      <point x="-184" y="-218" type="curve"/>
      <point x="-220" y="-406" type="line"/>
      <point x="-173" y="-419"/>
      <point x="-117" y="-425"/>
    </contour>
  </outline>
</glyph>
<glyph name="k" format="2">
  <advance width="1139"/>
  <unicode hex="006B"/>
  <note>
k
</note>
  <outline>
    <contour>
      <point x="400" y="422" type="line"/>
      <point x="540" y="497" type="line"/>
      <point x="728" y="0" type="line"/>
      <point x="1026" y="0" type="line"/>
      <point x="751" y="660" type="line"/>
      <point x="1224" y="1082" type="line"/>
      <point x="902" y="1082" type="line"/>
      <point x="597" y="788" type="line"/>
      <point x="437" y="634" type="line"/>
      <point x="604" y="1484" type="line"/>
      <point x="323" y="1484" type="line"/>
      <point x="35" y="0" type="line"/>
      <point x="315" y="0" type="line"/>
    </contour>
  </outline>
</glyph>
<glyph name="n" format="2">
  <advance width="1251"/>
  <unicode hex="006E"/>
  <note>
n
</note>
  <outline>
    <contour>
      <point x="435" y="606" type="line" smooth="yes"/>
      <point x="464" y="765"/>
      <point x="595" y="889"/>
      <point x="730" y="889" type="curve" smooth="yes"/>
      <point x="831" y="889"/>
      <point x="882" y="846"/>
      <point x="882" y="760" type="curve" smooth="yes"/>
      <point x="882" y="733"/>
      <point x="873" y="678"/>
      <point x="856" y="595" type="curve" smooth="yes"/>
      <point x="738" y="0" type="line"/>
      <point x="1017" y="0" type="line"/>
      <point x="1144" y="653" type="line" smooth="yes"/>
      <point x="1153" y="693"/>
      <point x="1165" y="784"/>
      <point x="1165" y="817" type="curve" smooth="yes"/>
      <point x="1165" y="1001"/>
      <point x="1062" y="1101"/>
      <point x="859" y="1101" type="curve" smooth="yes"/>
      <point x="703" y="1101"/>
      <point x="586" y="1036"/>
      <point x="486" y="897" type="curve"/>
      <point x="483" y="897" type="line"/>
      <point x="490" y="932"/>
      <point x="507" y="1070"/>
      <point x="507" y="1082" type="curve"/>
      <point x="239" y="1082" type="line"/>
      <point x="224" y="981"/>
      <point x="212" y="904"/>
      <point x="201" y="851" type="curve" smooth="yes"/>
      <point x="35" y="0" type="line"/>
      <point x="317" y="0" type="line"/>
    </contour>
  </outline>
</glyph>
<glyph name="o" format="2">
  <advance width="1251"/>
  <unicode hex="006F"/>
  <note>
o
</note>
  <outline>
    <contour>
      <point x="1185" y="683" type="curve"/>
      <point x="1185" y="948"/>
      <point x="1017" y="1101"/>
      <point x="704" y="1101" type="curve" smooth="yes"/>
      <point x="453" y="1101"/>
      <point x="249" y="982"/>
      <point x="143" y="775" type="curve" smooth="yes"/>
      <point x="90" y="672"/>
      <point x="63" y="553"/>
      <point x="63" y="419" type="curve" smooth="yes"/>
      <point x="63" y="147"/>
      <point x="244" y="-20"/>
      <point x="535" y="-20" type="curve" smooth="yes"/>
      <point x="786" y="-20"/>
      <point x="995" y="100"/>
      <point x="1104" y="315" type="curve" smooth="yes"/>
      <point x="1158" y="422"/>
      <point x="1185" y="545"/>
    </contour>
    <contour>
      <point x="891" y="662" type="curve"/>
      <point x="882" y="466"/>
      <point x="831" y="304"/>
      <point x="744" y="229" type="curve" smooth="yes"/>
      <point x="700" y="191"/>
      <point x="641" y="172"/>
      <point x="566" y="172" type="curve" smooth="yes"/>
      <point x="427" y="172"/>
      <point x="358" y="258"/>
      <point x="358" y="431" type="curve" smooth="yes"/>
      <point x="358" y="582"/>
      <point x="412" y="769"/>
      <point x="502" y="849" type="curve" smooth="yes"/>
      <point x="547" y="889"/>
      <point x="607" y="909"/>
      <point x="683" y="909" type="curve" smooth="yes"/>
      <point x="822" y="909"/>
      <point x="891" y="827"/>
    </contour>
  </outline>
</glyph>
<glyph name="p" format="2">
  <advance width="1251"/>
  <unicode hex="0070"/>
  <note>
p
</note>
  <outline>
    <contour>
      <point x="662" y="-20" type="curve" smooth="yes"/>
      <point x="894" y="-20"/>
      <point x="1040" y="99"/>
      <point x="1123" y="355" type="curve" smooth="yes"/>
      <point x="1164" y="482"/>
      <point x="1185" y="613"/>
      <point x="1185" y="748" type="curve" smooth="yes"/>
      <point x="1185" y="968"/>
      <point x="1060" y="1102"/>
      <point x="848" y="1102" type="curve" smooth="yes"/>
      <point x="691" y="1102"/>
      <point x="589" y="1046"/>
      <point x="493" y="913" type="curve"/>
      <point x="489" y="913" type="line"/>
      <point x="500" y="950"/>
      <point x="512" y="1063"/>
      <point x="512" y="1082" type="curve"/>
      <point x="237" y="1082" type="line"/>
      <point x="231" y="1036"/>
      <point x="225" y="989"/>
      <point x="218" y="943" type="curve" smooth="yes"/>
      <point x="212" y="906"/>
      <point x="205" y="870"/>
      <point x="198" y="833" type="curve"/>
      <point x="-45" y="-425" type="line"/>
      <point x="235" y="-425" type="line"/>
      <point x="262" y="-287"/>
      <point x="288" y="-148"/>
      <point x="315" y="-10" type="curve" smooth="yes"/>
      <point x="332" y="74"/>
      <point x="342" y="137"/>
      <point x="347" y="178" type="curve"/>
      <point x="349" y="178" type="line"/>
      <point x="392" y="53"/>
      <point x="495" y="-20"/>
    </contour>
    <contour>
      <point x="728" y="907" type="curve" smooth="yes"/>
      <point x="840" y="907"/>
      <point x="889" y="835"/>
      <point x="889" y="694" type="curve" smooth="yes"/>
      <point x="889" y="549"/>
      <point x="841" y="322"/>
      <point x="762" y="237" type="curve" smooth="yes"/>
      <point x="723" y="194"/>
      <point x="669" y="173"/>
      <point x="601" y="173" type="curve" smooth="yes"/>
      <point x="474" y="173"/>
      <point x="400" y="258"/>
      <point x="400" y="401" type="curve" smooth="yes"/>
      <point x="400" y="441"/>
      <point x="406" y="492"/>
      <point x="417" y="554" type="curve" smooth="yes"/>
      <point x="462" y="790"/>
      <point x="560" y="907"/>
    </contour>
  </outline>
</glyph>
<glyph name="q" format="2">
  <advance width="1251"/>
  <unicode hex="0071"/>
  <note>
q
</note>
  <outline>
    <contour>
      <point x="394" y="-21" type="curve" smooth="yes"/>
      <point x="549" y="-21"/>
      <point x="654" y="32"/>
      <point x="754" y="163" type="curve"/>
      <point x="758" y="163" type="line"/>
      <point x="722" y="7" type="line"/>
      <point x="637" y="-425" type="line"/>
      <point x="918" y="-425" type="line"/>
      <point x="1081" y="420"/>
      <point x="1170" y="878"/>
      <point x="1185" y="949" type="curve" smooth="yes"/>
      <point x="1200" y="1020"/>
      <point x="1210" y="1064"/>
      <point x="1215" y="1082" type="curve"/>
      <point x="945" y="1082" type="line"/>
      <point x="930" y="1045"/>
      <point x="915" y="985"/>
      <point x="898" y="903" type="curve"/>
      <point x="893" y="903" type="line"/>
      <point x="838" y="1047"/>
      <point x="753" y="1102"/>
      <point x="580" y="1102" type="curve" smooth="yes"/>
      <point x="365" y="1102"/>
      <point x="208" y="971"/>
      <point x="123" y="727" type="curve" smooth="yes"/>
      <point x="80" y="605"/>
      <point x="59" y="479"/>
      <point x="59" y="348" type="curve" smooth="yes"/>
      <point x="59" y="117"/>
      <point x="191" y="-21"/>
    </contour>
    <contour>
      <point x="518" y="172" type="curve" smooth="yes"/>
      <point x="410" y="172"/>
      <point x="356" y="247"/>
      <point x="356" y="386" type="curve" smooth="yes"/>
      <point x="356" y="550"/>
      <point x="405" y="760"/>
      <point x="493" y="846" type="curve" smooth="yes"/>
      <point x="537" y="889"/>
      <point x="596" y="910"/>
      <point x="669" y="910" type="curve" smooth="yes"/>
      <point x="785" y="910"/>
      <point x="843" y="833"/>
      <point x="843" y="680" type="curve" smooth="yes"/>
      <point x="843" y="637"/>
      <point x="838" y="586"/>
      <point x="827" y="527" type="curve" smooth="yes"/>
      <point x="784" y="290"/>
      <point x="687" y="172"/>
    </contour>
  </outline>
</glyph>
<glyph name="r" format="2">
  <advance width="797"/>
  <unicode hex="0072"/>
  <note>
r
</note>
  <outline>
    <contour>
      <point x="844" y="853" type="curve"/>
      <point x="890" y="1088" type="line"/>
      <point x="853" y="1097"/>
      <point x="818" y="1102"/>
      <point x="787" y="1102" type="curve" smooth="yes"/>
      <point x="664" y="1102"/>
      <point x="577" y="1040"/>
      <point x="480" y="861" type="curve"/>
      <point x="476" y="861" type="line"/>
      <point x="484" y="910" type="line"/>
      <point x="506" y="1082" type="line"/>
      <point x="238" y="1082" type="line"/>
      <point x="232" y="1036"/>
      <point x="225" y="991"/>
      <point x="217" y="947" type="curve" smooth="yes"/>
      <point x="211" y="907"/>
      <point x="204" y="868"/>
      <point x="196" y="830" type="curve" smooth="yes"/>
      <point x="35" y="0" type="line"/>
      <point x="316" y="0" type="line"/>
      <point x="417" y="514" type="line" smooth="yes"/>
      <point x="464" y="754"/>
      <point x="566" y="868"/>
      <point x="730" y="868" type="curve" smooth="yes"/>
      <point x="760" y="868"/>
      <point x="798" y="863"/>
    </contour>
  </outline>
</glyph>
<glyph name="s" format="2">
  <advance width="1139"/>
  <unicode hex="0073"/>
  <note>
s
</note>
  <outline>
    <contour>
      <point x="1000" y="334" type="curve" smooth="yes"/>
      <point x="1000" y="437"/>
      <point x="965" y="514"/>
      <point x="880" y="570" type="curve" smooth="yes"/>
      <point x="828" y="604"/>
      <point x="759" y="630"/>
      <point x="668" y="651" type="curve" smooth="yes"/>
      <point x="574" y="673"/>
      <point x="515" y="689"/>
      <point x="490" y="700" type="curve" smooth="yes"/>
      <point x="441" y="721"/>
      <point x="413" y="749"/>
      <point x="413" y="793" type="curve" smooth="yes"/>
      <point x="413" y="873"/>
      <point x="481" y="913"/>
      <point x="618" y="913" type="curve" smooth="yes"/>
      <point x="731" y="913"/>
      <point x="795" y="874"/>
      <point x="818" y="782" type="curve"/>
      <point x="1069" y="811" type="line"/>
      <point x="1037" y="1007"/>
      <point x="912" y="1099"/>
      <point x="637" y="1099" type="curve" smooth="yes"/>
      <point x="326" y="1099"/>
      <point x="153" y="982"/>
      <point x="153" y="769" type="curve" smooth="yes"/>
      <point x="153" y="652"/>
      <point x="200" y="567"/>
      <point x="318" y="506" type="curve" smooth="yes"/>
      <point x="370" y="479"/>
      <point x="435" y="457"/>
      <point x="515" y="439" type="curve" smooth="yes"/>
      <point x="609" y="419"/>
      <point x="670" y="400"/>
      <point x="698" y="382" type="curve" smooth="yes"/>
      <point x="725" y="363"/>
      <point x="739" y="337"/>
      <point x="739" y="302" type="curve" smooth="yes"/>
      <point x="739" y="214"/>
      <point x="662" y="166"/>
      <point x="517" y="166" type="curve" smooth="yes"/>
      <point x="370" y="166"/>
      <point x="302" y="207"/>
      <point x="274" y="307" type="curve"/>
      <point x="23" y="271" type="line"/>
      <point x="78" y="72"/>
      <point x="229" y="-20"/>
      <point x="497" y="-20" type="curve" smooth="yes"/>
      <point x="825" y="-20"/>
      <point x="1000" y="102"/>
    </contour>
  </outline>
</glyph>
<glyph name="v" format="2">
  <advance width="1139"/>
  <unicode hex="0076"/>
  <note>
v
</note>
  <outline>
    <contour>
      <point x="1232" y="1082" type="line"/>
      <point x="930" y="1082" type="line"/>
      <point x="614" y="474" type="line" smooth="yes"/>
      <point x="580" y="406"/>
      <point x="547" y="334"/>
      <point x="514" y="257" type="curve" smooth="yes"/>
      <point x="492" y="208" type="line"/>
      <point x="489" y="259" type="line" smooth="yes"/>
      <point x="485" y="330"/>
      <point x="474" y="447"/>
      <point x="470" y="477" type="curve" smooth="yes"/>
      <point x="399" y="1082" type="line"/>
      <point x="110" y="1082" type="line"/>
      <point x="286" y="0" type="line"/>
      <point x="622" y="0" type="line"/>
    </contour>
  </outline>
</glyph>
<glyph name="w" format="2">
  <advance width="1593"/>
  <unicode hex="0077"/>
  <note>
w
</note>
  <outline>
    <contour>
      <point x="767" y="658" type="line"/>
      <point x="795" y="718"/>
      <point x="827" y="795"/>
      <point x="862" y="890" type="curve"/>
      <point x="867" y="660" type="line"/>
      <point x="910" y="0" type="line"/>
      <point x="1207" y="0" type="line"/>
      <point x="1702" y="1082" type="line"/>
      <point x="1436" y="1082" type="line"/>
      <point x="1145" y="387" type="line" smooth="yes"/>
      <point x="1127" y="343"/>
      <point x="1110" y="299"/>
      <point x="1092" y="255" type="curve"/>
      <point x="1090" y="319"/>
      <point x="1091" y="382"/>
      <point x="1087" y="446" type="curve" smooth="yes"/>
      <point x="1045" y="1082" type="line"/>
      <point x="744" y="1082" type="line"/>
      <point x="450" y="446" type="line" smooth="yes"/>
      <point x="421" y="383"/>
      <point x="397" y="319"/>
      <point x="371" y="255" type="curve"/>
      <point x="371" y="299"/>
      <point x="372" y="342"/>
      <point x="371" y="386" type="curve" smooth="yes"/>
      <point x="357" y="1082" type="line"/>
      <point x="99" y="1082" type="line"/>
      <point x="168" y="0" type="line"/>
      <point x="465" y="0" type="line"/>
    </contour>
  </outline>
</glyph>
<glyph name="y" format="2">
  <advance width="1139"/>
  <unicode hex="0079"/>
  <note>
y
</note>
  <outline>
    <contour>
      <point x="88" y="-425" type="curve"/>
      <point x="212" y="-425"/>
      <point x="306" y="-383"/>
      <point x="396" y="-292" type="curve" smooth="yes"/>
      <point x="441" y="-247"/>
      <point x="499" y="-168"/>
      <point x="570" y="-57" type="curve"/>
      <point x="1224" y="1082" type="line"/>
      <point x="924" y="1082" type="line"/>
      <point x="665" y="581" type="line"/>
      <point x="526" y="288" type="line"/>
      <point x="520" y="276"/>
      <point x="516" y="264"/>
      <point x="509" y="251" type="curve"/>
      <point x="508" y="294"/>
      <point x="485" y="506"/>
      <point x="474" y="585" type="curve" smooth="yes"/>
      <point x="403" y="1082" type="line"/>
      <point x="112" y="1082" type="line"/>
      <point x="324" y="24" type="line"/>
      <point x="296" y="-24" type="line" smooth="yes"/>
      <point x="217" y="-163"/>
      <point x="144" y="-220"/>
      <point x="40" y="-220" type="curve" smooth="yes"/>
      <point x="9" y="-220"/>
      <point x="-20" y="-217"/>
      <point x="-47" y="-211" type="curve"/>
      <point x="-85" y="-407" type="line"/>
      <point x="-34" y="-419"/>
      <point x="23" y="-425"/>
    </contour>
  </outline>
</glyph>
<glyph name="z" format="2">
  <advance width="1024"/>
  <unicode hex="007A"/>
  <note>
z
</note>
  <outline>
    <contour>
      <point x="888" y="205" type="line"/>
      <point x="361" y="205" type="line"/>
      <point x="971" y="881" type="line"/>
      <point x="1010" y="1082" type="line"/>
      <point x="241" y="1082" type="line"/>
      <point x="201" y="879" type="line"/>
      <point x="641" y="879" type="line"/>
      <point x="28" y="199" type="line"/>
      <point x="-10" y="0" type="line"/>
      <point x="848" y="0" type="line"/>
    </contour>
  </outline>
</glyph>
<glyph name="braceleft" format="2">
  <advance width="797"/>
  <unicode hex="007B"/>
  <note>
braceleft
</note>
  <outline>
    <contour>
      <point x="388" y="-425" type="curve"/>
      <point x="571" y="-425" type="line"/>
      <point x="608" y="-234" type="line"/>
      <point x="528" y="-234" type="line" smooth="yes"/>
      <point x="453" y="-234"/>
      <point x="406" y="-200"/>
      <point x="406" y="-129" type="curve" smooth="yes"/>
      <point x="406" y="-106"/>
      <point x="409" y="-81"/>
      <point x="415" y="-53" type="curve" smooth="yes"/>
      <point x="480" y="281" type="line" smooth="yes"/>
      <point x="483" y="296"/>
      <point x="485" y="314"/>
      <point x="485" y="333" type="curve" smooth="yes"/>
      <point x="485" y="433"/>
      <point x="421" y="503"/>
      <point x="322" y="528" type="curve"/>
      <point x="323" y="532" type="line"/>
      <point x="452" y="559"/>
      <point x="554" y="654"/>
      <point x="579" y="779" type="curve" smooth="yes"/>
      <point x="639" y="1089" type="line" smooth="yes"/>
      <point x="668" y="1238"/>
      <point x="720" y="1294"/>
      <point x="829" y="1294" type="curve" smooth="yes"/>
      <point x="905" y="1294" type="line"/>
      <point x="942" y="1484" type="line"/>
      <point x="748" y="1484" type="line" smooth="yes"/>
      <point x="543" y="1484"/>
      <point x="437" y="1385"/>
      <point x="398" y="1190" type="curve" smooth="yes"/>
      <point x="331" y="852" type="line" smooth="yes"/>
      <point x="302" y="703"/>
      <point x="211" y="628"/>
      <point x="57" y="625" type="curve"/>
      <point x="19" y="433" type="line"/>
      <point x="147" y="430"/>
      <point x="211" y="378"/>
      <point x="211" y="275" type="curve" smooth="yes"/>
      <point x="211" y="253"/>
      <point x="209" y="230"/>
      <point x="204" y="207" type="curve" smooth="yes"/>
      <point x="143" y="-101" type="line" smooth="yes"/>
      <point x="136" y="-139"/>
      <point x="132" y="-173"/>
      <point x="132" y="-202" type="curve" smooth="yes"/>
      <point x="132" y="-338"/>
      <point x="229" y="-425"/>
    </contour>
  </outline>
</glyph>
<glyph name="bar" format="2">
  <advance width="573"/>
  <unicode hex="007C"/>
  <note>
bar
</note>
  <outline>
    <contour>
      <point x="453" y="1484" type="line"/>
      <point x="191" y="1484" type="line"/>
      <point x="191" y="-425" type="line"/>
      <point x="453" y="-425" type="line"/>
    </contour>
  </outline>
</glyph>
<glyph name="braceright" format="2">
  <advance width="797"/>
  <unicode hex="007D"/>
  <note>
braceright
</note>
  <outline>
    <contour>
      <point x="399" y="1485" type="curve"/>
      <point x="216" y="1485" type="line"/>
      <point x="179" y="1294" type="line"/>
      <point x="259" y="1294" type="line" smooth="yes"/>
      <point x="334" y="1294"/>
      <point x="381" y="1260"/>
      <point x="381" y="1189" type="curve" smooth="yes"/>
      <point x="381" y="1168"/>
      <point x="378" y="1142"/>
      <point x="372" y="1112" type="curve" smooth="yes"/>
      <point x="307" y="779" type="line" smooth="yes"/>
      <point x="304" y="764"/>
      <point x="302" y="746"/>
      <point x="302" y="727" type="curve" smooth="yes"/>
      <point x="302" y="628"/>
      <point x="365" y="556"/>
      <point x="465" y="531" type="curve"/>
      <point x="464" y="528" type="line"/>
      <point x="335" y="501"/>
      <point x="233" y="407"/>
      <point x="208" y="280" type="curve" smooth="yes"/>
      <point x="148" y="-30" type="line" smooth="yes"/>
      <point x="119" y="-179"/>
      <point x="67" y="-235"/>
      <point x="-42" y="-235" type="curve" smooth="yes"/>
      <point x="-118" y="-235" type="line"/>
      <point x="-155" y="-425" type="line"/>
      <point x="39" y="-425" type="line" smooth="yes"/>
      <point x="239" y="-425"/>
      <point x="348" y="-333"/>
      <point x="389" y="-130" type="curve" smooth="yes"/>
      <point x="456" y="207" type="line" smooth="yes"/>
      <point x="485" y="358"/>
      <point x="573" y="432"/>
      <point x="730" y="435" type="curve"/>
      <point x="768" y="627" type="line"/>
      <point x="636" y="630"/>
      <point x="576" y="682"/>
      <point x="576" y="785" type="curve" smooth="yes"/>
      <point x="576" y="808"/>
      <point x="578" y="831"/>
      <point x="583" y="853" type="curve" smooth="yes"/>
      <point x="644" y="1161" type="line" smooth="yes"/>
      <point x="651" y="1198"/>
      <point x="655" y="1231"/>
      <point x="655" y="1262" type="curve" smooth="yes"/>
      <point x="655" y="1398"/>
      <point x="558" y="1485"/>
    </contour>
  </outline>
</glyph>
<glyph name="asciitilde" format="2">
  <advance width="1196"/>
  <unicode hex="007E"/>
  <note>
asciitilde
</note>
  <outline>
    <contour>
      <point x="889" y="516" type="curve" smooth="yes"/>
      <point x="1004" y="516"/>
      <point x="1071" y="537"/>
      <point x="1156" y="596" type="curve"/>
      <point x="1156" y="815" type="line"/>
      <point x="1080" y="754"/>
      <point x="997" y="723"/>
      <point x="908" y="723" type="curve" smooth="yes"/>
      <point x="856" y="723"/>
      <point x="785" y="739"/>
      <point x="696" y="770" type="curve" smooth="yes"/>
      <point x="597" y="805"/>
      <point x="496" y="840"/>
      <point x="389" y="840" type="curve" smooth="yes"/>
      <point x="284" y="840"/>
      <point x="193" y="812"/>
      <point x="118" y="756" type="curve"/>
      <point x="118" y="543" type="line"/>
      <point x="205" y="603"/>
      <point x="278" y="631"/>
      <point x="373" y="631" type="curve" smooth="yes"/>
      <point x="430" y="631"/>
      <point x="504" y="615"/>
      <point x="594" y="584" type="curve" smooth="yes"/>
      <point x="694" y="549"/>
      <point x="789" y="516"/>
    </contour>
  </outline>
</glyph>
<glyph name="exclamdown" format="2">
  <advance width="682"/>
  <unicode hex="00A1"/>
  <note>
exclamdown
</note>
  <outline>
    <contour>
      <point x="588" y="1082" type="line"/>
      <point x="300" y="1082" type="line"/>
      <point x="247" y="812" type="line"/>
      <point x="535" y="812" type="line"/>
    </contour>
    <contour>
      <point x="242" y="654" type="line"/>
      <point x="20" y="-327" type="line"/>
      <point x="314" y="-327" type="line"/>
      <point x="472" y="654" type="line"/>
    </contour>
  </outline>
</glyph>
<glyph name="cent" format="2">
  <advance width="1139"/>
  <unicode hex="00A2"/>
  <note>
cent
</note>
  <outline>
    <contour>
      <point x="549" y="328" type="curve"/>
      <point x="430" y="328"/>
      <point x="371" y="406"/>
      <point x="371" y="562" type="curve" smooth="yes"/>
      <point x="371" y="597"/>
      <point x="376" y="654"/>
      <point x="394" y="730" type="curve" smooth="yes"/>
      <point x="424" y="856"/>
      <point x="461" y="939"/>
      <point x="504" y="991" type="curve" smooth="yes"/>
      <point x="547" y="1043"/>
      <point x="600" y="1064"/>
      <point x="671" y="1064" type="curve" smooth="yes"/>
      <point x="775" y="1064"/>
      <point x="831" y="1000"/>
      <point x="838" y="873" type="curve"/>
      <point x="1122" y="896" type="line"/>
      <point x="1107" y="1087"/>
      <point x="988" y="1217"/>
      <point x="799" y="1248" type="curve"/>
      <point x="831" y="1409" type="line"/>
      <point x="669" y="1409" type="line"/>
      <point x="638" y="1255" type="line"/>
      <point x="481" y="1247"/>
      <point x="358" y="1193"/>
      <point x="266" y="1094" type="curve" smooth="yes"/>
      <point x="186" y="1009"/>
      <point x="129" y="890"/>
      <point x="94" y="739" type="curve" smooth="yes"/>
      <point x="82" y="690"/>
      <point x="76" y="630"/>
      <point x="76" y="560" type="curve" smooth="yes"/>
      <point x="76" y="327"/>
      <point x="202" y="178"/>
      <point x="422" y="143" type="curve"/>
      <point x="390" y="-31" type="line"/>
      <point x="552" y="-31" type="line"/>
      <point x="584" y="136" type="line"/>
      <point x="819" y="151"/>
      <point x="974" y="261"/>
      <point x="1043" y="486" type="curve"/>
      <point x="772" y="536" type="line"/>
      <point x="729" y="399"/>
      <point x="660" y="328"/>
    </contour>
  </outline>
</glyph>
<glyph name="currency" format="2">
  <advance width="1139"/>
  <unicode hex="00A4"/>
  <note>
currency
</note>
  <outline>
    <contour>
      <point x="149" y="684" type="curve"/>
      <point x="149" y="604"/>
      <point x="168" y="531"/>
      <point x="207" y="465" type="curve"/>
      <point x="72" y="328" type="line"/>
      <point x="229" y="170" type="line"/>
      <point x="364" y="307" type="line"/>
      <point x="429" y="269"/>
      <point x="503" y="250"/>
      <point x="584" y="250" type="curve" smooth="yes"/>
      <point x="665" y="250"/>
      <point x="738" y="270"/>
      <point x="805" y="309" type="curve"/>
      <point x="938" y="174" type="line"/>
      <point x="1096" y="334" type="line"/>
      <point x="962" y="467" type="line"/>
      <point x="1001" y="533"/>
      <point x="1020" y="605"/>
      <point x="1020" y="684" type="curve" smooth="yes"/>
      <point x="1020" y="764"/>
      <point x="1000" y="837"/>
      <point x="960" y="903" type="curve"/>
      <point x="1096" y="1038" type="line"/>
      <point x="938" y="1196" type="line"/>
      <point x="803" y="1061" type="line"/>
      <point x="738" y="1100"/>
      <point x="665" y="1120"/>
      <point x="584" y="1120" type="curve" smooth="yes"/>
      <point x="505" y="1120"/>
      <point x="431" y="1100"/>
      <point x="364" y="1061" type="curve"/>
      <point x="233" y="1194" type="line"/>
      <point x="76" y="1038" type="line"/>
      <point x="209" y="905" type="line"/>
      <point x="169" y="838"/>
      <point x="149" y="764"/>
    </contour>
    <contour>
      <point x="375" y="686" type="curve"/>
      <point x="375" y="802"/>
      <point x="469" y="895"/>
      <point x="584" y="895" type="curve" smooth="yes"/>
      <point x="699" y="895"/>
      <point x="792" y="801"/>
      <point x="792" y="686" type="curve" smooth="yes"/>
      <point x="792" y="573"/>
      <point x="697" y="477"/>
      <point x="584" y="477" type="curve" smooth="yes"/>
      <point x="468" y="477"/>
      <point x="375" y="571"/>
    </contour>
  </outline>
</glyph>
<glyph name="brokenbar" format="2">
  <advance width="573"/>
  <unicode hex="00A6"/>
  <note>
brokenbar
</note>
  <outline>
    <contour>
      <point x="454" y="1484" type="line"/>
      <point x="192" y="1484" type="line"/>
      <point x="192" y="736" type="line"/>
      <point x="454" y="736" type="line"/>
    </contour>
    <contour>
      <point x="454" y="324" type="line"/>
      <point x="192" y="324" type="line"/>
      <point x="192" y="-425" type="line"/>
      <point x="454" y="-425" type="line"/>
    </contour>
  </outline>
</glyph>
<glyph name="section" format="2">
  <advance width="1139"/>
  <unicode hex="00A7"/>
  <note>
section
</note>
  <outline>
    <contour>
      <point x="1079" y="668" type="curve" smooth="yes"/>
      <point x="1079" y="810"/>
      <point x="960" y="908"/>
      <point x="722" y="963" type="curve" smooth="yes"/>
      <point x="606" y="991"/>
      <point x="535" y="1014"/>
      <point x="495" y="1058" type="curve" smooth="yes"/>
      <point x="478" y="1077"/>
      <point x="469" y="1099"/>
      <point x="469" y="1124" type="curve" smooth="yes"/>
      <point x="469" y="1213"/>
      <point x="545" y="1257"/>
      <point x="697" y="1257" type="curve" smooth="yes"/>
      <point x="808" y="1257"/>
      <point x="888" y="1219"/>
      <point x="904" y="1128" type="curve"/>
      <point x="1148" y="1153" type="line"/>
      <point x="1139" y="1332"/>
      <point x="990" y="1427"/>
      <point x="718" y="1427" type="curve" smooth="yes"/>
      <point x="383" y="1427"/>
      <point x="221" y="1320"/>
      <point x="221" y="1100" type="curve" smooth="yes"/>
      <point x="221" y="996"/>
      <point x="271" y="913"/>
      <point x="366" y="861" type="curve"/>
      <point x="185" y="816"/>
      <point x="95" y="724"/>
      <point x="95" y="585" type="curve" smooth="yes"/>
      <point x="95" y="431"/>
      <point x="202" y="330"/>
      <point x="416" y="283" type="curve" smooth="yes"/>
      <point x="520" y="259"/>
      <point x="588" y="240"/>
      <point x="619" y="226" type="curve" smooth="yes"/>
      <point x="681" y="198"/>
      <point x="716" y="159"/>
      <point x="716" y="95" type="curve" smooth="yes"/>
      <point x="716" y="-4"/>
      <point x="619" y="-59"/>
      <point x="438" y="-59" type="curve" smooth="yes"/>
      <point x="297" y="-59"/>
      <point x="221" y="-15"/>
      <point x="202" y="96" type="curve"/>
      <point x="-42" y="59" type="line"/>
      <point x="-17" y="-140"/>
      <point x="132" y="-229"/>
      <point x="425" y="-229" type="curve" smooth="yes"/>
      <point x="772" y="-229"/>
      <point x="962" y="-101"/>
      <point x="962" y="142" type="curve" smooth="yes"/>
      <point x="962" y="242"/>
      <point x="914" y="321"/>
      <point x="830" y="368" type="curve"/>
      <point x="1007" y="424"/>
      <point x="1079" y="519"/>
    </contour>
    <contour>
      <point x="346" y="626" type="curve" smooth="yes"/>
      <point x="346" y="719"/>
      <point x="434" y="772"/>
      <point x="571" y="780" type="curve"/>
      <point x="671" y="757"/>
      <point x="739" y="733"/>
      <point x="776" y="707" type="curve" smooth="yes"/>
      <point x="812" y="680"/>
      <point x="830" y="644"/>
      <point x="830" y="598" type="curve" smooth="yes"/>
      <point x="830" y="515"/>
      <point x="748" y="466"/>
      <point x="600" y="454" type="curve"/>
      <point x="521" y="473"/>
      <point x="468" y="489"/>
      <point x="439" y="504" type="curve" smooth="yes"/>
      <point x="381" y="532"/>
      <point x="346" y="570"/>
    </contour>
  </outline>
</glyph>
<glyph name="dieresis" format="2">
  <advance width="682"/>
  <unicode hex="00A8"/>
  <note>
dieresis
</note>
  <outline>
    <contour>
      <point x="828" y="1418" type="line"/>
      <point x="611" y="1418" type="line"/>
      <point x="568" y="1199" type="line"/>
      <point x="785" y="1199" type="line"/>
    </contour>
    <contour>
      <point x="391" y="1418" type="line"/>
      <point x="177" y="1418" type="line"/>
      <point x="135" y="1199" type="line"/>
      <point x="348" y="1199" type="line"/>
    </contour>
  </outline>
</glyph>
<glyph name="copyright" format="2">
  <advance width="1509"/>
  <unicode hex="00A9"/>
  <note>
copyright
</note>
  <outline>
    <contour>
      <point x="1508" y="707" type="curve"/>
      <point x="1508" y="966"/>
      <point x="1372" y="1203"/>
      <point x="1148" y="1333" type="curve" smooth="yes"/>
      <point x="1035" y="1398"/>
      <point x="914" y="1430"/>
      <point x="785" y="1430" type="curve" smooth="yes"/>
      <point x="528" y="1430"/>
      <point x="288" y="1292"/>
      <point x="159" y="1068" type="curve" smooth="yes"/>
      <point x="94" y="956"/>
      <point x="62" y="836"/>
      <point x="62" y="707" type="curve" smooth="yes"/>
      <point x="62" y="455"/>
      <point x="193" y="219"/>
      <point x="419" y="85" type="curve" smooth="yes"/>
      <point x="532" y="18"/>
      <point x="654" y="-16"/>
      <point x="785" y="-16" type="curve" smooth="yes"/>
      <point x="1042" y="-16"/>
      <point x="1283" y="121"/>
      <point x="1412" y="346" type="curve" smooth="yes"/>
      <point x="1476" y="458"/>
      <point x="1508" y="578"/>
    </contour>
    <contour>
      <point x="1396" y="707" type="curve"/>
      <point x="1396" y="490"/>
      <point x="1280" y="287"/>
      <point x="1091" y="178" type="curve" smooth="yes"/>
      <point x="996" y="123"/>
      <point x="894" y="96"/>
      <point x="785" y="96" type="curve" smooth="yes"/>
      <point x="566" y="96"/>
      <point x="367" y="213"/>
      <point x="259" y="402" type="curve" smooth="yes"/>
      <point x="204" y="497"/>
      <point x="177" y="598"/>
      <point x="177" y="707" type="curve" smooth="yes"/>
      <point x="177" y="932"/>
      <point x="301" y="1133"/>
      <point x="488" y="1237" type="curve" smooth="yes"/>
      <point x="581" y="1289"/>
      <point x="680" y="1315"/>
      <point x="785" y="1315" type="curve" smooth="yes"/>
      <point x="1002" y="1315"/>
      <point x="1205" y="1198"/>
      <point x="1314" y="1011" type="curve" smooth="yes"/>
      <point x="1369" y="917"/>
      <point x="1396" y="816"/>
    </contour>
    <contour>
      <point x="798" y="285" type="curve"/>
      <point x="963" y="285"/>
      <point x="1077" y="355"/>
      <point x="1154" y="522" type="curve"/>
      <point x="994" y="569" type="line"/>
      <point x="957" y="477"/>
      <point x="886" y="426"/>
      <point x="798" y="426" type="curve" smooth="yes"/>
      <point x="657" y="426"/>
      <point x="574" y="529"/>
      <point x="574" y="709" type="curve" smooth="yes"/>
      <point x="574" y="888"/>
      <point x="649" y="983"/>
      <point x="794" y="983" type="curve" smooth="yes"/>
      <point x="886" y="983"/>
      <point x="951" y="935"/>
      <point x="986" y="854" type="curve"/>
      <point x="1142" y="895" type="line"/>
      <point x="1078" y="1051"/>
      <point x="962" y="1124"/>
      <point x="789" y="1124" type="curve" smooth="yes"/>
      <point x="534" y="1124"/>
      <point x="394" y="980"/>
      <point x="394" y="709" type="curve" smooth="yes"/>
      <point x="394" y="440"/>
      <point x="541" y="285"/>
    </contour>
  </outline>
</glyph>
<glyph name="ordfeminine" format="2">
  <advance width="758"/>
  <unicode hex="00AA"/>
  <note>
ordfeminine
</note>
  <outline>
    <contour>
      <point x="679" y="697" type="curve"/>
      <point x="730" y="697"/>
      <point x="767" y="701"/>
      <point x="790" y="709" type="curve"/>
      <point x="800" y="811" type="line"/>
      <point x="784" y="807"/>
      <point x="770" y="805"/>
      <point x="759" y="805" type="curve" smooth="yes"/>
      <point x="724" y="805"/>
      <point x="707" y="819"/>
      <point x="707" y="848" type="curve"/>
      <point x="709" y="864"/>
      <point x="710" y="879"/>
      <point x="712" y="895" type="curve"/>
      <point x="763" y="1148" type="line" smooth="yes"/>
      <point x="769" y="1176"/>
      <point x="775" y="1204"/>
      <point x="775" y="1227" type="curve" smooth="yes"/>
      <point x="775" y="1358"/>
      <point x="695" y="1418"/>
      <point x="515" y="1418" type="curve" smooth="yes"/>
      <point x="331" y="1418"/>
      <point x="236" y="1344"/>
      <point x="209" y="1227" type="curve"/>
      <point x="380" y="1208" type="line"/>
      <point x="396" y="1268"/>
      <point x="432" y="1299"/>
      <point x="512" y="1299" type="curve" smooth="yes"/>
      <point x="567" y="1299"/>
      <point x="594" y="1272"/>
      <point x="594" y="1217" type="curve" smooth="yes"/>
      <point x="594" y="1200"/>
      <point x="590" y="1180"/>
      <point x="580" y="1130" type="curve"/>
      <point x="457" y="1128" type="line" smooth="yes"/>
      <point x="208" y="1124"/>
      <point x="104" y="1040"/>
      <point x="104" y="884" type="curve" smooth="yes"/>
      <point x="104" y="768"/>
      <point x="185" y="689"/>
      <point x="304" y="689" type="curve" smooth="yes"/>
      <point x="405" y="689"/>
      <point x="467" y="720"/>
      <point x="542" y="836" type="curve"/>
      <point x="545" y="836" type="line"/>
      <point x="542" y="795" type="line"/>
      <point x="542" y="734"/>
      <point x="591" y="697"/>
    </contour>
    <contour>
      <point x="298" y="914" type="curve" smooth="yes"/>
      <point x="298" y="986"/>
      <point x="360" y="1024"/>
      <point x="463" y="1027" type="curve" smooth="yes"/>
      <point x="561" y="1029" type="line"/>
      <point x="545" y="969" type="line" smooth="yes"/>
      <point x="521" y="874"/>
      <point x="456" y="816"/>
      <point x="387" y="816" type="curve" smooth="yes"/>
      <point x="336" y="816"/>
      <point x="298" y="846"/>
    </contour>
  </outline>
</glyph>
<glyph name="logicalnot" format="2">
  <advance width="1196"/>
  <unicode hex="00AC"/>
  <note>
logicalnot
</note>
  <outline>
    <contour>
      <point x="1102" y="793" type="line"/>
      <point x="75" y="793" type="line"/>
      <point x="75" y="569" type="line"/>
      <point x="878" y="569" type="line"/>
      <point x="878" y="141" type="line"/>
      <point x="1102" y="141" type="line"/>
    </contour>
  </outline>
</glyph>
<glyph name="registered" format="2">
  <advance width="1509"/>
  <unicode hex="00AE"/>
  <note>
registered
</note>
  <outline>
    <contour>
      <point x="1508" y="707" type="curve"/>
      <point x="1508" y="966"/>
      <point x="1372" y="1203"/>
      <point x="1148" y="1333" type="curve" smooth="yes"/>
      <point x="1035" y="1398"/>
      <point x="914" y="1430"/>
      <point x="785" y="1430" type="curve" smooth="yes"/>
      <point x="528" y="1430"/>
      <point x="288" y="1292"/>
      <point x="159" y="1068" type="curve" smooth="yes"/>
      <point x="94" y="956"/>
      <point x="62" y="836"/>
      <point x="62" y="707" type="curve" smooth="yes"/>
      <point x="62" y="455"/>
      <point x="193" y="219"/>
      <point x="419" y="85" type="curve" smooth="yes"/>
      <point x="532" y="18"/>
      <point x="654" y="-16"/>
      <point x="785" y="-16" type="curve" smooth="yes"/>
      <point x="1042" y="-16"/>
      <point x="1283" y="121"/>
      <point x="1412" y="346" type="curve" smooth="yes"/>
      <point x="1476" y="458"/>
      <point x="1508" y="578"/>
    </contour>
    <contour>
      <point x="1396" y="707" type="curve"/>
      <point x="1396" y="490"/>
      <point x="1280" y="287"/>
      <point x="1091" y="178" type="curve" smooth="yes"/>
      <point x="996" y="123"/>
      <point x="894" y="96"/>
      <point x="785" y="96" type="curve" smooth="yes"/>
      <point x="566" y="96"/>
      <point x="367" y="213"/>
      <point x="259" y="402" type="curve" smooth="yes"/>
      <point x="204" y="497"/>
      <point x="177" y="598"/>
      <point x="177" y="707" type="curve" smooth="yes"/>
      <point x="177" y="932"/>
      <point x="301" y="1133"/>
      <point x="488" y="1237" type="curve" smooth="yes"/>
      <point x="581" y="1289"/>
      <point x="680" y="1315"/>
      <point x="785" y="1315" type="curve" smooth="yes"/>
      <point x="1002" y="1315"/>
      <point x="1205" y="1198"/>
      <point x="1314" y="1011" type="curve" smooth="yes"/>
      <point x="1369" y="917"/>
      <point x="1396" y="816"/>
    </contour>
    <contour>
      <point x="658" y="610" type="line"/>
      <point x="775" y="610" type="line"/>
      <point x="953" y="297" type="line"/>
      <point x="1154" y="297" type="line"/>
      <point x="941" y="633" type="line"/>
      <point x="1045" y="666"/>
      <point x="1115" y="745"/>
      <point x="1115" y="870" type="curve" smooth="yes"/>
      <point x="1115" y="1021"/>
      <point x="1014" y="1112"/>
      <point x="810" y="1112" type="curve" smooth="yes"/>
      <point x="480" y="1112" type="line"/>
      <point x="480" y="297" type="line"/>
      <point x="658" y="297" type="line"/>
    </contour>
    <contour>
      <point x="935" y="868" type="curve"/>
      <point x="935" y="791"/>
      <point x="890" y="739"/>
      <point x="802" y="739" type="curve" smooth="yes"/>
      <point x="658" y="739" type="line"/>
      <point x="658" y="985" type="line"/>
      <point x="791" y="985" type="line" smooth="yes"/>
      <point x="883" y="985"/>
      <point x="935" y="944"/>
    </contour>
  </outline>
</glyph>
<glyph name="degree" format="2">
  <advance width="819"/>
  <unicode hex="00B0"/>
  <note>
degree
</note>
  <outline>
    <contour>
      <point x="830" y="1110" type="curve"/>
      <point x="830" y="1283"/>
      <point x="689" y="1425"/>
      <point x="509" y="1425" type="curve" smooth="yes"/>
      <point x="332" y="1425"/>
      <point x="189" y="1287"/>
      <point x="189" y="1110" type="curve" smooth="yes"/>
      <point x="189" y="933"/>
      <point x="333" y="795"/>
      <point x="509" y="795" type="curve" smooth="yes"/>
      <point x="688" y="795"/>
      <point x="830" y="937"/>
    </contour>
    <contour>
      <point x="672" y="1110" type="curve"/>
      <point x="672" y="1017"/>
      <point x="598" y="942"/>
      <point x="509" y="942" type="curve" smooth="yes"/>
      <point x="418" y="942"/>
      <point x="343" y="1018"/>
      <point x="343" y="1110" type="curve" smooth="yes"/>
      <point x="343" y="1202"/>
      <point x="414" y="1276"/>
      <point x="509" y="1276" type="curve" smooth="yes"/>
      <point x="602" y="1276"/>
      <point x="672" y="1203"/>
    </contour>
  </outline>
</glyph>
<glyph name="plusminus" format="2">
  <advance width="1124"/>
  <unicode hex="00B1"/>
  <note>
plusminus
</note>
  <outline>
    <contour>
      <point x="712" y="707" type="line"/>
      <point x="1114" y="707" type="line"/>
      <point x="1114" y="930" type="line"/>
      <point x="712" y="930" type="line"/>
      <point x="712" y="1270" type="line"/>
      <point x="488" y="1270" type="line"/>
      <point x="488" y="930" type="line"/>
      <point x="87" y="930" type="line"/>
      <point x="87" y="707" type="line"/>
      <point x="488" y="707" type="line"/>
      <point x="488" y="366" type="line"/>
      <point x="712" y="366" type="line"/>
    </contour>
    <contour>
      <point x="1114" y="223" type="line"/>
      <point x="87" y="223" type="line"/>
      <point x="87" y="0" type="line"/>
      <point x="1114" y="0" type="line"/>
    </contour>
  </outline>
</glyph>
<glyph name="twosuperior" format="2">
  <advance width="682"/>
  <unicode hex="00B2"/>
  <note>
twosuperior
</note>
  <outline>
    <contour>
      <point x="71" y="696" type="line"/>
      <point x="635" y="696" type="line"/>
      <point x="660" y="839" type="line"/>
      <point x="311" y="839" type="line"/>
      <point x="340" y="879"/>
      <point x="396" y="910"/>
      <point x="457" y="943" type="curve" smooth="yes"/>
      <point x="488" y="959"/>
      <point x="519" y="976"/>
      <point x="551" y="994" type="curve" smooth="yes"/>
      <point x="615" y="1030"/>
      <point x="668" y="1075"/>
      <point x="701" y="1135" type="curve" smooth="yes"/>
      <point x="718" y="1164"/>
      <point x="726" y="1199"/>
      <point x="726" y="1239" type="curve" smooth="yes"/>
      <point x="726" y="1354"/>
      <point x="632" y="1426"/>
      <point x="479" y="1426" type="curve" smooth="yes"/>
      <point x="315" y="1426"/>
      <point x="228" y="1368"/>
      <point x="187" y="1236" type="curve"/>
      <point x="349" y="1202" type="line"/>
      <point x="366" y="1267"/>
      <point x="404" y="1299"/>
      <point x="463" y="1299" type="curve" smooth="yes"/>
      <point x="510" y="1299"/>
      <point x="542" y="1270"/>
      <point x="542" y="1231" type="curve" smooth="yes"/>
      <point x="542" y="1183"/>
      <point x="520" y="1144"/>
      <point x="464" y="1102" type="curve" smooth="yes"/>
      <point x="440" y="1084"/>
      <point x="410" y="1065"/>
      <point x="373" y="1045" type="curve" smooth="yes"/>
      <point x="279" y="992"/>
      <point x="213" y="947"/>
      <point x="164" y="900" type="curve" smooth="yes"/>
      <point x="136" y="873"/>
      <point x="114" y="846"/>
      <point x="95" y="816" type="curve"/>
    </contour>
  </outline>
</glyph>
<glyph name="threesuperior" format="2">
  <advance width="682"/>
  <unicode hex="00B3"/>
  <note>
threesuperior
</note>
  <outline>
    <contour>
      <point x="341" y="1126" type="line"/>
      <point x="317" y="1000" type="line"/>
      <point x="385" y="1000" type="line" smooth="yes"/>
      <point x="459" y="1000"/>
      <point x="496" y="972"/>
      <point x="496" y="915" type="curve" smooth="yes"/>
      <point x="496" y="847"/>
      <point x="446" y="811"/>
      <point x="385" y="811" type="curve" smooth="yes"/>
      <point x="324" y="811"/>
      <point x="288" y="844"/>
      <point x="277" y="910" type="curve"/>
      <point x="96" y="885" type="line"/>
      <point x="114" y="754"/>
      <point x="205" y="688"/>
      <point x="369" y="688" type="curve" smooth="yes"/>
      <point x="562" y="688"/>
      <point x="684" y="778"/>
      <point x="684" y="913" type="curve" smooth="yes"/>
      <point x="684" y="997"/>
      <point x="627" y="1049"/>
      <point x="542" y="1065" type="curve"/>
      <point x="543" y="1067" type="line"/>
      <point x="652" y="1076"/>
      <point x="726" y="1152"/>
      <point x="726" y="1247" type="curve" smooth="yes"/>
      <point x="726" y="1367"/>
      <point x="633" y="1426"/>
      <point x="476" y="1426" type="curve" smooth="yes"/>
      <point x="300" y="1426"/>
      <point x="213" y="1365"/>
      <point x="178" y="1234" type="curve"/>
      <point x="341" y="1210" type="line"/>
      <point x="358" y="1273"/>
      <point x="396" y="1304"/>
      <point x="456" y="1304" type="curve" smooth="yes"/>
      <point x="511" y="1304"/>
      <point x="539" y="1276"/>
      <point x="539" y="1221" type="curve" smooth="yes"/>
      <point x="539" y="1161"/>
      <point x="484" y="1126"/>
      <point x="401" y="1126" type="curve" smooth="yes"/>
    </contour>
  </outline>
</glyph>
<glyph name="acute" format="2">
  <advance width="682"/>
  <unicode hex="00B4"/>
  <note>
acute
</note>
  <outline>
    <contour>
      <point x="777" y="1459" type="line"/>
      <point x="785" y="1502" type="line"/>
      <point x="508" y="1502" type="line"/>
      <point x="261" y="1214" type="line"/>
      <point x="255" y="1183" type="line"/>
      <point x="401" y="1183" type="line"/>
    </contour>
  </outline>
</glyph>
<glyph name="mu1" format="2">
  <advance width="1180"/>
  <unicode hex="00B5"/>
  <note>
mu1
</note>
  <outline>
    <contour>
      <point x="306" y="-45" type="line"/>
      <point x="322" y="70" type="line"/>
      <point x="328" y="70" type="line"/>
      <point x="348" y="15"/>
      <point x="400" y="-20"/>
      <point x="479" y="-20" type="curve" smooth="yes"/>
      <point x="587" y="-20"/>
      <point x="652" y="48"/>
      <point x="708" y="164" type="curve"/>
      <point x="712" y="164" type="line"/>
      <point x="710" y="122" type="line" smooth="yes"/>
      <point x="710" y="19"/>
      <point x="758" y="-20"/>
      <point x="875" y="-20" type="curve"/>
      <point x="930" y="-20"/>
      <point x="992" y="-12"/>
      <point x="1063" y="5" type="curve"/>
      <point x="1079" y="198" type="line"/>
      <point x="1064" y="193"/>
      <point x="1048" y="191"/>
      <point x="1033" y="191" type="curve" smooth="yes"/>
      <point x="1000" y="191"/>
      <point x="983" y="214"/>
      <point x="983" y="260" type="curve" smooth="yes"/>
      <point x="983" y="273"/>
      <point x="986" y="295"/>
      <point x="992" y="325" type="curve" smooth="yes"/>
      <point x="1139" y="1082" type="line"/>
      <point x="858" y="1082" type="line"/>
      <point x="746" y="504" type="line" smooth="yes"/>
      <point x="711" y="303"/>
      <point x="627" y="193"/>
      <point x="519" y="193" type="curve" smooth="yes"/>
      <point x="436" y="193"/>
      <point x="394" y="248"/>
      <point x="394" y="358" type="curve" smooth="yes"/>
      <point x="395" y="398"/>
      <point x="400" y="438"/>
      <point x="407" y="477" type="curve" smooth="yes"/>
      <point x="525" y="1082" type="line"/>
      <point x="244" y="1082" type="line"/>
      <point x="-47" y="-425" type="line"/>
      <point x="233" y="-425" type="line"/>
    </contour>
  </outline>
</glyph>
<glyph name="paragraph" format="2">
  <advance width="1139"/>
  <unicode hex="00B6"/>
  <note>
paragraph
</note>
  <outline>
    <contour>
      <point x="624" y="1266" type="line"/>
      <point x="819" y="1266" type="line"/>
      <point x="819" y="-264" type="line"/>
      <point x="975" y="-264" type="line"/>
      <point x="975" y="1266" type="line"/>
      <point x="1106" y="1266" type="line"/>
      <point x="1106" y="1409" type="line"/>
      <point x="477" y="1409" type="line" smooth="yes"/>
      <point x="245" y="1409"/>
      <point x="106" y="1274"/>
      <point x="106" y="1049" type="curve" smooth="yes"/>
      <point x="106" y="822"/>
      <point x="244" y="694"/>
      <point x="469" y="694" type="curve"/>
      <point x="469" y="-264" type="line"/>
      <point x="624" y="-264" type="line"/>
    </contour>
  </outline>
</glyph>
<glyph name="middot" format="2">
  <advance width="682"/>
  <unicode hex="00B7"/>
  <note>
middot
</note>
  <outline>
    <contour>
      <point x="536" y="836" type="line"/>
      <point x="248" y="836" type="line"/>
      <point x="189" y="531" type="line"/>
      <point x="477" y="531" type="line"/>
    </contour>
  </outline>
</glyph>
<glyph name="cedilla" format="2">
  <advance width="682"/>
  <unicode hex="00B8"/>
  <note>
cedilla
</note>
  <outline>
    <contour>
      <point x="382" y="-83" type="curve"/>
      <point x="430" y="0" type="line"/>
      <point x="289" y="0" type="line"/>
      <point x="191" y="-171" type="line"/>
      <point x="209" y="-170"/>
      <point x="226" y="-170"/>
      <point x="244" y="-169" type="curve" smooth="yes"/>
      <point x="317" y="-169"/>
      <point x="354" y="-190"/>
      <point x="354" y="-232" type="curve" smooth="yes"/>
      <point x="354" y="-288"/>
      <point x="307" y="-309"/>
      <point x="199" y="-309" type="curve" smooth="yes"/>
      <point x="172" y="-309"/>
      <point x="145" y="-307"/>
      <point x="117" y="-302" type="curve"/>
      <point x="88" y="-419" type="line"/>
      <point x="125" y="-423"/>
      <point x="161" y="-425"/>
      <point x="194" y="-425" type="curve" smooth="yes"/>
      <point x="430" y="-425"/>
      <point x="539" y="-344"/>
      <point x="539" y="-215" type="curve" smooth="yes"/>
      <point x="539" y="-127"/>
      <point x="475" y="-84"/>
    </contour>
  </outline>
</glyph>
<glyph name="onesuperior" format="2">
  <advance width="682"/>
  <unicode hex="00B9"/>
  <note>
onesuperior
</note>
  <outline>
    <contour>
      <point x="657" y="814" type="line"/>
      <point x="487" y="814" type="line"/>
      <point x="603" y="1413" type="line"/>
      <point x="428" y="1413" type="line"/>
      <point x="226" y="1296" type="line"/>
      <point x="202" y="1174" type="line"/>
      <point x="396" y="1282" type="line"/>
      <point x="305" y="814" type="line"/>
      <point x="121" y="814" type="line"/>
      <point x="98" y="693" type="line"/>
      <point x="634" y="693" type="line"/>
    </contour>
  </outline>
</glyph>
<glyph name="ordmasculine" format="2">
  <advance width="748"/>
  <unicode hex="00BA"/>
  <note>
ordmasculine
</note>
  <outline>
    <contour>
      <point x="409" y="689" type="curve" smooth="yes"/>
      <point x="622" y="689"/>
      <point x="779" y="824"/>
      <point x="818" y="1034" type="curve" smooth="yes"/>
      <point x="825" y="1068"/>
      <point x="828" y="1104"/>
      <point x="828" y="1142" type="curve" smooth="yes"/>
      <point x="828" y="1314"/>
      <point x="719" y="1418"/>
      <point x="515" y="1418" type="curve" smooth="yes"/>
      <point x="310" y="1418"/>
      <point x="160" y="1297"/>
      <point x="116" y="1105" type="curve" smooth="yes"/>
      <point x="107" y="1066"/>
      <point x="102" y="1024"/>
      <point x="102" y="980" type="curve" smooth="yes"/>
      <point x="102" y="801"/>
      <point x="220" y="689"/>
    </contour>
    <contour>
      <point x="501" y="1280" type="curve" smooth="yes"/>
      <point x="582" y="1280"/>
      <point x="625" y="1225"/>
      <point x="625" y="1128" type="curve" smooth="yes"/>
      <point x="625" y="1053"/>
      <point x="598" y="929"/>
      <point x="552" y="875" type="curve" smooth="yes"/>
      <point x="524" y="843"/>
      <point x="496" y="826"/>
      <point x="429" y="826" type="curve" smooth="yes"/>
      <point x="349" y="826"/>
      <point x="306" y="882"/>
      <point x="306" y="987" type="curve" smooth="yes"/>
      <point x="306" y="1090"/>
      <point x="328" y="1181"/>
      <point x="381" y="1233" type="curve" smooth="yes"/>
      <point x="410" y="1263"/>
      <point x="450" y="1280"/>
    </contour>
  </outline>
</glyph>
<glyph name="guillemotright" format="2">
  <advance width="1139"/>
  <unicode hex="00BB"/>
  <note>
guillemotright
</note>
  <outline>
    <contour>
      <point x="1058" y="506" type="line"/>
      <point x="1072" y="577" type="line"/>
      <point x="880" y="938" type="line"/>
      <point x="648" y="938" type="line"/>
      <point x="643" y="899" type="line"/>
      <point x="831" y="546" type="line"/>
      <point x="502" y="180" type="line"/>
      <point x="496" y="139" type="line"/>
      <point x="735" y="139" type="line"/>
    </contour>
    <contour>
      <point x="600" y="506" type="line"/>
      <point x="614" y="577" type="line"/>
      <point x="422" y="938" type="line"/>
      <point x="190" y="938" type="line"/>
      <point x="185" y="899" type="line"/>
      <point x="373" y="546" type="line"/>
      <point x="44" y="180" type="line"/>
      <point x="38" y="139" type="line"/>
      <point x="277" y="139" type="line"/>
    </contour>
  </outline>
</glyph>
<glyph name="questiondown" format="2">
  <advance width="1251"/>
  <unicode hex="00BF"/>
  <note>
questiondown
</note>
  <outline>
    <contour>
      <point x="926" y="1082" type="line"/>
      <point x="637" y="1082" type="line"/>
      <point x="585" y="812" type="line"/>
      <point x="874" y="812" type="line"/>
    </contour>
    <contour>
      <point x="490" y="-348" type="curve"/>
      <point x="786" y="-348"/>
      <point x="973" y="-221"/>
      <point x="1051" y="34" type="curve"/>
      <point x="785" y="74" type="line"/>
      <point x="750" y="-55"/>
      <point x="657" y="-119"/>
      <point x="506" y="-119" type="curve" smooth="yes"/>
      <point x="371" y="-119"/>
      <point x="309" y="-57"/>
      <point x="309" y="27" type="curve" smooth="yes"/>
      <point x="309" y="79"/>
      <point x="322" y="118"/>
      <point x="358" y="159" type="curve" smooth="yes"/>
      <point x="394" y="199"/>
      <point x="453" y="241"/>
      <point x="545" y="298" type="curve" smooth="yes"/>
      <point x="702" y="395"/>
      <point x="750" y="445"/>
      <point x="791" y="522" type="curve" smooth="yes"/>
      <point x="812" y="560"/>
      <point x="827" y="605"/>
      <point x="836" y="656" type="curve"/>
      <point x="569" y="656" type="line"/>
      <point x="562" y="603"/>
      <point x="540" y="564"/>
      <point x="504" y="529" type="curve" smooth="yes"/>
      <point x="486" y="511"/>
      <point x="449" y="484"/>
      <point x="394" y="447" type="curve"/>
      <point x="185" y="331"/>
      <point x="114" y="263"/>
      <point x="64" y="168" type="curve" smooth="yes"/>
      <point x="39" y="121"/>
      <point x="26" y="67"/>
      <point x="26" y="7" type="curve" smooth="yes"/>
      <point x="26" y="-216"/>
      <point x="205" y="-348"/>
    </contour>
  </outline>
</glyph>
<glyph name="Eth" format="2">
  <advance width="1479"/>
  <unicode hex="00D0"/>
  <note>
Eth
</note>
  <outline>
    <contour>
      <point x="734" y="1409" type="curve"/>
      <point x="310" y="1409" type="line"/>
      <point x="194" y="813" type="line"/>
      <point x="65" y="813" type="line"/>
      <point x="23" y="594" type="line"/>
      <point x="151" y="594" type="line"/>
      <point x="36" y="0" type="line"/>
      <point x="614" y="0" type="line" smooth="yes"/>
      <point x="925" y="0"/>
      <point x="1190" y="149"/>
      <point x="1322" y="390" type="curve" smooth="yes"/>
      <point x="1388" y="511"/>
      <point x="1421" y="650"/>
      <point x="1421" y="807" type="curve" smooth="yes"/>
      <point x="1421" y="1196"/>
      <point x="1178" y="1409"/>
    </contour>
    <contour>
      <point x="375" y="228" type="line"/>
      <point x="446" y="594" type="line"/>
      <point x="801" y="594" type="line"/>
      <point x="845" y="813" type="line"/>
      <point x="488" y="813" type="line"/>
      <point x="560" y="1181" type="line"/>
      <point x="736" y="1181" type="line" smooth="yes"/>
      <point x="1000" y="1181"/>
      <point x="1145" y="1046"/>
      <point x="1145" y="794" type="curve" smooth="yes"/>
      <point x="1145" y="566"/>
      <point x="1053" y="388"/>
      <point x="889" y="297" type="curve" smooth="yes"/>
      <point x="806" y="251"/>
      <point x="712" y="228"/>
      <point x="605" y="228" type="curve" smooth="yes"/>
    </contour>
  </outline>
</glyph>
<glyph name="Oslash" format="2">
  <advance width="1593"/>
  <unicode hex="00D8"/>
  <note>
Oslash
</note>
  <outline>
    <contour>
      <point x="1435" y="1227" type="curve"/>
      <point x="1658" y="1466" type="line"/>
      <point x="1455" y="1466" type="line"/>
      <point x="1324" y="1326" type="line"/>
      <point x="1218" y="1395"/>
      <point x="1086" y="1430"/>
      <point x="928" y="1430" type="curve"/>
      <point x="604" y="1430"/>
      <point x="346" y="1283"/>
      <point x="206" y="1012" type="curve" smooth="yes"/>
      <point x="135" y="876"/>
      <point x="100" y="730"/>
      <point x="100" y="573" type="curve" smooth="yes"/>
      <point x="100" y="408"/>
      <point x="147" y="272"/>
      <point x="240" y="167" type="curve"/>
      <point x="35" y="-53" type="line"/>
      <point x="242" y="-53" type="line"/>
      <point x="357" y="71" type="line"/>
      <point x="456" y="10"/>
      <point x="579" y="-20"/>
      <point x="727" y="-20" type="curve" smooth="yes"/>
      <point x="1051" y="-20"/>
      <point x="1313" y="129"/>
      <point x="1454" y="401" type="curve" smooth="yes"/>
      <point x="1524" y="536"/>
      <point x="1559" y="686"/>
      <point x="1559" y="851" type="curve" smooth="yes"/>
      <point x="1559" y="1003"/>
      <point x="1518" y="1128"/>
    </contour>
    <contour>
      <point x="914" y="1197" type="curve"/>
      <point x="1005" y="1197"/>
      <point x="1080" y="1174"/>
      <point x="1138" y="1127" type="curve"/>
      <point x="439" y="379" type="line"/>
      <point x="413" y="433"/>
      <point x="400" y="500"/>
      <point x="400" y="581" type="curve" smooth="yes"/>
      <point x="400" y="800"/>
      <point x="486" y="1022"/>
      <point x="638" y="1122" type="curve" smooth="yes"/>
      <point x="714" y="1172"/>
      <point x="806" y="1197"/>
    </contour>
    <contour>
      <point x="1255" y="827" type="curve"/>
      <point x="1255" y="602"/>
      <point x="1168" y="387"/>
      <point x="1016" y="287" type="curve" smooth="yes"/>
      <point x="940" y="237"/>
      <point x="848" y="212"/>
      <point x="741" y="212" type="curve" smooth="yes"/>
      <point x="658" y="212"/>
      <point x="591" y="229"/>
      <point x="538" y="264" type="curve"/>
      <point x="1226" y="1002" type="line"/>
      <point x="1245" y="952"/>
      <point x="1255" y="894"/>
    </contour>
  </outline>
</glyph>
<glyph name="germandbls" format="2">
  <advance width="1251"/>
  <unicode hex="00DF"/>
  <note>
germandbls
</note>
  <outline>
    <contour>
      <point x="1152" y="345" type="curve" smooth="yes"/>
      <point x="1152" y="453"/>
      <point x="1110" y="538"/>
      <point x="1026" y="601" type="curve" smooth="yes"/>
      <point x="994" y="625"/>
      <point x="969" y="644"/>
      <point x="950" y="662" type="curve" smooth="yes"/>
      <point x="913" y="697"/>
      <point x="900" y="724"/>
      <point x="900" y="759" type="curve" smooth="yes"/>
      <point x="900" y="784"/>
      <point x="910" y="807"/>
      <point x="929" y="828" type="curve" smooth="yes"/>
      <point x="948" y="849"/>
      <point x="987" y="881"/>
      <point x="1044" y="924" type="curve" smooth="yes"/>
      <point x="1139" y="995"/>
      <point x="1187" y="1086"/>
      <point x="1187" y="1196" type="curve" smooth="yes"/>
      <point x="1187" y="1375"/>
      <point x="1038" y="1484"/>
      <point x="797" y="1484" type="curve" smooth="yes"/>
      <point x="484" y="1484"/>
      <point x="302" y="1343"/>
      <point x="235" y="1027" type="curve" smooth="yes"/>
      <point x="35" y="0" type="line"/>
      <point x="316" y="0" type="line"/>
      <point x="513" y="1021" type="line" smooth="yes"/>
      <point x="548" y="1197"/>
      <point x="633" y="1281"/>
      <point x="788" y="1281" type="curve" smooth="yes"/>
      <point x="881" y="1281"/>
      <point x="931" y="1239"/>
      <point x="931" y="1168" type="curve" smooth="yes"/>
      <point x="931" y="1091"/>
      <point x="889" y="1032"/>
      <point x="785" y="953" type="curve" smooth="yes"/>
      <point x="681" y="876"/>
      <point x="638" y="809"/>
      <point x="638" y="718" type="curve" smooth="yes"/>
      <point x="638" y="627"/>
      <point x="676" y="562"/>
      <point x="761" y="501" type="curve" smooth="yes"/>
      <point x="849" y="436"/>
      <point x="883" y="390"/>
      <point x="883" y="322" type="curve" smooth="yes"/>
      <point x="883" y="226"/>
      <point x="827" y="166"/>
      <point x="720" y="166" type="curve" smooth="yes"/>
      <point x="653" y="166"/>
      <point x="600" y="175"/>
      <point x="496" y="223" type="curve"/>
      <point x="428" y="37" type="line"/>
      <point x="507" y="-1"/>
      <point x="614" y="-20"/>
      <point x="749" y="-20" type="curve" smooth="yes"/>
      <point x="992" y="-20"/>
      <point x="1152" y="122"/>
    </contour>
  </outline>
</glyph>
<glyph name="ae" format="2">
  <advance width="1821"/>
  <unicode hex="00E6"/>
  <note>
ae
</note>
  <outline>
    <contour>
      <point x="1027" y="476" type="curve"/>
      <point x="1727" y="476" type="line"/>
      <point x="1743" y="553"/>
      <point x="1751" y="625"/>
      <point x="1751" y="691" type="curve" smooth="yes"/>
      <point x="1751" y="952"/>
      <point x="1594" y="1102"/>
      <point x="1315" y="1102" type="curve" smooth="yes"/>
      <point x="1180" y="1102"/>
      <point x="1066" y="1064"/>
      <point x="973" y="989" type="curve"/>
      <point x="911" y="1064"/>
      <point x="811" y="1102"/>
      <point x="673" y="1102" type="curve" smooth="yes"/>
      <point x="409" y="1102"/>
      <point x="247" y="1000"/>
      <point x="202" y="808" type="curve"/>
      <point x="465" y="777" type="line"/>
      <point x="488" y="869"/>
      <point x="543" y="919"/>
      <point x="668" y="919" type="curve" smooth="yes"/>
      <point x="753" y="919"/>
      <point x="795" y="876"/>
      <point x="795" y="791" type="curve" smooth="yes"/>
      <point x="795" y="767"/>
      <point x="788" y="723"/>
      <point x="774" y="660" type="curve"/>
      <point x="583" y="660" type="line" smooth="yes"/>
      <point x="222" y="660"/>
      <point x="42" y="533"/>
      <point x="42" y="278" type="curve" smooth="yes"/>
      <point x="42" y="178"/>
      <point x="81" y="95"/>
      <point x="150" y="42" type="curve" smooth="yes"/>
      <point x="201" y="3"/>
      <point x="269" y="-20"/>
      <point x="349" y="-20" type="curve" smooth="yes"/>
      <point x="508" y="-20"/>
      <point x="594" y="8"/>
      <point x="678" y="72" type="curve" smooth="yes"/>
      <point x="719" y="103"/>
      <point x="757" y="146"/>
      <point x="791" y="199" type="curve"/>
      <point x="856" y="53"/>
      <point x="987" y="-20"/>
      <point x="1185" y="-20" type="curve" smooth="yes"/>
      <point x="1425" y="-20"/>
      <point x="1562" y="51"/>
      <point x="1662" y="263" type="curve"/>
      <point x="1417" y="337" type="line"/>
      <point x="1373" y="224"/>
      <point x="1302" y="168"/>
      <point x="1204" y="168" type="curve" smooth="yes"/>
      <point x="1083" y="168"/>
      <point x="1020" y="246"/>
      <point x="1020" y="387" type="curve" smooth="yes"/>
      <point x="1020" y="421"/>
      <point x="1022" y="451"/>
    </contour>
    <contour>
      <point x="1060" y="663" type="line"/>
      <point x="1097" y="834"/>
      <point x="1187" y="924"/>
      <point x="1315" y="924" type="curve" smooth="yes"/>
      <point x="1422" y="924"/>
      <point x="1494" y="862"/>
      <point x="1494" y="719" type="curve"/>
      <point x="1491" y="663" type="line"/>
    </contour>
    <contour>
      <point x="341" y="325" type="curve" smooth="yes"/>
      <point x="341" y="387"/>
      <point x="369" y="435"/>
      <point x="421" y="464" type="curve" smooth="yes"/>
      <point x="461" y="488"/>
      <point x="516" y="500"/>
      <point x="582" y="500" type="curve" smooth="yes"/>
      <point x="743" y="500" type="line"/>
      <point x="721" y="411" type="line" smooth="yes"/>
      <point x="700" y="329"/>
      <point x="658" y="264"/>
      <point x="605" y="223" type="curve" smooth="yes"/>
      <point x="566" y="193"/>
      <point x="522" y="176"/>
      <point x="475" y="176" type="curve" smooth="yes"/>
      <point x="388" y="176"/>
      <point x="341" y="229"/>
    </contour>
  </outline>
</glyph>
<glyph name="eth" format="2">
  <advance width="1251"/>
  <unicode hex="00F0"/>
  <note>
eth
</note>
  <outline>
    <contour>
      <point x="661" y="1305" type="curve"/>
      <point x="512" y="1248" type="line"/>
      <point x="479" y="1069" type="line"/>
      <point x="756" y="1180" type="line"/>
      <point x="818" y="1097"/>
      <point x="860" y="1009"/>
      <point x="881" y="916" type="curve"/>
      <point x="832" y="951"/>
      <point x="730" y="979"/>
      <point x="649" y="979" type="curve" smooth="yes"/>
      <point x="427" y="979"/>
      <point x="255" y="895"/>
      <point x="156" y="751" type="curve" smooth="yes"/>
      <point x="92" y="660"/>
      <point x="58" y="544"/>
      <point x="58" y="410" type="curve" smooth="yes"/>
      <point x="58" y="145"/>
      <point x="235" y="-20"/>
      <point x="527" y="-20" type="curve" smooth="yes"/>
      <point x="812" y="-20"/>
      <point x="1016" y="117"/>
      <point x="1111" y="364" type="curve" smooth="yes"/>
      <point x="1151" y="467"/>
      <point x="1172" y="589"/>
      <point x="1172" y="728" type="curve" smooth="yes"/>
      <point x="1172" y="943"/>
      <point x="1118" y="1105"/>
      <point x="991" y="1269" type="curve"/>
      <point x="1136" y="1323" type="line"/>
      <point x="1168" y="1499" type="line"/>
      <point x="873" y="1390" type="line"/>
      <point x="827" y="1427"/>
      <point x="780" y="1459"/>
      <point x="732" y="1484" type="curve"/>
      <point x="439" y="1484" type="line"/>
      <point x="504" y="1445"/>
      <point x="578" y="1386"/>
    </contour>
    <contour>
      <point x="658" y="787" type="curve"/>
      <point x="746" y="787"/>
      <point x="807" y="760"/>
      <point x="839" y="711" type="curve" smooth="yes"/>
      <point x="858" y="683"/>
      <point x="868" y="647"/>
      <point x="868" y="606" type="curve" smooth="yes"/>
      <point x="868" y="449"/>
      <point x="811" y="306"/>
      <point x="715" y="230" type="curve" smooth="yes"/>
      <point x="666" y="191"/>
      <point x="613" y="172"/>
      <point x="555" y="172" type="curve" smooth="yes"/>
      <point x="431" y="172"/>
      <point x="352" y="259"/>
      <point x="352" y="395" type="curve" smooth="yes"/>
      <point x="352" y="548"/>
      <point x="404" y="669"/>
      <point x="491" y="734" type="curve" smooth="yes"/>
      <point x="538" y="768"/>
      <point x="594" y="787"/>
    </contour>
  </outline>
</glyph>
<glyph name="divide" format="2">
  <advance width="1124"/>
  <unicode hex="00F7"/>
  <note>
divide
</note>
  <outline>
    <contour>
      <point x="700" y="1194" type="line"/>
      <point x="462" y="1194" type="line"/>
      <point x="462" y="961" type="line"/>
      <point x="700" y="961" type="line"/>
    </contour>
    <contour>
      <point x="1096" y="793" type="line"/>
      <point x="69" y="793" type="line"/>
      <point x="69" y="569" type="line"/>
      <point x="1096" y="569" type="line"/>
    </contour>
    <contour>
      <point x="700" y="403" type="line"/>
      <point x="462" y="403" type="line"/>
      <point x="462" y="170" type="line"/>
      <point x="700" y="170" type="line"/>
    </contour>
  </outline>
</glyph>
<glyph name="oslash" format="2">
  <advance width="1251"/>
  <unicode hex="00F8"/>
  <note>
oslash
</note>
  <outline>
    <contour>
      <point x="173" y="114" type="curve"/>
      <point x="42" y="-38" type="line"/>
      <point x="233" y="-38" type="line"/>
      <point x="291" y="29" type="line"/>
      <point x="362" y="-4"/>
      <point x="443" y="-20"/>
      <point x="535" y="-20" type="curve" smooth="yes"/>
      <point x="786" y="-20"/>
      <point x="995" y="100"/>
      <point x="1104" y="315" type="curve" smooth="yes"/>
      <point x="1158" y="422"/>
      <point x="1185" y="545"/>
      <point x="1185" y="683" type="curve" smooth="yes"/>
      <point x="1185" y="798"/>
      <point x="1154" y="890"/>
      <point x="1092" y="960" type="curve"/>
      <point x="1226" y="1116" type="line"/>
      <point x="1037" y="1116" type="line"/>
      <point x="977" y="1047" type="line"/>
      <point x="901" y="1083"/>
      <point x="810" y="1101"/>
      <point x="704" y="1101" type="curve" smooth="yes"/>
      <point x="453" y="1101"/>
      <point x="249" y="982"/>
      <point x="143" y="775" type="curve" smooth="yes"/>
      <point x="90" y="672"/>
      <point x="63" y="553"/>
      <point x="63" y="419" type="curve" smooth="yes"/>
      <point x="63" y="292"/>
      <point x="100" y="190"/>
    </contour>
    <contour>
      <point x="358" y="431" type="curve"/>
      <point x="358" y="582"/>
      <point x="412" y="769"/>
      <point x="502" y="849" type="curve" smooth="yes"/>
      <point x="547" y="889"/>
      <point x="607" y="909"/>
      <point x="683" y="909" type="curve" smooth="yes"/>
      <point x="742" y="909"/>
      <point x="788" y="894"/>
      <point x="821" y="865" type="curve"/>
      <point x="366" y="338" type="line"/>
      <point x="361" y="367"/>
      <point x="358" y="398"/>
    </contour>
    <contour>
      <point x="891" y="662" type="curve"/>
      <point x="882" y="466"/>
      <point x="831" y="304"/>
      <point x="744" y="229" type="curve" smooth="yes"/>
      <point x="700" y="191"/>
      <point x="641" y="172"/>
      <point x="566" y="172" type="curve" smooth="yes"/>
      <point x="517" y="172"/>
      <point x="476" y="183"/>
      <point x="443" y="206" type="curve"/>
      <point x="887" y="722" type="line"/>
      <point x="890" y="703"/>
      <point x="891" y="683"/>
    </contour>
  </outline>
</glyph>
<glyph name="thorn" format="2">
  <advance width="1251"/>
  <unicode hex="00FE"/>
  <note>
thorn
</note>
  <outline>
    <contour>
      <point x="662" y="-20" type="curve" smooth="yes"/>
      <point x="894" y="-20"/>
      <point x="1040" y="99"/>
      <point x="1123" y="355" type="curve" smooth="yes"/>
      <point x="1164" y="482"/>
      <point x="1185" y="613"/>
      <point x="1185" y="748" type="curve" smooth="yes"/>
      <point x="1185" y="968"/>
      <point x="1060" y="1102"/>
      <point x="848" y="1102" type="curve" smooth="yes"/>
      <point x="691" y="1102"/>
      <point x="589" y="1046"/>
      <point x="493" y="913" type="curve"/>
      <point x="487" y="913" type="line"/>
      <point x="498" y="948"/>
      <point x="509" y="996"/>
      <point x="521" y="1057" type="curve" smooth="yes"/>
      <point x="604" y="1484" type="line"/>
      <point x="323" y="1484" type="line"/>
      <point x="-46" y="-425" type="line"/>
      <point x="234" y="-425" type="line"/>
      <point x="315" y="-10" type="line" smooth="yes"/>
      <point x="321" y="23"/>
      <point x="327" y="55"/>
      <point x="333" y="88" type="curve" smooth="yes"/>
      <point x="338" y="118"/>
      <point x="342" y="148"/>
      <point x="347" y="178" type="curve"/>
      <point x="349" y="178" type="line"/>
      <point x="392" y="53"/>
      <point x="495" y="-20"/>
    </contour>
    <contour>
      <point x="728" y="907" type="curve"/>
      <point x="840" y="907"/>
      <point x="889" y="835"/>
      <point x="889" y="694" type="curve" smooth="yes"/>
      <point x="889" y="549"/>
      <point x="841" y="322"/>
      <point x="762" y="237" type="curve" smooth="yes"/>
      <point x="723" y="194"/>
      <point x="669" y="173"/>
      <point x="601" y="173" type="curve" smooth="yes"/>
      <point x="474" y="173"/>
      <point x="400" y="258"/>
      <point x="400" y="401" type="curve" smooth="yes"/>
      <point x="400" y="441"/>
      <point x="406" y="492"/>
      <point x="417" y="554" type="curve" smooth="yes"/>
      <point x="436" y="652"/>
      <point x="464" y="730"/>
      <point x="502" y="787" type="curve" smooth="yes"/>
      <point x="556" y="867"/>
      <point x="630" y="907"/>
    </contour>
  </outline>
</glyph>
<glyph name="dcroat" format="2">
  <advance width="1251"/>
  <unicode hex="0111"/>
  <note>
dcroat
</note>
  <outline>
    <contour>
      <point x="392" y="-21" type="curve" smooth="yes"/>
      <point x="553" y="-21"/>
      <point x="654" y="36"/>
      <point x="749" y="160" type="curve"/>
      <point x="753" y="160" type="line"/>
      <point x="743" y="95"/>
      <point x="738" y="42"/>
      <point x="738" y="0" type="curve"/>
      <point x="1019" y="0" type="line"/>
      <point x="1025" y="79"/>
      <point x="1035" y="156"/>
      <point x="1048" y="231" type="curve" smooth="yes"/>
      <point x="1227" y="1175" type="line"/>
      <point x="1358" y="1175" type="line"/>
      <point x="1391" y="1345" type="line"/>
      <point x="1259" y="1345" type="line"/>
      <point x="1286" y="1484" type="line"/>
      <point x="1009" y="1484" type="line"/>
      <point x="981" y="1345" type="line"/>
      <point x="691" y="1345" type="line"/>
      <point x="658" y="1175" type="line"/>
      <point x="947" y="1175" type="line"/>
      <point x="922" y="1053" type="line" smooth="yes"/>
      <point x="903" y="961"/>
      <point x="896" y="900"/>
      <point x="893" y="871" type="curve"/>
      <point x="887" y="871" type="line"/>
      <point x="848" y="995"/>
      <point x="740" y="1061"/>
      <point x="571" y="1061" type="curve" smooth="yes"/>
      <point x="360" y="1061"/>
      <point x="205" y="934"/>
      <point x="121" y="699" type="curve" smooth="yes"/>
      <point x="79" y="581"/>
      <point x="58" y="461"/>
      <point x="58" y="340" type="curve" smooth="yes"/>
      <point x="58" y="120"/>
      <point x="187" y="-21"/>
    </contour>
    <contour>
      <point x="515" y="172" type="curve" smooth="yes"/>
      <point x="408" y="172"/>
      <point x="355" y="242"/>
      <point x="355" y="382" type="curve" smooth="yes"/>
      <point x="355" y="525"/>
      <point x="402" y="724"/>
      <point x="487" y="810" type="curve" smooth="yes"/>
      <point x="530" y="853"/>
      <point x="583" y="874"/>
      <point x="648" y="874" type="curve" smooth="yes"/>
      <point x="773" y="874"/>
      <point x="836" y="809"/>
      <point x="836" y="656" type="curve" smooth="yes"/>
      <point x="836" y="513"/>
      <point x="782" y="318"/>
      <point x="690" y="235" type="curve" smooth="yes"/>
      <point x="644" y="193"/>
      <point x="586" y="172"/>
    </contour>
  </outline>
</glyph>
<glyph name="Hbar" format="2">
  <advance width="1479"/>
  <unicode hex="0126"/>
  <note>
Hbar
</note>
  <outline>
    <contour>
      <point x="448" y="604" type="line"/>
      <point x="1074" y="604" type="line"/>
      <point x="956" y="0" type="line"/>
      <point x="1240" y="0" type="line"/>
      <point x="1443" y="1045" type="line"/>
      <point x="1566" y="1045" type="line"/>
      <point x="1599" y="1215" type="line"/>
      <point x="1476" y="1215" type="line"/>
      <point x="1514" y="1409" type="line"/>
      <point x="1230" y="1409" type="line"/>
      <point x="1192" y="1215" type="line"/>
      <point x="566" y="1215" type="line"/>
      <point x="604" y="1409" type="line"/>
      <point x="309" y="1409" type="line"/>
      <point x="271" y="1215" type="line"/>
      <point x="148" y="1215" type="line"/>
      <point x="115" y="1045" type="line"/>
      <point x="238" y="1045" type="line"/>
      <point x="36" y="0" type="line"/>
      <point x="330" y="0" type="line"/>
    </contour>
    <contour>
      <point x="495" y="848" type="line"/>
      <point x="533" y="1045" type="line"/>
      <point x="1159" y="1045" type="line"/>
      <point x="1121" y="848" type="line"/>
    </contour>
  </outline>
</glyph>
<glyph name="dotlessi" format="2">
  <advance width="569"/>
  <unicode hex="0131"/>
  <note>
dotlessi
</note>
  <outline>
    <contour>
      <point x="526" y="1082" type="line"/>
      <point x="245" y="1082" type="line"/>
      <point x="35" y="0" type="line"/>
      <point x="315" y="0" type="line"/>
    </contour>
  </outline>
</glyph>
<glyph name="jcircumflex" format="2">
  <advance width="569"/>
  <unicode hex="0135"/>
  <note>
jcircumflex
</note>
  <outline>
    <contour>
      <point x="430" y="1375" type="line"/>
      <point x="434" y="1375" type="line"/>
      <point x="600" y="1183" type="line"/>
      <point x="750" y="1183" type="line"/>
      <point x="755" y="1211" type="line"/>
      <point x="567" y="1529" type="line"/>
      <point x="338" y="1529" type="line"/>
      <point x="18" y="1211" type="line"/>
      <point x="13" y="1183" type="line"/>
      <point x="182" y="1183" type="line"/>
    </contour>
    <contour>
      <point x="-54" y="-425" type="curve"/>
      <point x="133" y="-425"/>
      <point x="251" y="-320"/>
      <point x="290" y="-128" type="curve" smooth="yes"/>
      <point x="526" y="1082" type="line"/>
      <point x="245" y="1082" type="line"/>
      <point x="22" y="-60" type="line" smooth="yes"/>
      <point x="-2" y="-184"/>
      <point x="-37" y="-222"/>
      <point x="-126" y="-222" type="curve"/>
      <point x="-145" y="-221"/>
      <point x="-165" y="-219"/>
      <point x="-184" y="-218" type="curve"/>
      <point x="-220" y="-406" type="line"/>
      <point x="-173" y="-419"/>
      <point x="-117" y="-425"/>
    </contour>
  </outline>
</glyph>
<glyph name="kgreenlandic" format="2">
  <advance width="1139"/>
  <unicode hex="0138"/>
  <note>
kgreenlandic
</note>
  <outline>
    <contour>
      <point x="400" y="422" type="line"/>
      <point x="540" y="497" type="line"/>
      <point x="728" y="0" type="line"/>
      <point x="1026" y="0" type="line"/>
      <point x="751" y="660" type="line"/>
      <point x="1224" y="1082" type="line"/>
      <point x="902" y="1082" type="line"/>
      <point x="595" y="786" type="line"/>
      <point x="438" y="634" type="line"/>
      <point x="526" y="1082" type="line"/>
      <point x="245" y="1082" type="line"/>
      <point x="35" y="0" type="line"/>
      <point x="315" y="0" type="line"/>
    </contour>
  </outline>
</glyph>
<glyph name="Lslash" format="2">
  <advance width="1251"/>
  <unicode hex="0141"/>
  <note>
Lslash
</note>
  <outline>
    <contour>
      <point x="375" y="228" type="line"/>
      <point x="452" y="625" type="line"/>
      <point x="788" y="774" type="line"/>
      <point x="831" y="997" type="line"/>
      <point x="495" y="848" type="line"/>
      <point x="604" y="1409" type="line"/>
      <point x="309" y="1409" type="line"/>
      <point x="173" y="708" type="line"/>
      <point x="25" y="643" type="line"/>
      <point x="-19" y="418" type="line"/>
      <point x="129" y="482" type="line"/>
      <point x="36" y="0" type="line"/>
      <point x="1086" y="0" type="line"/>
      <point x="1131" y="228" type="line"/>
    </contour>
  </outline>
</glyph>
<glyph name="lslash" format="2">
  <advance width="569"/>
  <unicode hex="0142"/>
  <note>
lslash
</note>
  <outline>
    <contour>
      <point x="455" y="717" type="line"/>
      <point x="598" y="793" type="line"/>
      <point x="640" y="1006" type="line"/>
      <point x="496" y="932" type="line"/>
      <point x="604" y="1484" type="line"/>
      <point x="323" y="1484" type="line"/>
      <point x="185" y="776" type="line"/>
      <point x="47" y="707" type="line"/>
      <point x="6" y="492" type="line"/>
      <point x="143" y="561" type="line"/>
      <point x="35" y="0" type="line"/>
      <point x="315" y="0" type="line"/>
    </contour>
  </outline>
</glyph>
<glyph name="Eng" format="2">
  <advance width="1481"/>
  <unicode hex="014A"/>
  <note>
Eng
</note>
  <outline>
    <contour>
      <point x="844" y="-20" type="curve"/>
      <point x="1049" y="-20"/>
      <point x="1181" y="42"/>
      <point x="1262" y="191" type="curve" smooth="yes"/>
      <point x="1303" y="265"/>
      <point x="1338" y="382"/>
      <point x="1369" y="542" type="curve" smooth="yes"/>
      <point x="1436" y="888" type="line" smooth="yes"/>
      <point x="1449" y="959"/>
      <point x="1456" y="1018"/>
      <point x="1456" y="1065" type="curve" smooth="yes"/>
      <point x="1456" y="1308"/>
      <point x="1323" y="1429"/>
      <point x="1057" y="1429" type="curve" smooth="yes"/>
      <point x="857" y="1429"/>
      <point x="683" y="1335"/>
      <point x="556" y="1158" type="curve"/>
      <point x="552" y="1158" type="line"/>
      <point x="574" y="1281"/>
      <point x="588" y="1364"/>
      <point x="594" y="1409" type="curve"/>
      <point x="304" y="1409" type="line"/>
      <point x="247" y="1092" type="line"/>
      <point x="36" y="0" type="line"/>
      <point x="330" y="0" type="line"/>
      <point x="504" y="891" type="line" smooth="yes"/>
      <point x="525" y="999"/>
      <point x="618" y="1104"/>
      <point x="742" y="1159" type="curve" smooth="yes"/>
      <point x="804" y="1186"/>
      <point x="867" y="1200"/>
      <point x="931" y="1200" type="curve" smooth="yes"/>
      <point x="1091" y="1200"/>
      <point x="1168" y="1133"/>
      <point x="1168" y="1018" type="curve" smooth="yes"/>
      <point x="1168" y="979"/>
      <point x="1160" y="920"/>
      <point x="1143" y="841" type="curve" smooth="yes"/>
      <point x="1087" y="553" type="line" smooth="yes"/>
      <point x="1060" y="416"/>
      <point x="1032" y="325"/>
      <point x="1003" y="280" type="curve" smooth="yes"/>
      <point x="973" y="235"/>
      <point x="930" y="212"/>
      <point x="874" y="212" type="curve" smooth="yes"/>
      <point x="806" y="212"/>
      <point x="756" y="248"/>
      <point x="708" y="331" type="curve"/>
      <point x="461" y="214" type="line"/>
      <point x="538" y="58"/>
      <point x="665" y="-20"/>
    </contour>
  </outline>
</glyph>
<glyph name="eng" format="2">
  <advance width="1251"/>
  <unicode hex="014B"/>
  <note>
eng
</note>
  <outline>
    <contour>
      <point x="649" y="-425" type="curve"/>
      <point x="841" y="-425"/>
      <point x="960" y="-312"/>
      <point x="993" y="-128" type="curve" smooth="yes"/>
      <point x="1144" y="653" type="line" smooth="yes"/>
      <point x="1153" y="693"/>
      <point x="1165" y="784"/>
      <point x="1165" y="817" type="curve" smooth="yes"/>
      <point x="1165" y="1001"/>
      <point x="1062" y="1101"/>
      <point x="859" y="1101" type="curve" smooth="yes"/>
      <point x="703" y="1101"/>
      <point x="586" y="1036"/>
      <point x="486" y="897" type="curve"/>
      <point x="483" y="897" type="line"/>
      <point x="490" y="930"/>
      <point x="507" y="1058"/>
      <point x="507" y="1082" type="curve"/>
      <point x="239" y="1082" type="line"/>
      <point x="224" y="981"/>
      <point x="212" y="904"/>
      <point x="201" y="851" type="curve" smooth="yes"/>
      <point x="35" y="0" type="line"/>
      <point x="317" y="0" type="line"/>
      <point x="435" y="606" type="line" smooth="yes"/>
      <point x="464" y="765"/>
      <point x="595" y="889"/>
      <point x="730" y="889" type="curve" smooth="yes"/>
      <point x="831" y="889"/>
      <point x="882" y="846"/>
      <point x="882" y="760" type="curve" smooth="yes"/>
      <point x="882" y="733"/>
      <point x="873" y="678"/>
      <point x="856" y="595" type="curve" smooth="yes"/>
      <point x="725" y="-60" type="line" smooth="yes"/>
      <point x="701" y="-181"/>
      <point x="666" y="-222"/>
      <point x="577" y="-222" type="curve"/>
      <point x="558" y="-221"/>
      <point x="538" y="-219"/>
      <point x="519" y="-218" type="curve"/>
      <point x="483" y="-406" type="line"/>
      <point x="530" y="-419"/>
      <point x="586" y="-425"/>
    </contour>
  </outline>
</glyph>
<glyph name="OE" format="2">
  <advance width="2048"/>
  <unicode hex="0152"/>
  <note>
OE
</note>
  <outline>
    <contour>
      <point x="917" y="0" type="curve"/>
      <point x="1866" y="0" type="line"/>
      <point x="1911" y="231" type="line"/>
      <point x="1203" y="231" type="line"/>
      <point x="1276" y="606" type="line"/>
      <point x="1882" y="606" type="line"/>
      <point x="1925" y="827" type="line"/>
      <point x="1319" y="827" type="line"/>
      <point x="1388" y="1182" type="line"/>
      <point x="2055" y="1182" type="line"/>
      <point x="2099" y="1409" type="line"/>
      <point x="1150" y="1409" type="line"/>
      <point x="1087" y="1415" type="line" smooth="yes"/>
      <point x="1048" y="1418"/>
      <point x="1002" y="1420"/>
      <point x="949" y="1420" type="curve" smooth="yes"/>
      <point x="704" y="1420"/>
      <point x="487" y="1335"/>
      <point x="335" y="1177" type="curve" smooth="yes"/>
      <point x="182" y="1019"/>
      <point x="103" y="800"/>
      <point x="103" y="573" type="curve" smooth="yes"/>
      <point x="103" y="202"/>
      <point x="325" y="-10"/>
      <point x="706" y="-10" type="curve" smooth="yes"/>
      <point x="805" y="-10"/>
      <point x="875" y="-7"/>
    </contour>
    <contour>
      <point x="736" y="222" type="curve"/>
      <point x="521" y="222"/>
      <point x="403" y="344"/>
      <point x="403" y="563" type="curve" smooth="yes"/>
      <point x="403" y="732"/>
      <point x="454" y="907"/>
      <point x="547" y="1020" type="curve" smooth="yes"/>
      <point x="640" y="1133"/>
      <point x="770" y="1188"/>
      <point x="939" y="1188" type="curve" smooth="yes"/>
      <point x="967" y="1188"/>
      <point x="1048" y="1182"/>
      <point x="1089" y="1169" type="curve"/>
      <point x="909" y="242" type="line"/>
      <point x="862" y="229"/>
      <point x="804" y="222"/>
    </contour>
  </outline>
</glyph>
<glyph name="oe" format="2">
  <advance width="1933"/>
  <unicode hex="0153"/>
  <note>
oe
</note>
  <outline>
    <contour>
      <point x="1163" y="476" type="curve"/>
      <point x="1863" y="476" type="line"/>
      <point x="1879" y="553"/>
      <point x="1887" y="625"/>
      <point x="1887" y="691" type="curve" smooth="yes"/>
      <point x="1887" y="952"/>
      <point x="1730" y="1102"/>
      <point x="1451" y="1102" type="curve" smooth="yes"/>
      <point x="1297" y="1102"/>
      <point x="1169" y="1055"/>
      <point x="1068" y="960" type="curve"/>
      <point x="975" y="1059"/>
      <point x="866" y="1101"/>
      <point x="699" y="1101" type="curve" smooth="yes"/>
      <point x="448" y="1101"/>
      <point x="244" y="982"/>
      <point x="138" y="775" type="curve" smooth="yes"/>
      <point x="85" y="672"/>
      <point x="58" y="553"/>
      <point x="58" y="419" type="curve" smooth="yes"/>
      <point x="58" y="147"/>
      <point x="239" y="-20"/>
      <point x="530" y="-20" type="curve" smooth="yes"/>
      <point x="714" y="-20"/>
      <point x="864" y="32"/>
      <point x="955" y="132" type="curve"/>
      <point x="1034" y="31"/>
      <point x="1156" y="-20"/>
      <point x="1321" y="-20" type="curve" smooth="yes"/>
      <point x="1561" y="-20"/>
      <point x="1698" y="51"/>
      <point x="1798" y="263" type="curve"/>
      <point x="1553" y="337" type="line"/>
      <point x="1509" y="224"/>
      <point x="1438" y="168"/>
      <point x="1340" y="168" type="curve" smooth="yes"/>
      <point x="1219" y="168"/>
      <point x="1156" y="246"/>
      <point x="1156" y="387" type="curve" smooth="yes"/>
      <point x="1156" y="421"/>
      <point x="1158" y="451"/>
    </contour>
    <contour>
      <point x="886" y="662" type="curve"/>
      <point x="878" y="477"/>
      <point x="828" y="309"/>
      <point x="741" y="231" type="curve" smooth="yes"/>
      <point x="698" y="192"/>
      <point x="638" y="172"/>
      <point x="562" y="172" type="curve" smooth="yes"/>
      <point x="422" y="172"/>
      <point x="353" y="266"/>
      <point x="353" y="431" type="curve" smooth="yes"/>
      <point x="353" y="582"/>
      <point x="407" y="769"/>
      <point x="497" y="849" type="curve" smooth="yes"/>
      <point x="542" y="889"/>
      <point x="602" y="909"/>
      <point x="678" y="909" type="curve" smooth="yes"/>
      <point x="817" y="909"/>
      <point x="886" y="827"/>
    </contour>
    <contour>
      <point x="1196" y="663" type="line"/>
      <point x="1233" y="834"/>
      <point x="1323" y="924"/>
      <point x="1451" y="924" type="curve" smooth="yes"/>
      <point x="1558" y="924"/>
      <point x="1630" y="862"/>
      <point x="1630" y="719" type="curve"/>
      <point x="1627" y="663" type="line"/>
    </contour>
  </outline>
</glyph>
<glyph name="Tbar" format="2">
  <advance width="1251"/>
  <unicode hex="0166"/>
  <note>
Tbar
</note>
  <outline>
    <contour>
      <point x="787" y="626" type="line"/>
      <point x="1015" y="626" type="line"/>
      <point x="1052" y="816" type="line"/>
      <point x="824" y="816" type="line"/>
      <point x="895" y="1181" type="line"/>
      <point x="1351" y="1181" type="line"/>
      <point x="1395" y="1409" type="line"/>
      <point x="189" y="1409" type="line"/>
      <point x="145" y="1181" type="line"/>
      <point x="600" y="1181" type="line"/>
      <point x="529" y="816" type="line"/>
      <point x="302" y="816" type="line"/>
      <point x="265" y="626" type="line"/>
      <point x="492" y="626" type="line"/>
      <point x="370" y="0" type="line"/>
      <point x="665" y="0" type="line"/>
    </contour>
  </outline>
</glyph>
<glyph name="tbar" format="2">
  <advance width="682"/>
  <unicode hex="0167"/>
  <note>
tbar
</note>
  <outline>
    <contour>
      <point x="397" y="268" type="curve" smooth="yes"/>
      <point x="397" y="290"/>
      <point x="401" y="320"/>
      <point x="408" y="357" type="curve" smooth="yes"/>
      <point x="430" y="473" type="line"/>
      <point x="615" y="473" type="line"/>
      <point x="652" y="663" type="line"/>
      <point x="467" y="663" type="line"/>
      <point x="512" y="892" type="line"/>
      <point x="717" y="892" type="line"/>
      <point x="752" y="1082" type="line"/>
      <point x="550" y="1082" type="line"/>
      <point x="598" y="1336" type="line"/>
      <point x="422" y="1336" type="line"/>
      <point x="285" y="1082" type="line"/>
      <point x="123" y="1082" type="line"/>
      <point x="86" y="892" type="line"/>
      <point x="234" y="892" type="line"/>
      <point x="189" y="663" type="line"/>
      <point x="62" y="663" type="line"/>
      <point x="26" y="473" type="line"/>
      <point x="152" y="473" type="line"/>
      <point x="132" y="366" type="line" smooth="yes"/>
      <point x="121" y="309"/>
      <point x="116" y="256"/>
      <point x="116" y="209" type="curve" smooth="yes"/>
      <point x="116" y="65"/>
      <point x="211" y="-16"/>
      <point x="376" y="-16" type="curve" smooth="yes"/>
      <point x="445" y="-16"/>
      <point x="506" y="-8"/>
      <point x="560" y="8" type="curve"/>
      <point x="592" y="190" type="line"/>
      <point x="541" y="181"/>
      <point x="505" y="177"/>
      <point x="484" y="177" type="curve" smooth="yes"/>
      <point x="431" y="177"/>
      <point x="397" y="207"/>
    </contour>
  </outline>
</glyph>
<glyph name="longs" format="2">
  <advance width="569"/>
  <unicode hex="017F"/>
  <note>
longs
</note>
  <outline>
    <contour>
      <point x="35" y="0" type="line"/>
      <point x="315" y="0" type="line"/>
      <point x="542" y="1167" type="line" smooth="yes"/>
      <point x="551" y="1211"/>
      <point x="564" y="1244"/>
      <point x="586" y="1265" type="curve" smooth="yes"/>
      <point x="608" y="1286"/>
      <point x="638" y="1296"/>
      <point x="682" y="1296" type="curve" smooth="yes"/>
      <point x="710" y="1296"/>
      <point x="763" y="1289"/>
      <point x="778" y="1286" type="curve"/>
      <point x="814" y="1467" type="line"/>
      <point x="759" y="1478"/>
      <point x="708" y="1484"/>
      <point x="659" y="1484" type="curve"/>
      <point x="430" y="1484"/>
      <point x="308" y="1402"/>
      <point x="268" y="1195" type="curve" smooth="yes"/>
    </contour>
  </outline>
</glyph>
<glyph name="uni0180" format="2">
  <advance width="1251"/>
  <unicode hex="0180"/>
  <note>
uni0180
</note>
  <outline>
    <contour>
      <point x="161" y="1345" type="line"/>
      <point x="128" y="1175" type="line"/>
      <point x="269" y="1175" type="line"/>
      <point x="84" y="223" type="line" smooth="yes"/>
      <point x="57" y="91"/>
      <point x="40" y="17"/>
      <point x="35" y="0" type="curve"/>
      <point x="306" y="0" type="line"/>
      <point x="316" y="39"/>
      <point x="340" y="117"/>
      <point x="354" y="178" type="curve"/>
      <point x="356" y="178" type="line"/>
      <point x="399" y="53"/>
      <point x="502" y="-20"/>
      <point x="669" y="-20" type="curve" smooth="yes"/>
      <point x="882" y="-20"/>
      <point x="1037" y="92"/>
      <point x="1122" y="318" type="curve" smooth="yes"/>
      <point x="1164" y="431"/>
      <point x="1185" y="561"/>
      <point x="1185" y="708" type="curve" smooth="yes"/>
      <point x="1185" y="928"/>
      <point x="1060" y="1062"/>
      <point x="848" y="1062" type="curve" smooth="yes"/>
      <point x="703" y="1062"/>
      <point x="576" y="998"/>
      <point x="492" y="873" type="curve"/>
      <point x="488" y="873" type="line"/>
      <point x="498" y="916"/>
      <point x="508" y="965"/>
      <point x="520" y="1020" type="curve" smooth="yes"/>
      <point x="551" y="1175" type="line"/>
      <point x="799" y="1175" type="line"/>
      <point x="827" y="1345" type="line"/>
      <point x="584" y="1345" type="line"/>
      <point x="611" y="1484" type="line"/>
      <point x="330" y="1484" type="line"/>
      <point x="303" y="1345" type="line"/>
    </contour>
    <contour>
      <point x="728" y="867" type="curve"/>
      <point x="837" y="867"/>
      <point x="892" y="802"/>
      <point x="892" y="654" type="curve" smooth="yes"/>
      <point x="892" y="479"/>
      <point x="855" y="343"/>
      <point x="788" y="261" type="curve" smooth="yes"/>
      <point x="742" y="204"/>
      <point x="681" y="173"/>
      <point x="608" y="173" type="curve" smooth="yes"/>
      <point x="481" y="173"/>
      <point x="407" y="258"/>
      <point x="407" y="401" type="curve" smooth="yes"/>
      <point x="407" y="504"/>
      <point x="438" y="660"/>
      <point x="490" y="745" type="curve" smooth="yes"/>
      <point x="541" y="829"/>
      <point x="603" y="867"/>
    </contour>
  </outline>
</glyph>
<glyph name="uni0181" format="2">
  <advance width="1630"/>
  <unicode hex="0181"/>
  <note>
uni0181
</note>
  <outline>
    <contour>
      <point x="1575" y="431" type="curve" smooth="yes"/>
      <point x="1575" y="590"/>
      <point x="1467" y="707"/>
      <point x="1286" y="738" type="curve"/>
      <point x="1498" y="782"/>
      <point x="1610" y="900"/>
      <point x="1610" y="1083" type="curve" smooth="yes"/>
      <point x="1610" y="1298"/>
      <point x="1436" y="1409"/>
      <point x="1101" y="1409" type="curve" smooth="yes"/>
      <point x="476" y="1409" type="line" smooth="yes"/>
      <point x="212" y="1409"/>
      <point x="89" y="1286"/>
      <point x="89" y="1021" type="curve" smooth="yes"/>
      <point x="89" y="988"/>
      <point x="91" y="959"/>
      <point x="94" y="934" type="curve"/>
      <point x="319" y="951" type="line"/>
      <point x="311" y="991"/>
      <point x="307" y="1023"/>
      <point x="307" y="1048" type="curve" smooth="yes"/>
      <point x="307" y="1143"/>
      <point x="359" y="1195"/>
      <point x="455" y="1195" type="curve" smooth="yes"/>
      <point x="475" y="1195" type="line"/>
      <point x="243" y="0" type="line"/>
      <point x="948" y="0" type="line" smooth="yes"/>
      <point x="1367" y="0"/>
      <point x="1575" y="150"/>
    </contour>
    <contour>
      <point x="701" y="841" type="line"/>
      <point x="768" y="1190" type="line"/>
      <point x="1069" y="1190" type="line" smooth="yes"/>
      <point x="1248" y="1190"/>
      <point x="1317" y="1145"/>
      <point x="1317" y="1038" type="curve" smooth="yes"/>
      <point x="1317" y="898"/>
      <point x="1228" y="841"/>
      <point x="995" y="841" type="curve" smooth="yes"/>
    </contour>
    <contour>
      <point x="580" y="219" type="line"/>
      <point x="659" y="623" type="line"/>
      <point x="989" y="623" type="line" smooth="yes"/>
      <point x="1194" y="623"/>
      <point x="1279" y="557"/>
      <point x="1279" y="437" type="curve" smooth="yes"/>
      <point x="1279" y="281"/>
      <point x="1187" y="219"/>
      <point x="908" y="219" type="curve" smooth="yes"/>
    </contour>
  </outline>
</glyph>
<glyph name="uni0182" format="2">
  <advance width="1450"/>
  <unicode hex="0182"/>
  <note>
uni0182
</note>
  <outline>
    <contour>
      <point x="309" y="1409" type="line"/>
      <point x="36" y="0" type="line"/>
      <point x="756" y="0" type="line" smooth="yes"/>
      <point x="1143" y="0"/>
      <point x="1370" y="167"/>
      <point x="1370" y="462" type="curve" smooth="yes"/>
      <point x="1370" y="701"/>
      <point x="1178" y="848"/>
      <point x="869" y="848" type="curve" smooth="yes"/>
      <point x="495" y="848" type="line"/>
      <point x="560" y="1182" type="line"/>
      <point x="1324" y="1182" type="line"/>
      <point x="1368" y="1409" type="line"/>
    </contour>
    <contour>
      <point x="375" y="230" type="line"/>
      <point x="451" y="621" type="line"/>
      <point x="805" y="621" type="line" smooth="yes"/>
      <point x="988" y="621"/>
      <point x="1066" y="560"/>
      <point x="1066" y="441" type="curve" smooth="yes"/>
      <point x="1066" y="306"/>
      <point x="959" y="230"/>
      <point x="766" y="230" type="curve" smooth="yes"/>
    </contour>
  </outline>
</glyph>
<glyph name="uni0183" format="2">
  <advance width="1251"/>
  <unicode hex="0183"/>
  <note>
uni0183
</note>
  <outline>
    <contour>
      <point x="855" y="1102" type="curve"/>
      <point x="710" y="1102"/>
      <point x="583" y="1038"/>
      <point x="499" y="913" type="curve"/>
      <point x="495" y="913" type="line"/>
      <point x="502" y="945"/>
      <point x="516" y="1012"/>
      <point x="537" y="1113" type="curve" smooth="yes"/>
      <point x="546" y="1159"/>
      <point x="557" y="1211"/>
      <point x="569" y="1271" type="curve"/>
      <point x="1075" y="1271" type="line"/>
      <point x="1111" y="1484" type="line"/>
      <point x="330" y="1484" type="line"/>
      <point x="60" y="108" type="line"/>
      <point x="47" y="47"/>
      <point x="39" y="11"/>
      <point x="35" y="0" type="curve"/>
      <point x="306" y="0" type="line"/>
      <point x="316" y="39"/>
      <point x="340" y="117"/>
      <point x="354" y="178" type="curve"/>
      <point x="357" y="178" type="line"/>
      <point x="400" y="53"/>
      <point x="502" y="-20"/>
      <point x="669" y="-20" type="curve" smooth="yes"/>
      <point x="901" y="-20"/>
      <point x="1047" y="99"/>
      <point x="1130" y="355" type="curve" smooth="yes"/>
      <point x="1171" y="482"/>
      <point x="1192" y="613"/>
      <point x="1192" y="748" type="curve" smooth="yes"/>
      <point x="1192" y="968"/>
      <point x="1067" y="1102"/>
    </contour>
    <contour>
      <point x="735" y="907" type="curve"/>
      <point x="859" y="907"/>
      <point x="899" y="834"/>
      <point x="899" y="694" type="curve" smooth="yes"/>
      <point x="899" y="565"/>
      <point x="842" y="319"/>
      <point x="766" y="236" type="curve" smooth="yes"/>
      <point x="728" y="194"/>
      <point x="675" y="173"/>
      <point x="608" y="173" type="curve" smooth="yes"/>
      <point x="481" y="173"/>
      <point x="407" y="258"/>
      <point x="407" y="401" type="curve" smooth="yes"/>
      <point x="407" y="506"/>
      <point x="441" y="670"/>
      <point x="496" y="766" type="curve" smooth="yes"/>
      <point x="551" y="861"/>
      <point x="627" y="907"/>
    </contour>
  </outline>
</glyph>
<glyph name="uni0185" format="2">
  <advance width="1251"/>
  <unicode hex="0185"/>
  <note>
uni0185
</note>
  <outline>
    <contour>
      <point x="855" y="1102" type="curve" smooth="yes"/>
      <point x="699" y="1102"/>
      <point x="576" y="1028"/>
      <point x="499" y="913" type="curve"/>
      <point x="495" y="913" type="line"/>
      <point x="496" y="917"/>
      <point x="510" y="980"/>
      <point x="515" y="1003" type="curve" smooth="yes"/>
      <point x="526" y="1054"/>
      <point x="542" y="1136"/>
      <point x="567" y="1261" type="curve" smooth="yes"/>
      <point x="579" y="1323"/>
      <point x="594" y="1397"/>
      <point x="611" y="1484" type="curve"/>
      <point x="539" y="1484" type="line"/>
      <point x="147" y="1325" type="line"/>
      <point x="142" y="1290" type="line"/>
      <point x="254" y="1097" type="line"/>
      <point x="84" y="223" type="line" smooth="yes"/>
      <point x="67" y="142"/>
      <point x="44" y="28"/>
      <point x="35" y="0" type="curve"/>
      <point x="306" y="0" type="line"/>
      <point x="316" y="39"/>
      <point x="340" y="117"/>
      <point x="354" y="178" type="curve"/>
      <point x="356" y="178" type="line"/>
      <point x="399" y="53"/>
      <point x="502" y="-20"/>
      <point x="669" y="-20" type="curve" smooth="yes"/>
      <point x="802" y="-20"/>
      <point x="909" y="19"/>
      <point x="993" y="106" type="curve" smooth="yes"/>
      <point x="1076" y="193"/>
      <point x="1134" y="327"/>
      <point x="1171" y="516" type="curve" smooth="yes"/>
      <point x="1186" y="593"/>
      <point x="1192" y="670"/>
      <point x="1192" y="748" type="curve" smooth="yes"/>
      <point x="1192" y="856"/>
      <point x="1161" y="945"/>
      <point x="1105" y="1006" type="curve" smooth="yes"/>
      <point x="1048" y="1067"/>
      <point x="963" y="1102"/>
    </contour>
    <contour>
      <point x="735" y="907" type="curve"/>
      <point x="859" y="907"/>
      <point x="899" y="834"/>
      <point x="899" y="694" type="curve" smooth="yes"/>
      <point x="899" y="643"/>
      <point x="892" y="584"/>
      <point x="877" y="516" type="curve" smooth="yes"/>
      <point x="849" y="380"/>
      <point x="816" y="294"/>
      <point x="773" y="243" type="curve" smooth="yes"/>
      <point x="729" y="191"/>
      <point x="676" y="173"/>
      <point x="608" y="173" type="curve" smooth="yes"/>
      <point x="483" y="173"/>
      <point x="407" y="257"/>
      <point x="407" y="401" type="curve" smooth="yes"/>
      <point x="407" y="445"/>
      <point x="413" y="495"/>
      <point x="424" y="554" type="curve" smooth="yes"/>
      <point x="451" y="691"/>
      <point x="494" y="781"/>
      <point x="547" y="834" type="curve" smooth="yes"/>
      <point x="600" y="887"/>
      <point x="664" y="907"/>
    </contour>
  </outline>
</glyph>
<glyph name="uni0186" format="2">
  <advance width="1479"/>
  <unicode hex="0186"/>
  <note>
uni0186
</note>
  <outline>
    <contour>
      <point x="121" y="1027" type="curve"/>
      <point x="359" y="930" type="line"/>
      <point x="465" y="1109"/>
      <point x="606" y="1198"/>
      <point x="782" y="1198" type="curve" smooth="yes"/>
      <point x="1006" y="1198"/>
      <point x="1141" y="1075"/>
      <point x="1141" y="860" type="curve" smooth="yes"/>
      <point x="1141" y="607"/>
      <point x="1059" y="402"/>
      <point x="909" y="294" type="curve" smooth="yes"/>
      <point x="834" y="239"/>
      <point x="745" y="212"/>
      <point x="644" y="212" type="curve" smooth="yes"/>
      <point x="467" y="212"/>
      <point x="336" y="303"/>
      <point x="311" y="443" type="curve"/>
      <point x="37" y="372" type="line"/>
      <point x="85" y="125"/>
      <point x="297" y="-20"/>
      <point x="605" y="-20" type="curve" smooth="yes"/>
      <point x="942" y="-20"/>
      <point x="1205" y="135"/>
      <point x="1342" y="408" type="curve" smooth="yes"/>
      <point x="1411" y="544"/>
      <point x="1445" y="698"/>
      <point x="1445" y="871" type="curve" smooth="yes"/>
      <point x="1445" y="1092"/>
      <point x="1345" y="1268"/>
      <point x="1158" y="1361" type="curve" smooth="yes"/>
      <point x="1065" y="1407"/>
      <point x="954" y="1430"/>
      <point x="827" y="1430" type="curve" smooth="yes"/>
      <point x="515" y="1430"/>
      <point x="289" y="1308"/>
    </contour>
  </outline>
</glyph>
<glyph name="uni0187" format="2">
  <advance width="1479"/>
  <unicode hex="0187"/>
  <note>
uni0187
</note>
  <outline>
    <contour>
      <point x="1376" y="352" type="curve"/>
      <point x="1149" y="469" type="line"/>
      <point x="1048" y="297"/>
      <point x="908" y="211"/>
      <point x="731" y="211" type="curve" smooth="yes"/>
      <point x="519" y="211"/>
      <point x="401" y="342"/>
      <point x="401" y="573" type="curve" smooth="yes"/>
      <point x="401" y="838"/>
      <point x="493" y="1034"/>
      <point x="655" y="1130" type="curve" smooth="yes"/>
      <point x="729" y="1175"/>
      <point x="817" y="1198"/>
      <point x="918" y="1198" type="curve" smooth="yes"/>
      <point x="1074" y="1198"/>
      <point x="1190" y="1110"/>
      <point x="1229" y="967" type="curve"/>
      <point x="1503" y="1038" type="line"/>
      <point x="1565" y="1357" type="line" smooth="yes"/>
      <point x="1586" y="1465"/>
      <point x="1636" y="1498"/>
      <point x="1705" y="1498" type="curve" smooth="yes"/>
      <point x="1725" y="1498"/>
      <point x="1753" y="1494"/>
      <point x="1790" y="1486" type="curve"/>
      <point x="1830" y="1690" type="line"/>
      <point x="1781" y="1701"/>
      <point x="1731" y="1707"/>
      <point x="1681" y="1707" type="curve" smooth="yes"/>
      <point x="1482" y="1707"/>
      <point x="1348" y="1608"/>
      <point x="1311" y="1417" type="curve" smooth="yes"/>
      <point x="1296" y="1337" type="line"/>
      <point x="1199" y="1399"/>
      <point x="1076" y="1430"/>
      <point x="927" y="1430" type="curve" smooth="yes"/>
      <point x="607" y="1430"/>
      <point x="345" y="1284"/>
      <point x="205" y="1020" type="curve" smooth="yes"/>
      <point x="135" y="887"/>
      <point x="100" y="737"/>
      <point x="100" y="569" type="curve" smooth="yes"/>
      <point x="100" y="333"/>
      <point x="197" y="148"/>
      <point x="381" y="52" type="curve" smooth="yes"/>
      <point x="473" y="4"/>
      <point x="583" y="-20"/>
      <point x="711" y="-20" type="curve" smooth="yes"/>
      <point x="1011" y="-20"/>
      <point x="1237" y="104"/>
    </contour>
  </outline>
</glyph>
<glyph name="uni0188" format="2">
  <advance width="1139"/>
  <unicode hex="0188"/>
  <note>
uni0188
</note>
  <outline>
    <contour>
      <point x="536" y="173" type="curve" smooth="yes"/>
      <point x="417" y="173"/>
      <point x="358" y="251"/>
      <point x="358" y="407" type="curve" smooth="yes"/>
      <point x="358" y="442"/>
      <point x="366" y="498"/>
      <point x="381" y="575" type="curve"/>
      <point x="419" y="719"/>
      <point x="458" y="808"/>
      <point x="512" y="858" type="curve" smooth="yes"/>
      <point x="551" y="894"/>
      <point x="598" y="909"/>
      <point x="658" y="909" type="curve" smooth="yes"/>
      <point x="762" y="909"/>
      <point x="818" y="845"/>
      <point x="825" y="718" type="curve"/>
      <point x="1109" y="741" type="line"/>
      <point x="1156" y="981" type="line" smooth="yes"/>
      <point x="1177" y="1089"/>
      <point x="1227" y="1122"/>
      <point x="1296" y="1122" type="curve" smooth="yes"/>
      <point x="1316" y="1122"/>
      <point x="1344" y="1118"/>
      <point x="1381" y="1110" type="curve"/>
      <point x="1420" y="1311" type="line"/>
      <point x="1372" y="1322"/>
      <point x="1323" y="1328"/>
      <point x="1272" y="1328" type="curve" smooth="yes"/>
      <point x="1084" y="1328"/>
      <point x="955" y="1236"/>
      <point x="918" y="1049" type="curve"/>
      <point x="850" y="1084"/>
      <point x="771" y="1102"/>
      <point x="680" y="1102" type="curve" smooth="yes"/>
      <point x="419" y="1102"/>
      <point x="247" y="999"/>
      <point x="142" y="771" type="curve" smooth="yes"/>
      <point x="89" y="657"/>
      <point x="63" y="535"/>
      <point x="63" y="405" type="curve" smooth="yes"/>
      <point x="63" y="138"/>
      <point x="227" y="-20"/>
      <point x="520" y="-20" type="curve" smooth="yes"/>
      <point x="790" y="-20"/>
      <point x="960" y="97"/>
      <point x="1030" y="331" type="curve"/>
      <point x="759" y="381" type="line"/>
      <point x="716" y="244"/>
      <point x="647" y="173"/>
    </contour>
  </outline>
</glyph>
<glyph name="uni018A" format="2">
  <advance width="1623"/>
  <unicode hex="018A"/>
  <note>
uni018A
</note>
  <outline>
    <contour>
      <point x="906" y="1409" type="curve"/>
      <point x="476" y="1409" type="line" smooth="yes"/>
      <point x="212" y="1409"/>
      <point x="89" y="1286"/>
      <point x="89" y="1021" type="curve" smooth="yes"/>
      <point x="89" y="988"/>
      <point x="91" y="959"/>
      <point x="94" y="934" type="curve"/>
      <point x="319" y="951" type="line"/>
      <point x="311" y="991"/>
      <point x="307" y="1023"/>
      <point x="307" y="1048" type="curve" smooth="yes"/>
      <point x="307" y="1143"/>
      <point x="359" y="1195"/>
      <point x="455" y="1195" type="curve" smooth="yes"/>
      <point x="472" y="1195" type="line"/>
      <point x="240" y="0" type="line"/>
      <point x="786" y="0" type="line" smooth="yes"/>
      <point x="1097" y="0"/>
      <point x="1362" y="149"/>
      <point x="1494" y="390" type="curve" smooth="yes"/>
      <point x="1560" y="511"/>
      <point x="1593" y="650"/>
      <point x="1593" y="807" type="curve" smooth="yes"/>
      <point x="1593" y="1196"/>
      <point x="1350" y="1409"/>
    </contour>
    <contour>
      <point x="579" y="228" type="line"/>
      <point x="764" y="1181" type="line"/>
      <point x="908" y="1181" type="line" smooth="yes"/>
      <point x="1172" y="1181"/>
      <point x="1317" y="1046"/>
      <point x="1317" y="794" type="curve" smooth="yes"/>
      <point x="1317" y="566"/>
      <point x="1225" y="388"/>
      <point x="1061" y="297" type="curve" smooth="yes"/>
      <point x="978" y="251"/>
      <point x="884" y="228"/>
      <point x="777" y="228" type="curve" smooth="yes"/>
    </contour>
  </outline>
</glyph>
<glyph name="uni018B" format="2">
  <advance width="1366"/>
  <unicode hex="018B"/>
  <note>
uni018B
</note>
  <outline>
    <contour>
      <point x="480" y="0" type="curve" smooth="yes"/>
      <point x="1152" y="0" type="line"/>
      <point x="1425" y="1409" type="line"/>
      <point x="424" y="1409" type="line"/>
      <point x="380" y="1182" type="line"/>
      <point x="1086" y="1182" type="line"/>
      <point x="1020" y="841" type="line"/>
      <point x="611" y="841" type="line" smooth="yes"/>
      <point x="380" y="841"/>
      <point x="202" y="764"/>
      <point x="106" y="621" type="curve" smooth="yes"/>
      <point x="57" y="550"/>
      <point x="33" y="466"/>
      <point x="33" y="370" type="curve"/>
      <point x="33" y="223"/>
      <point x="107" y="107"/>
      <point x="242" y="46" type="curve" smooth="yes"/>
      <point x="309" y="15"/>
      <point x="389" y="0"/>
    </contour>
    <contour>
      <point x="978" y="623" type="line"/>
      <point x="899" y="219" type="line"/>
      <point x="570" y="219" type="line" smooth="yes"/>
      <point x="413" y="219"/>
      <point x="335" y="277"/>
      <point x="335" y="392" type="curve" smooth="yes"/>
      <point x="335" y="541"/>
      <point x="440" y="623"/>
      <point x="641" y="623" type="curve" smooth="yes"/>
    </contour>
  </outline>
</glyph>
<glyph name="uni018C" format="2">
  <advance width="1251"/>
  <unicode hex="018C"/>
  <note>
uni018C
</note>
  <outline>
    <contour>
      <point x="392" y="-21" type="curve" smooth="yes"/>
      <point x="553" y="-21"/>
      <point x="654" y="36"/>
      <point x="749" y="160" type="curve"/>
      <point x="753" y="160" type="line"/>
      <point x="745" y="120"/>
      <point x="738" y="41"/>
      <point x="738" y="0" type="curve"/>
      <point x="1019" y="0" type="line"/>
      <point x="1025" y="79"/>
      <point x="1035" y="156"/>
      <point x="1048" y="231" type="curve" smooth="yes"/>
      <point x="1286" y="1484" type="line"/>
      <point x="506" y="1484" type="line"/>
      <point x="460" y="1271" type="line"/>
      <point x="966" y="1271" type="line"/>
      <point x="935" y="1115"/>
      <point x="916" y="1020"/>
      <point x="911" y="987" type="curve" smooth="yes"/>
      <point x="905" y="953"/>
      <point x="901" y="925"/>
      <point x="899" y="904" type="curve"/>
      <point x="894" y="904" type="line"/>
      <point x="855" y="1033"/>
      <point x="745" y="1102"/>
      <point x="580" y="1102" type="curve" smooth="yes"/>
      <point x="363" y="1102"/>
      <point x="207" y="972"/>
      <point x="122" y="728" type="curve" smooth="yes"/>
      <point x="79" y="606"/>
      <point x="58" y="481"/>
      <point x="58" y="354" type="curve" smooth="yes"/>
      <point x="58" y="126"/>
      <point x="187" y="-21"/>
    </contour>
    <contour>
      <point x="515" y="172" type="curve"/>
      <point x="408" y="172"/>
      <point x="355" y="246"/>
      <point x="355" y="393" type="curve" smooth="yes"/>
      <point x="355" y="544"/>
      <point x="402" y="749"/>
      <point x="488" y="841" type="curve" smooth="yes"/>
      <point x="531" y="887"/>
      <point x="586" y="910"/>
      <point x="654" y="910" type="curve" smooth="yes"/>
      <point x="779" y="910"/>
      <point x="842" y="841"/>
      <point x="842" y="681" type="curve" smooth="yes"/>
      <point x="842" y="573"/>
      <point x="807" y="408"/>
      <point x="752" y="313" type="curve" smooth="yes"/>
      <point x="697" y="217"/>
      <point x="622" y="172"/>
    </contour>
  </outline>
</glyph>
<glyph name="uni018D" format="2">
  <advance width="1250"/>
  <unicode hex="018D"/>
  <note>
uni018D
</note>
  <outline>
    <contour>
      <point x="1203" y="678" type="curve"/>
      <point x="1203" y="945"/>
      <point x="1037" y="1102"/>
      <point x="745" y="1102" type="curve" smooth="yes"/>
      <point x="485" y="1102"/>
      <point x="276" y="984"/>
      <point x="166" y="784" type="curve" smooth="yes"/>
      <point x="111" y="683"/>
      <point x="83" y="570"/>
      <point x="83" y="444" type="curve" smooth="yes"/>
      <point x="83" y="327"/>
      <point x="113" y="238"/>
      <point x="160" y="166" type="curve" smooth="yes"/>
      <point x="183" y="129"/>
      <point x="221" y="88"/>
      <point x="273" y="41" type="curve" smooth="yes"/>
      <point x="572" y="-221" type="line"/>
      <point x="440" y="-221" type="line"/>
      <point x="35" y="-221" type="line"/>
      <point x="-5" y="-424" type="line"/>
      <point x="918" y="-424" type="line"/>
      <point x="953" y="-244" type="line"/>
      <point x="655" y="9" type="line"/>
      <point x="886" y="57"/>
      <point x="1053" y="185"/>
      <point x="1139" y="369" type="curve" smooth="yes"/>
      <point x="1181" y="459"/>
      <point x="1203" y="563"/>
    </contour>
    <contour>
      <point x="911" y="689" type="curve" smooth="yes"/>
      <point x="911" y="500"/>
      <point x="846" y="332"/>
      <point x="745" y="252" type="curve" smooth="yes"/>
      <point x="694" y="212"/>
      <point x="635" y="192"/>
      <point x="567" y="192" type="curve" smooth="yes"/>
      <point x="451" y="192"/>
      <point x="377" y="267"/>
      <point x="377" y="422" type="curve" smooth="yes"/>
      <point x="377" y="609"/>
      <point x="428" y="763"/>
      <point x="524" y="847" type="curve" smooth="yes"/>
      <point x="571" y="888"/>
      <point x="629" y="909"/>
      <point x="698" y="909" type="curve" smooth="yes"/>
      <point x="833" y="909"/>
      <point x="911" y="829"/>
    </contour>
  </outline>
</glyph>
<glyph name="uni018F" format="2">
  <advance width="1531"/>
  <unicode hex="018F"/>
  <unicode hex="04D8"/>
  <note>
uni018F
</note>
  <outline>
    <contour>
      <point x="1161" y="848" type="curve"/>
      <point x="155" y="848" type="line"/>
      <point x="123" y="747"/>
      <point x="107" y="646"/>
      <point x="107" y="545" type="curve" smooth="yes"/>
      <point x="107" y="333"/>
      <point x="199" y="149"/>
      <point x="360" y="53" type="curve" smooth="yes"/>
      <point x="441" y="4"/>
      <point x="535" y="-20"/>
      <point x="643" y="-20" type="curve" smooth="yes"/>
      <point x="954" y="-20"/>
      <point x="1216" y="133"/>
      <point x="1360" y="396" type="curve" smooth="yes"/>
      <point x="1431" y="527"/>
      <point x="1467" y="674"/>
      <point x="1467" y="837" type="curve" smooth="yes"/>
      <point x="1467" y="1202"/>
      <point x="1233" y="1430"/>
      <point x="873" y="1430" type="curve" smooth="yes"/>
      <point x="569" y="1430"/>
      <point x="381" y="1321"/>
      <point x="265" y="1070" type="curve"/>
      <point x="524" y="997" type="line"/>
      <point x="599" y="1116"/>
      <point x="650" y="1157"/>
      <point x="727" y="1182" type="curve" smooth="yes"/>
      <point x="766" y="1194"/>
      <point x="813" y="1200"/>
      <point x="869" y="1200" type="curve" smooth="yes"/>
      <point x="1040" y="1200"/>
      <point x="1163" y="1075"/>
      <point x="1163" y="903" type="curve" smooth="yes"/>
      <point x="1163" y="884"/>
      <point x="1162" y="865"/>
    </contour>
    <contour>
      <point x="700" y="206" type="curve"/>
      <point x="512" y="206"/>
      <point x="402" y="327"/>
      <point x="402" y="520" type="curve" smooth="yes"/>
      <point x="402" y="553"/>
      <point x="404" y="584"/>
      <point x="409" y="613" type="curve"/>
      <point x="1119" y="613" type="line"/>
      <point x="1055" y="356"/>
      <point x="903" y="206"/>
    </contour>
  </outline>
</glyph>
